<svg width="28" height="27" viewBox="0 0 28 27" fill="none" xmlns="http://www.w3.org/2000/svg">
<path d="M13.7857 13.8064C13.2165 12.9324 12.8035 12.2077 12.2314 10.8432C11.2641 8.53835 18.1148 6.45568 15.3371 2.45386C16.5412 5.21825 11.0154 6.92719 10.5021 9.22931C10.0327 11.3467 13.7829 13.8064 13.7857 13.8064Z" fill="#F89B24"/>
<path d="M13.9159 9.66276C13.8063 11.0295 15.1872 11.7579 15.2271 12.7563C15.2591 13.569 14.4018 14.2464 14.4018 14.2464C14.4018 14.2464 15.9578 13.9552 16.4432 12.7156C16.9822 11.3391 15.3971 10.3966 15.5602 9.29446C15.7125 8.24172 19.0001 6.28345 19.0001 6.28345C19.0001 6.28345 14.1628 6.58873 13.9159 9.66276Z" fill="#F89B24"/>
<path d="M18.5961 13.8915C19.5965 13.6775 20.4401 14.2842 20.4401 14.9834C20.4401 16.5592 18.1466 18.0487 18.1466 18.0487C18.1466 18.0487 21.6972 17.6456 21.6972 15.0583C21.6972 13.3472 19.9536 12.9197 18.5961 13.8915ZM16.9106 15.1626C16.9106 15.1626 18.0177 14.4114 18.3126 14.1294C15.5959 14.6786 9.39316 14.7525 9.39316 14.2756C9.39316 13.8361 11.3934 13.3858 11.3934 13.3858C11.3934 13.3858 6.95996 13.3249 6.95996 14.5705C6.95996 15.8688 12.7635 15.9617 16.9106 15.1626Z" fill="#5886A4"/>
<path d="M16.2298 16.3446C13.658 17.1589 8.9211 16.8987 10.3242 15.8052C9.64091 15.8052 8.62793 16.3283 8.62793 16.8313C8.62793 17.84 13.751 18.619 17.5428 17.142L16.2298 16.3446Z" fill="#5886A4"/>
<path d="M10.9541 18.0654C10.021 18.0654 9.41699 18.638 9.41699 19.0552C9.41699 20.354 14.9838 20.4849 17.1894 19.1665L15.7875 18.28C14.1397 18.9699 10.0005 19.0649 10.9541 18.0654Z" fill="#5886A4"/>
<path d="M20.99 20.1803C20.99 19.6719 20.3882 19.4323 20.1726 19.3177C21.4434 22.2364 7.44367 22.0099 7.44367 20.2868C7.44367 19.8951 8.47432 19.5116 9.42684 19.6931L8.61692 19.2373C6.71872 18.9538 5.42969 19.7485 5.42969 20.3895C5.42969 23.3788 20.99 23.2348 20.99 20.1803Z" fill="#5886A4"/>
<path d="M22.5409 21.2515C20.1762 23.4759 14.1799 24.2864 8.1499 22.9121C14.1799 25.3581 22.5124 23.9806 22.5409 21.2515Z" fill="#5886A4"/>
</svg>
