<svg width="24" height="23" viewBox="0 0 24 23" fill="none" xmlns="http://www.w3.org/2000/svg">
<path d="M11.8664 1.52051L1.88867 11.5116L11.8248 21.4611L21.8025 11.47L11.8664 1.52051Z" fill="#019833" stroke="black" stroke-width="0.5"/>
<path d="M11.8249 1.56221V0.687988L0.974121 11.5533H1.88874L11.8249 1.56221Z" fill="#66FE98" stroke="black" stroke-width="0.5"/>
<path d="M11.7993 1.56221V0.687988L22.6501 11.5533H21.7354L11.7993 1.56221Z" fill="#45FE02" stroke="black" stroke-width="0.5"/>
<path d="M11.8249 21.5192V22.3934L0.974121 11.5281H1.88874L11.8249 21.5192Z" fill="#017D17" stroke="black" stroke-width="0.5"/>
<path d="M2.98655 1.7915H9.98306L10.4093 2.21833V3.52826L10.0712 3.94037H9.30692V10.4459L15.8919 3.94037H14.8042L14.422 3.52826V2.14474L14.7748 1.82094H21.8595L22.2122 2.17418V3.46939L6.19084 19.9244H4.36822L3.84065 19.6194V3.8815H2.95716L2.63379 3.5577V2.17418L2.98655 1.7915Z" stroke="black" stroke-width="0.5"/>
<path d="M11.7993 21.5192V22.3934L22.6501 11.5281H21.7354L11.7993 21.5192Z" fill="#005D04" stroke="black" stroke-width="0.5"/>
<path d="M11.7954 0.607422L0.903809 11.5136L11.75 22.3744L22.6415 11.4682L11.7954 0.607422Z" stroke="black" stroke-width="0.5"/>
<path d="M10.0575 2.4573L10.4524 2.24915L10.0471 1.84326H2.98992L2.63135 2.20232V3.56048L3.0289 3.95857L3.21858 3.56048L2.96914 3.3107V2.35322L3.15622 2.18671H9.89116L10.0575 2.4573Z" fill="#FEFEFE" stroke="black" stroke-width="0.5"/>
<path d="M15.0471 2.14478L14.7979 2.39429V3.3104L15.0161 3.52896H16.1693V4.41411L8.54103 12.1564V3.53989H9.80877L10.0689 3.27944V2.3524L9.82877 2.16663H3.15723L2.93896 2.38519V3.33226L3.16086 3.55446H4.32129V19.4216L4.53955 19.6401H5.85822L21.8441 3.12281V2.39429L21.5949 2.14478H15.0471Z" stroke="black" stroke-width="0.5"/>
<path d="M4.30951 3.52808V19.4238L4.51529 19.6593L4.35391 19.9673L3.89795 19.5121V3.94019L4.30951 3.52808Z" fill="#FEFEFE" stroke="black" stroke-width="0.5"/>
<path d="M3.16983 3.52808L3.05225 3.91075H3.90476L4.37511 3.52808H3.16983Z" fill="#808080" stroke="black" stroke-width="0.5"/>
<path d="M14.88 3.95795L15.0671 3.57287L14.7969 3.32309V2.46969L15.1087 2.15747H21.615L21.8644 2.4905L22.2178 2.24072L21.854 1.87646H14.8592L14.5111 2.22511V3.59369L14.8722 3.93453M9.21951 10.506L8.54004 12.1569L16.2104 4.45542V3.53957L9.21951 10.506Z" fill="#FEFEFE"/>
<path d="M14.88 3.95795L15.0671 3.57287L14.7969 3.32309V2.46969L15.1087 2.15747H21.615L21.8644 2.4905L22.2178 2.24072L21.854 1.87646H14.8592L14.5111 2.22511V3.59369L14.8722 3.93453M9.21951 10.506L8.54004 12.1569L16.2104 4.45542V3.53957L9.21951 10.506Z" stroke="black" stroke-width="0.5"/>
<path d="M10.0417 2.4095L10.3798 2.18872V3.52808L9.99029 3.91812H9.23331V10.5193L8.54248 12.153V3.52808H9.80656L10.0417 3.33675V2.4095Z" fill="#808080" stroke="black" stroke-width="0.5"/>
<path d="M15.0471 2.14478L14.7979 2.39429V3.3104L15.0161 3.52896H16.1693V4.41411L8.54103 12.1564V3.53989H9.80877L10.0689 3.27944V2.3524L9.82877 2.16663H3.15723L2.93896 2.38519V3.33226L3.16086 3.55446H4.32129V19.4216L4.53955 19.6401H5.85822L21.8441 3.12281V2.39429L21.5949 2.14478H15.0471Z" fill="#CCCCCC" stroke="black" stroke-width="0.5"/>
<path d="M21.8648 2.41547L22.2198 2.21021V3.49783L6.11641 19.9751H4.40674L4.57008 19.6501H5.87965L21.844 3.14398L21.8648 2.41547Z" fill="#808080" stroke="black" stroke-width="0.5"/>
<path d="M16.1788 3.55029L15.8186 3.92561H14.8779L15.0984 3.55029C15.1058 3.55029 16.1788 3.55029 16.1788 3.55029Z" fill="#808080" stroke="black" stroke-width="0.5"/>
<path d="M12.3387 12.8402C12.3266 12.8428 12.3153 12.8484 12.306 12.8566L11.9968 13.1225C11.9876 13.1309 11.9807 13.1416 11.9768 13.1535L11.6676 14.0204C11.663 14.0331 11.6621 14.0469 11.665 14.0601C11.6679 14.0733 11.6745 14.0854 11.684 14.0951L11.9204 14.3319C11.9341 14.345 11.9524 14.3522 11.9713 14.3519H12.9262C12.9452 14.3522 12.9635 14.345 12.9772 14.3319L13.2263 14.0805C13.2349 14.0719 13.2412 14.0613 13.2445 14.0496L13.5101 13.1371C13.5137 13.1247 13.5139 13.1116 13.5107 13.0991C13.5075 13.0866 13.501 13.0752 13.4919 13.0661L13.2864 12.8602C13.2727 12.8471 13.2544 12.8399 13.2354 12.8402H12.3533C12.3485 12.8397 12.3436 12.8397 12.3387 12.8402ZM10.589 15.2844C10.5759 15.2872 10.5638 15.2937 10.5542 15.303C10.5445 15.3123 10.5377 15.3242 10.5344 15.3372L10.4162 15.8071C10.4136 15.8177 10.4134 15.8287 10.4156 15.8393C10.4179 15.8499 10.4225 15.8599 10.4291 15.8685C10.4358 15.8771 10.4443 15.8841 10.454 15.8889C10.4638 15.8937 10.4745 15.8963 10.4853 15.8963H11.0474L9.65412 19.8795C9.65052 19.8903 9.64951 19.9017 9.65117 19.9129C9.65283 19.9241 9.65712 19.9348 9.66368 19.944C9.67025 19.9533 9.6789 19.9608 9.68893 19.9661C9.69896 19.9713 9.71009 19.9741 9.72141 19.9742H11.7494C11.7647 19.9744 11.7796 19.9698 11.792 19.961C11.8044 19.9521 11.8137 19.9395 11.8185 19.9251L11.9513 19.4971C11.9546 19.4863 11.9553 19.4749 11.9534 19.4637C11.9515 19.4526 11.947 19.4421 11.9402 19.4331C11.9335 19.424 11.9248 19.4167 11.9147 19.4117C11.9046 19.4067 11.8935 19.4041 11.8822 19.4042H11.4239L12.8025 15.3791C12.8061 15.3684 12.8072 15.3569 12.8055 15.3457C12.8038 15.3345 12.7995 15.3238 12.793 15.3146C12.7864 15.3054 12.7778 15.2978 12.7677 15.2926C12.7577 15.2873 12.7466 15.2845 12.7352 15.2844H10.6036C10.5987 15.2839 10.5938 15.2839 10.589 15.2844ZM17.0423 15.299C17.0267 15.3022 17.0126 15.3105 17.0023 15.3226L16.5803 15.7998H15.9091L15.4617 15.3354C15.4551 15.3285 15.4472 15.3231 15.4384 15.3193C15.4297 15.3156 15.4203 15.3136 15.4108 15.3135H13.8084C13.7937 15.3136 13.7793 15.3181 13.7673 15.3266C13.7552 15.3351 13.7461 15.347 13.7411 15.3609L13.5937 15.8016C13.5901 15.8124 13.5891 15.8238 13.5908 15.835C13.5925 15.8463 13.5968 15.8569 13.6033 15.8662C13.6099 15.8754 13.6185 15.8829 13.6286 15.8882C13.6386 15.8934 13.6497 15.8962 13.661 15.8963H14.0903L12.7553 19.8358C12.7517 19.8466 12.7506 19.858 12.7523 19.8692C12.754 19.8804 12.7583 19.8911 12.7648 19.9003C12.7714 19.9096 12.78 19.9171 12.7901 19.9224C12.8001 19.9276 12.8112 19.9304 12.8226 19.9305H14.5286C14.5433 19.9305 14.5577 19.9259 14.5697 19.9175C14.5818 19.909 14.5909 19.897 14.5959 19.8832L14.7269 19.4989C14.7305 19.4881 14.7315 19.4767 14.7298 19.4655C14.7282 19.4543 14.7239 19.4436 14.7173 19.4344C14.7108 19.4251 14.7021 19.4176 14.6921 19.4123C14.682 19.4071 14.6709 19.4043 14.6596 19.4042H14.3613L15.2125 16.7214H16.7531L15.7818 19.8376C15.7785 19.8484 15.7778 19.8598 15.7797 19.8709C15.7817 19.8821 15.7862 19.8926 15.7929 19.9016C15.7996 19.9106 15.8084 19.918 15.8185 19.923C15.8286 19.928 15.8397 19.9306 15.8509 19.9305H17.497C17.511 19.9304 17.5246 19.9262 17.5363 19.9185C17.5479 19.9107 17.557 19.8997 17.5625 19.8868L17.7098 19.5335C17.7141 19.5227 17.7157 19.511 17.7145 19.4994C17.7133 19.4879 17.7093 19.4768 17.7028 19.4671C17.6964 19.4574 17.6877 19.4495 17.6775 19.4439C17.6673 19.4383 17.6559 19.4353 17.6443 19.4351H17.346L18.2118 16.7068H19.6778L18.692 19.8376C18.6887 19.8484 18.688 19.8598 18.6899 19.8709C18.6918 19.8821 18.6963 19.8926 18.7031 19.9016C18.7098 19.9106 18.7186 19.918 18.7286 19.923C18.7387 19.928 18.7498 19.9306 18.7611 19.9305H20.569C20.5835 19.9306 20.5977 19.9263 20.6097 19.9182C20.6218 19.9101 20.631 19.8985 20.6363 19.885L20.7837 19.5007C20.7876 19.4898 20.7889 19.4782 20.7874 19.4667C20.7859 19.4553 20.7817 19.4444 20.7751 19.4349C20.7685 19.4254 20.7597 19.4177 20.7495 19.4123C20.7393 19.407 20.7279 19.4042 20.7164 19.4042H20.3581L21.4475 15.8617C21.4511 15.8507 21.452 15.839 21.4501 15.8276C21.4482 15.8162 21.4436 15.8054 21.4366 15.7962L21.0983 15.3409C21.0914 15.3321 21.0826 15.325 21.0725 15.3203C21.0623 15.3156 21.0513 15.3132 21.0401 15.3135H19.7469C19.7371 15.3134 19.7274 15.3152 19.7183 15.319C19.7092 15.3227 19.701 15.3283 19.6942 15.3354L19.2868 15.7834H18.5738L18.1518 15.3208C18.145 15.3138 18.1368 15.3082 18.1277 15.3044C18.1186 15.3007 18.1089 15.2988 18.099 15.299H17.0568C17.052 15.2985 17.0471 15.2985 17.0423 15.299Z" fill="#CCCCCC" stroke="black" stroke-width="0.5" stroke-miterlimit="10"/>
<path d="M12.3526 12.9111L12.0434 13.177L11.7342 14.044L11.9706 14.2807H12.9255L13.1747 14.0294L13.4403 13.1169L13.2347 12.9111H12.3526ZM10.6028 15.3553L10.4846 15.8252H11.1467L9.7207 19.9031H11.7487L11.8815 19.4751H11.3231L12.7345 15.3553H10.6028ZM17.0561 15.3699L16.6141 15.8707H15.8793L15.4101 15.3845H13.8077L13.6603 15.8252H14.1896L12.8218 19.8594H14.5279L14.6589 19.4751H14.2624L15.1591 16.6503H16.8506L15.8502 19.8594H17.4963L17.6436 19.506H17.2471L18.1584 16.6357H19.7753L18.7604 19.8594H20.5683L20.7157 19.4751H20.2591L21.3777 15.8398L21.0394 15.3845H19.7462L19.3188 15.8543H18.5403L18.0983 15.3699H17.0561Z" fill="#CCCCCC" stroke="black" stroke-width="0.5" stroke-miterlimit="10"/>
</svg>
