<svg width="24" height="23" viewBox="0 0 24 23" fill="none" xmlns="http://www.w3.org/2000/svg">
<g clip-path="url(#clip0_80_1050)">
<path d="M21.258 14.2882C21.1735 13.9055 20.8262 13.459 20.1258 13.459C19.9827 13.459 19.8261 13.477 19.6479 13.5139C19.321 13.5813 19.0426 13.6141 18.7974 13.6252C20.7057 10.3746 21.9445 5.85939 20.7177 4.29183C19.1012 2.22651 16.9251 1.91808 15.7722 1.91808L15.6637 1.91854C15.2347 1.92547 14.7896 1.9781 14.3417 2.07507L12.6874 2.43245C12.462 2.40428 12.2326 2.38443 11.9934 2.38027H11.9795H11.9721L11.902 2.37981C11.1664 2.37981 10.4955 2.53587 9.89759 2.82907L9.31997 2.60144C8.5258 2.28839 7.33084 1.91577 6.14882 1.91577C6.08233 1.91577 6.0163 1.91716 5.94981 1.91947C4.78533 1.96148 3.78523 2.40336 3.05708 3.19707C2.1484 4.18794 1.73469 5.6373 1.82842 7.50546C1.83304 7.60196 2.96335 17.1556 6.16729 17.1556H6.17883L6.20838 17.1551C6.6244 17.145 7.02102 16.9778 7.39179 16.6578C7.67483 16.8702 8.04098 16.9958 8.3822 17.0457C8.60752 17.0988 9.01292 17.174 9.49866 17.174C10.0915 17.174 10.6262 17.0526 11.087 16.8333C11.0865 17.2396 11.0842 17.754 11.0796 18.4115L11.0792 18.4461L11.0815 18.4807C11.1262 19.1359 11.2394 19.7265 11.4098 20.1896C11.895 21.5097 12.7331 22.2369 13.7696 22.2369C13.8126 22.2369 13.8565 22.2355 13.9008 22.2327C14.7531 22.1801 15.617 21.7013 16.2113 20.9528C16.8545 20.1425 17.0031 19.2874 17.0604 18.6322L17.0641 18.592V18.5514V16.668L17.1116 16.6726L17.3129 16.6902L17.3323 16.692L17.3517 16.6929C17.409 16.6957 17.4681 16.6966 17.5277 16.6966C18.2235 16.6966 19.08 16.5161 19.659 16.2469C20.2126 15.9902 21.4777 15.2847 21.258 14.2882Z" fill="black"/>
<path d="M16.141 16.2321C16.141 16.1374 16.1466 16.0585 16.1494 15.9712C16.1447 15.8553 16.141 15.7704 16.141 15.7704C16.141 15.7704 16.1466 15.7662 16.1558 15.7602C16.2246 14.526 16.5649 14.0504 16.9292 13.7794C16.8784 13.7087 16.8198 13.6326 16.7648 13.5601C16.6111 13.3583 16.4195 13.108 16.2145 12.7871L16.1766 12.7142C16.1457 12.6385 16.0709 12.5078 15.9757 12.336C15.4295 11.3479 14.2927 9.29232 15.0708 7.99394C15.4115 7.42509 16.0505 7.09726 16.9735 7.01646C16.5963 5.94386 15.183 3.3568 11.9786 3.3037C11.9776 3.3037 11.9767 3.3037 11.9758 3.3037C9.18649 3.25845 8.26996 5.79334 7.97168 7.30781C8.38262 7.13374 8.85173 7.028 9.28114 7.028C9.28761 7.028 9.29453 7.028 9.301 7.028C10.3584 7.03585 11.0856 7.60008 11.297 8.57664C11.4517 9.29324 11.5261 9.92027 11.5242 10.4942C11.5196 11.7496 11.2666 12.4099 11.0431 12.9926L10.972 13.181C10.9147 13.3352 10.8543 13.4788 10.797 13.6136C10.7388 13.7512 10.6876 13.8736 10.6502 13.9839C10.8736 14.0347 11.0491 14.1063 11.1696 14.1594L11.2393 14.1899C11.261 14.1991 11.2827 14.2097 11.3026 14.2217C11.6941 14.46 11.9379 14.8261 11.9901 15.2528C12.0183 15.4827 12.0137 17.0503 12.004 18.4179C12.0441 19.0112 12.1448 19.5094 12.2778 19.8705C12.4666 20.3849 12.9385 21.367 13.8449 21.3106C14.4774 21.2714 15.0855 20.8863 15.4891 20.3784C15.9222 19.8331 16.0819 19.2301 16.142 18.5509V16.2321H16.141Z" fill="#1C81BD"/>
<path d="M7.88259 13.8851C7.13783 13.108 6.77491 12.0627 6.91112 11.0889C7.04271 10.1493 6.96837 9.22952 6.9282 8.73501C6.91481 8.57017 6.90604 8.44735 6.9065 8.37948C6.9065 8.37578 6.90742 8.37255 6.90789 8.36886C6.90789 8.36701 6.90696 8.36563 6.90696 8.36378C6.96283 6.9689 7.50074 4.7683 8.98151 3.46022C8.26029 3.17626 7.08565 2.8018 5.98304 2.84197C4.25526 2.90476 2.58288 4.09972 2.75094 7.45925C2.8142 8.71977 4.23863 16.2797 6.1862 16.2321C6.46463 16.2252 6.75367 16.0465 7.05056 15.6891C7.52014 15.1244 7.97633 14.6123 8.30092 14.2559C8.15548 14.1455 8.01511 14.0236 7.88259 13.8851ZM17.9986 7.33505C18.0055 7.40615 17.9995 7.4671 17.9884 7.52343C18.0028 7.94822 17.957 8.36055 17.9104 8.75948C17.8762 9.05314 17.8412 9.35649 17.8315 9.66077C17.8218 9.95859 17.8638 10.2527 17.9081 10.5639C18.012 11.2925 18.12 12.1149 17.5549 13.0743C17.6588 13.211 17.7502 13.338 17.8231 13.4608C19.9517 10.0094 20.8096 5.90646 19.991 4.86064C18.7521 3.27784 17.0373 2.81981 15.6789 2.84197C15.2536 2.84889 14.8672 2.90615 14.537 2.97772C16.8808 4.11357 17.9247 6.5478 17.9986 7.33505ZM19.8349 14.418C18.6044 14.6719 18.0125 14.5366 17.7253 14.3598C17.6791 14.393 17.6329 14.4212 17.59 14.4475C17.4182 14.5514 17.1463 14.7167 17.0798 15.732C17.1181 15.7394 17.1518 15.7436 17.1933 15.7524L17.3942 15.7704C18.0037 15.7981 18.802 15.6272 19.2702 15.4098C20.2791 14.9416 20.829 14.213 19.8349 14.418ZM11.0727 15.3636C11.0556 15.226 10.9813 15.1147 10.8455 15.0256L10.7956 15.0039C10.629 14.9305 10.4401 14.8469 10.1386 14.8469H10.1368C10.0781 14.8515 10.0199 14.8557 9.9613 14.8557C9.93729 14.8557 9.91374 14.8524 9.88973 14.8515C9.67087 15.0201 9.35966 15.1503 8.5895 15.3086C7.21355 15.6591 8.02573 16.0728 8.55349 16.137C9.06416 16.2649 10.278 16.4205 11.0842 15.7634C11.0819 15.5566 11.0782 15.4144 11.0727 15.3636Z" fill="#1C81BD"/>
<path d="M10.4526 9.07576C10.3178 9.2152 10.1049 9.33709 9.86988 9.29923C9.48757 9.23736 9.19437 8.77609 9.21561 8.60295C9.23593 8.43026 9.56237 8.34022 9.94422 8.40209C10.0767 8.4238 10.1972 8.4612 10.2988 8.50737C10.1511 8.1897 9.88373 8.00639 9.47602 7.96161C8.75342 7.88126 7.98649 8.25896 7.83227 8.46812C7.8355 8.51891 7.84151 8.58402 7.84751 8.66066C7.89045 9.19026 7.96987 10.177 7.82442 11.2173C7.72838 11.9029 8.00588 12.6805 8.54795 13.2465C8.89748 13.6113 9.30565 13.8422 9.70827 13.9105C9.75953 13.6898 9.85095 13.4746 9.94514 13.2526C9.99732 13.1302 10.0527 13 10.1049 12.8592L10.1797 12.662C10.3842 12.1287 10.5953 11.5769 10.5994 10.4905C10.6013 10.0726 10.55 9.59566 10.4526 9.07576ZM16.9934 10.6946C16.9454 10.358 16.896 10.0094 16.908 9.63122C16.9186 9.28861 16.9565 8.9654 16.993 8.65281C17.0216 8.40671 17.0438 8.17031 17.0567 7.93713C16.4615 7.98654 16.0663 8.1583 15.8788 8.44873C15.9564 8.42241 16.0441 8.40163 16.1411 8.38917C16.5529 8.33561 16.8535 8.45427 16.8882 8.68329C16.9135 8.85089 16.7713 9.00881 16.709 9.06929C16.5811 9.1935 16.42 9.27338 16.256 9.29462C16.2265 9.29831 16.1965 9.30016 16.1674 9.30016C16.0044 9.30016 15.8488 9.24429 15.7292 9.16164C15.7809 10.0726 16.4527 11.2911 16.7833 11.8891C16.854 12.017 16.9085 12.119 16.9537 12.2067C17.1352 11.6901 17.0682 11.2191 16.9934 10.6946Z" fill="#1C81BD"/>
</g>
<defs>
<clipPath id="clip0_80_1050">
<rect width="22.163" height="22.163" fill="white" transform="translate(0.903809 0.533325)"/>
</clipPath>
</defs>
</svg>
