<svg width="25" height="25" viewBox="0 0 25 25" fill="none" xmlns="http://www.w3.org/2000/svg">
<path d="M22.6947 11.1824L13.8324 2.32004C13.4565 1.94237 12.9615 1.75354 12.4665 1.75354C11.9715 1.75354 11.4765 1.94237 11.1007 2.32004L9.34804 4.07271L11.5169 6.24154C12.2374 5.81804 13.176 5.90971 13.7939 6.52754C14.4117 7.14537 14.5015 8.08404 14.078 8.80271L16.2102 10.9349C16.9307 10.5114 17.8694 10.603 18.4872 11.2209C19.2205 11.9542 19.2205 13.1422 18.4872 13.8755C17.7539 14.6089 16.5659 14.6089 15.8325 13.8755C15.2147 13.2577 15.123 12.319 15.5465 11.5985L13.4144 9.46637C13.2622 9.55621 13.1027 9.62221 12.9359 9.66437V15.4302C13.7444 15.6392 14.3439 16.367 14.3439 17.2415C14.3439 18.2792 13.5042 19.1189 12.4665 19.1189C11.4289 19.1189 10.5892 18.2792 10.5892 17.2415C10.5892 16.367 11.1887 15.6392 11.9972 15.4302V9.66437C11.6837 9.58371 11.3849 9.42787 11.1392 9.18221C10.5214 8.56437 10.4315 7.62571 10.855 6.90704L8.68437 4.73637L2.23837 11.1824C1.48304 11.9359 1.48304 13.1605 2.23837 13.914L11.1007 22.7764C11.4765 23.154 11.9715 23.3429 12.4665 23.3429C12.9615 23.3429 13.4565 23.154 13.8324 22.7764L22.6947 13.914C23.45 13.1605 23.45 11.9359 22.6947 11.1824Z" fill="#F05639"/>
</svg>
