<svg width="32" height="32" viewBox="0 0 32 32" fill="none" xmlns="http://www.w3.org/2000/svg">
<g clip-path="url(#clip0_80_861)">
<path d="M11.3405 12.687L8.14184 14.4568C8.0219 14.5226 7.94824 14.6452 7.94824 14.7775V18.319C7.94824 18.4513 8.0219 18.5732 8.14184 18.6397L11.3411 20.4108C11.4604 20.4766 11.6084 20.4766 11.7277 20.4108L14.9263 18.6397C15.045 18.5732 15.1186 18.4513 15.1186 18.319V14.7775C15.1186 14.6452 15.045 14.5233 14.925 14.4568L11.727 12.687C11.6671 12.6537 11.5999 12.6375 11.5334 12.6375C11.4663 12.6375 11.3998 12.6537 11.3398 12.687M27.7978 15.8752L27.2646 16.1698C27.2444 16.1809 27.2326 16.2011 27.2326 16.2233V16.8139C27.2326 16.836 27.245 16.8562 27.2646 16.8673L27.7978 17.1626C27.818 17.1737 27.8421 17.1737 27.8623 17.1626L28.3955 16.8673C28.4151 16.8562 28.4275 16.836 28.4275 16.8139V16.2233C28.4275 16.2011 28.4151 16.1809 28.3949 16.1698L27.8617 15.8752C27.8519 15.8693 27.8408 15.8667 27.8297 15.8667C27.8186 15.8667 27.8076 15.8693 27.7978 15.8752Z" fill="#388E3C"/>
<path d="M23.4304 8.93341L21.8731 8.06449C21.8243 8.03711 21.7643 8.03776 21.7161 8.06645C21.6678 8.09513 21.6378 8.14662 21.6378 8.20268L21.6372 13.4514L20.2011 12.6568C20.1412 12.6235 20.074 12.6072 20.0075 12.6072C19.9411 12.6072 19.8739 12.6235 19.8139 12.6568H19.8146L16.616 14.4266C16.496 14.4924 16.4224 14.6149 16.4224 14.7466V18.2881C16.4224 18.4205 16.496 18.5424 16.616 18.6088L19.8153 20.3799C19.9345 20.4458 20.0825 20.4458 20.2018 20.3799L23.4004 18.6088C23.5191 18.543 23.5927 18.4205 23.5927 18.2881V9.20979C23.5927 9.09507 23.5302 8.98947 23.4304 8.93341ZM21.5498 17.4688L20.0962 18.2738C20.0421 18.3038 19.975 18.3038 19.9209 18.2738L18.4666 17.4688C18.4112 17.4388 18.3779 17.3827 18.3779 17.3227V15.7127C18.3779 15.6527 18.4112 15.5973 18.4659 15.5667L19.9202 14.7623C19.9476 14.7473 19.9769 14.7401 20.0075 14.7401C20.0382 14.7401 20.0682 14.7479 20.0955 14.7623L21.5492 15.5667C21.6039 15.5973 21.6372 15.6533 21.6372 15.7133V17.3234C21.6372 17.3827 21.6039 17.4388 21.5498 17.4688Z" fill="#DEDEDE"/>
<path d="M11.3405 12.687L7.94824 18.319C7.94824 18.4513 8.0219 18.5732 8.14184 18.6397L11.3411 20.4108C11.4604 20.4766 11.6084 20.4766 11.7277 20.4108L15.1186 14.7775C15.1186 14.6452 15.045 14.5233 14.925 14.4568L11.727 12.687C11.6671 12.6537 11.5999 12.6375 11.5334 12.6375C11.4663 12.6375 11.3998 12.6537 11.3398 12.687" fill="#2E7D32"/>
<path d="M11.3405 12.687L8.14184 14.4568C8.0219 14.5226 7.94824 14.6452 7.94824 14.7775L11.3405 20.4108C11.4598 20.4766 11.6077 20.4766 11.727 20.4108L14.9257 18.6397C15.045 18.5732 15.1186 18.4513 15.1186 18.319L11.727 12.687C11.6671 12.6537 11.5999 12.6375 11.5334 12.6375C11.4663 12.6375 11.3998 12.6537 11.3398 12.687" fill="#4CAF50"/>
<path d="M31.2213 14.4267L28.0233 12.657C27.9633 12.6237 27.8962 12.6074 27.8297 12.6074C27.7632 12.6074 27.696 12.6237 27.6361 12.657L24.4381 14.4267C24.3188 14.4926 24.2445 14.6177 24.2445 14.7546V18.2818C24.2445 18.418 24.3188 18.5438 24.4381 18.6097L27.6374 20.3808C27.7573 20.4472 27.904 20.4472 28.0239 20.3808L29.4991 19.564C29.634 19.489 29.6334 19.2954 29.4978 19.2211L26.288 17.4696C26.2339 17.4389 26.2 17.3822 26.2 17.321V15.7135C26.2 15.6535 26.2326 15.5981 26.2848 15.5694L27.7417 14.7637H27.741C27.7684 14.7488 27.7984 14.7416 27.829 14.7416C27.8597 14.7416 27.8896 14.7494 27.917 14.7637L29.3739 15.5701C29.4261 15.5988 29.4587 15.6542 29.4587 15.7141V17.0257C29.4587 17.0817 29.4886 17.1339 29.5375 17.1619C29.5864 17.1893 29.6464 17.1893 29.6953 17.1613L31.2584 16.2532C31.3549 16.1972 31.4149 16.0935 31.4149 15.9814V14.7559C31.4149 14.6184 31.3406 14.4926 31.2213 14.4267ZM7.10275 14.4267L3.90476 12.657C3.84479 12.6237 3.77765 12.6074 3.71116 12.6074C3.64467 12.6074 3.57753 12.6237 3.51756 12.657L0.319577 14.4267C0.200288 14.4926 0.125977 14.6177 0.125977 14.7546V19.6207C0.125977 19.6768 0.155962 19.7289 0.204851 19.7569C0.25374 19.7843 0.31371 19.7843 0.362599 19.7563L1.92574 18.8483C2.02221 18.7922 2.08153 18.6885 2.08153 18.5764V15.7128C2.08153 15.6529 2.11412 15.5975 2.16627 15.5688L3.62316 14.7631C3.65054 14.7481 3.68052 14.7409 3.71116 14.7409C3.7418 14.7409 3.77178 14.7488 3.79916 14.7631L5.25605 15.5694C5.3082 15.5981 5.34079 15.6535 5.34079 15.7135V18.5771C5.34079 18.6892 5.40011 18.7928 5.49724 18.8489L7.06038 19.7569C7.10926 19.785 7.16924 19.785 7.21812 19.7576C7.26636 19.7289 7.29635 19.6768 7.29635 19.6207V14.7553C7.29635 14.6184 7.22204 14.4926 7.10275 14.4267Z" fill="#DEDEDE"/>
</g>
<defs>
<clipPath id="clip0_80_861">
<rect width="31.2889" height="31.2889" fill="white" transform="translate(0.125977 0.222168)"/>
</clipPath>
</defs>
</svg>
