<svg width="41" height="29" viewBox="0 0 41 29" fill="none" xmlns="http://www.w3.org/2000/svg">
<g clip-path="url(#clip0_80_1040)">
<path d="M28.8264 20.5472C27.7619 20.5196 26.9377 20.6288 26.246 20.9269C26.0463 21.0082 25.7287 21.0081 25.7009 21.2653C25.8088 21.3741 25.8213 21.5496 25.9149 21.6998C26.0744 21.9707 26.3524 22.3352 26.6063 22.5253C26.8851 22.7429 27.1649 22.9583 27.4582 23.148C27.9755 23.4741 28.5619 23.6638 29.066 23.9887C29.3598 24.1777 29.6517 24.4222 29.9458 24.6256C30.0903 24.7341 30.1829 24.91 30.3705 24.9778V24.9365C30.2765 24.8146 30.2498 24.6383 30.1576 24.5027L29.7581 24.1102C29.3722 23.5822 28.8927 23.1212 28.3754 22.7425C27.9496 22.4437 27.0182 22.0375 26.8455 21.5377L26.8185 21.5101C27.1111 21.4822 27.4582 21.3741 27.7363 21.291C28.1888 21.1695 28.6014 21.1971 29.0657 21.0756C29.2793 21.0212 29.4911 20.953 29.7055 20.8859V20.7637C29.4648 20.5196 29.2932 20.1954 29.04 19.9647C28.3629 19.3688 27.6167 18.7859 26.8455 18.2981C26.4326 18.0265 25.9014 17.8517 25.4617 17.6206C25.3033 17.539 25.0362 17.4988 24.943 17.3631C24.7044 17.065 24.5702 16.6725 24.3972 16.3196C24.0127 15.575 23.6392 14.7488 23.3074 13.9614C23.0674 13.4334 22.9215 12.906 22.6288 12.4175C21.2581 10.1144 19.7696 8.71947 17.4818 7.35031C16.9902 7.06524 16.4052 6.94374 15.7804 6.79431L14.7825 6.74063C14.5696 6.64561 14.3563 6.38773 14.1705 6.26587C13.4115 5.77841 11.4573 4.7219 10.899 6.1168C10.5394 6.9985 11.4309 7.86533 11.7371 8.31253C11.9632 8.62299 12.2562 8.97625 12.4142 9.32879C12.5079 9.5591 12.5342 9.80355 12.6278 10.0469C12.8407 10.6432 13.0398 11.3065 13.3196 11.8629C13.4656 12.1465 13.6247 12.4447 13.8113 12.7014C13.9181 12.8516 14.1039 12.918 14.1445 13.1628C13.959 13.4326 13.9444 13.8399 13.838 14.1787C13.3595 15.7096 13.5464 17.6061 14.2246 18.7312C14.4368 19.0699 14.9431 19.8156 15.6202 19.5298C16.2197 19.2861 16.0869 18.5139 16.2593 17.8368C16.2988 17.6732 16.2728 17.5659 16.3525 17.4585V17.485C16.538 17.864 16.7253 18.2292 16.8972 18.6093C17.3099 19.2727 18.0283 19.964 18.6268 20.4235C18.9454 20.6687 19.1979 21.0879 19.597 21.2377V21.1971H19.5706C19.4898 21.0756 19.3716 21.0212 19.2655 20.9269C19.0255 20.6828 18.7599 20.3847 18.5738 20.1141C18.0162 19.355 17.5228 18.5147 17.0849 17.6475C16.8705 17.2267 16.6858 16.7668 16.5131 16.3469C16.4326 16.1847 16.4326 15.9403 16.2991 15.8587C16.099 16.1564 15.8075 16.4143 15.6615 16.7792C15.4084 17.3627 15.382 18.0805 15.288 18.8269L15.2357 18.853C14.812 18.7446 14.6646 18.2981 14.5037 17.9191C14.1053 16.9565 14.0384 15.4115 14.3841 14.3009C14.4767 14.0169 14.8772 13.1225 14.7173 12.852C14.6372 12.5926 14.3709 12.445 14.225 12.2408C14.0534 11.984 13.8654 11.6591 13.7458 11.374C13.4268 10.6156 13.2662 9.77526 12.9226 9.01724C12.7621 8.66398 12.4833 8.29839 12.2576 7.97305C12.0041 7.60746 11.7253 7.34995 11.5249 6.91654C11.4587 6.76747 11.3658 6.52374 11.4722 6.36162C11.4982 6.25281 11.5523 6.21219 11.6584 6.18499C11.8307 6.03665 12.3231 6.22525 12.4958 6.30685C12.9889 6.50996 13.4011 6.69965 13.8127 6.984C13.9989 7.12 14.1986 7.37751 14.4375 7.44534H14.7173C15.1421 7.53964 15.6209 7.47145 16.0207 7.59404C16.7253 7.82471 17.3636 8.1631 17.9361 8.52833C19.6781 9.65376 21.1147 11.2529 22.0845 13.1628C22.2436 13.474 22.3113 13.7591 22.4565 14.0837C22.7367 14.7481 23.0831 15.4256 23.3612 16.0759C23.6406 16.7124 23.9069 17.3624 24.306 17.8912C24.5051 18.1755 25.3047 18.3246 25.6632 18.4737C25.9284 18.5952 26.3414 18.7033 26.5807 18.8523C27.0332 19.1363 27.4839 19.4624 27.9093 19.7746C28.1212 19.9371 28.7869 20.2759 28.8264 20.5472ZM15.2599 8.77279C15.0763 8.77084 14.8932 8.79377 14.7156 8.84097V8.86817H14.7412C14.8483 9.0847 15.0345 9.23485 15.1673 9.42381C15.2745 9.64107 15.3674 9.8565 15.4725 10.0734L15.4981 10.0466C15.6857 9.91127 15.779 9.69438 15.779 9.36905C15.6982 9.2733 15.6857 9.17972 15.6184 9.0847C15.5401 8.94905 15.3674 8.88159 15.2599 8.77279Z" fill="#5AA3D0"/>
</g>
<defs>
<clipPath id="clip0_80_1040">
<rect width="40.4148" height="28.6815" fill="white" transform="translate(0.385254 0.207397)"/>
</clipPath>
</defs>
</svg>
