<svg width="24" height="22" viewBox="0 0 24 22" fill="none" xmlns="http://www.w3.org/2000/svg">
<g clip-path="url(#clip0_80_955)">
<path d="M11.9478 21.4927L16.2657 8.68103H7.62988L11.9478 21.4927Z" fill="#E24329"/>
<path d="M11.9479 21.4926L7.6299 8.68091H1.57861L11.9479 21.4926Z" fill="#FC6D26"/>
<path d="M1.57853 8.68091L0.266418 12.5743C0.208077 12.7474 0.208069 12.9339 0.266395 13.107C0.324721 13.2801 0.438386 13.4309 0.591101 13.5379L11.9478 21.4927L1.57844 8.681L1.57853 8.68091Z" fill="#FCA326"/>
<path d="M1.57861 8.68108H7.6299L5.02941 0.964638C4.89557 0.56757 4.31294 0.567658 4.1792 0.964638L1.57861 8.68108Z" fill="#E24329"/>
<path d="M11.9478 21.4926L16.2657 8.68091H22.3171L11.9478 21.4926Z" fill="#FC6D26"/>
<path d="M22.317 8.68091L23.6291 12.5743C23.6874 12.7474 23.6874 12.9339 23.6291 13.107C23.5708 13.2801 23.4571 13.4309 23.3043 13.5379L11.9478 21.4927L22.317 8.681V8.68091Z" fill="#FCA326"/>
<path d="M22.317 8.68108H16.2656L18.8662 0.964638C19 0.56757 19.5827 0.567658 19.7164 0.964638L22.317 8.68108Z" fill="#E24329"/>
</g>
<defs>
<clipPath id="clip0_80_955">
<rect width="23.4667" height="20.8593" fill="white" transform="translate(0.20752 0.629639)"/>
</clipPath>
</defs>
</svg>
