<svg width="23" height="24" viewBox="0 0 23 24" fill="none" xmlns="http://www.w3.org/2000/svg">
<path fill-rule="evenodd" clip-rule="evenodd" d="M11.3083 2.40611C11.6218 2.23019 12.0078 2.23019 12.3209 2.40611C13.87 3.27554 18.5316 5.89262 20.0812 6.76205C20.3947 6.93751 20.5877 7.26257 20.5877 7.61441C20.5877 9.35327 20.5877 14.587 20.5877 16.3258C20.5877 16.6777 20.3947 17.0027 20.0812 17.1786C18.5321 18.0481 13.8704 20.6652 12.3209 21.5346C12.0074 21.7105 11.6214 21.7105 11.3083 21.5346C9.75922 20.6652 5.09761 18.0481 3.54805 17.1786C3.23499 17.0027 3.04199 16.6781 3.04199 16.3263C3.04199 14.5874 3.04199 9.35374 3.04199 7.61487C3.04199 7.26303 3.23499 6.93797 3.54851 6.76205C5.09715 5.89262 9.75968 3.27554 11.3083 2.40611Z" fill="url(#paint0_linear_80_788)"/>
<path d="M11.8086 22.2305C11.3077 22.2305 10.8062 22.1141 10.3473 21.8809C9.32224 21.3606 7.98415 20.5424 6.68992 19.751C5.77893 19.1941 4.91873 18.6678 4.24415 18.2933C3.21773 17.7226 2.58008 16.6399 2.58008 15.4666V8.56607C2.58008 7.3702 3.23435 6.27821 4.28801 5.71582C6.01164 4.79745 8.77463 3.29914 10.2342 2.47911C11.2084 1.93242 12.4195 1.93242 13.3942 2.47911C15.0454 3.4058 18.1819 5.27903 19.9748 6.4098C20.6475 6.83321 21.0492 7.56227 21.0492 8.3606V15.6642C21.0492 16.7724 20.6526 17.5333 19.8704 17.9244C19.4346 18.1696 18.657 18.6521 17.7566 19.2112C16.3567 20.0802 14.6141 21.162 13.3407 21.8454C12.8628 22.1016 12.3355 22.2305 11.8086 22.2305ZM10.6862 3.28436C9.22158 4.10716 6.45029 5.61055 4.7225 6.53124C3.9708 6.93202 3.50353 7.71141 3.50353 8.56607V15.4666C3.50353 16.3042 3.95926 17.078 4.69295 17.4857C5.38462 17.8699 6.25267 18.4004 7.17197 18.9628C8.45095 19.7445 9.77335 20.5535 10.7656 21.0572C11.4388 21.3984 12.2376 21.3883 12.9039 21.0314C14.1519 20.3614 15.8806 19.2883 17.27 18.4258C18.1796 17.8611 18.965 17.3735 19.4382 17.108C20.0496 16.8019 20.1258 16.1763 20.1258 15.6642V8.3606C20.1258 7.88179 19.8852 7.445 19.483 7.19151C17.6998 6.0672 14.5827 4.20551 12.9426 3.28482C12.2362 2.88866 11.3926 2.88866 10.6862 3.28436Z" fill="#343434"/>
<path d="M11.3428 20.1217L11.3164 13.917C11.3114 12.7193 11.9689 11.6171 13.0253 11.0524L18.5706 8.08999C19.4932 7.59687 20.6087 8.26545 20.6087 9.31173V16.113C20.6087 16.5936 20.3594 17.0401 19.9503 17.2922L13.4547 21.2945C12.534 21.8624 11.3474 21.2031 11.3428 20.1217Z" fill="#343434"/>
<path d="M14.0308 13.0204C14.0876 12.9913 14.1347 13.0268 14.1356 13.1016L14.1416 13.7111C14.3965 13.61 14.6181 13.5828 14.819 13.6294C14.8628 13.6405 14.8818 13.7 14.8642 13.7707L14.7299 14.3105C14.7188 14.3515 14.6966 14.3926 14.6689 14.418C14.6569 14.4296 14.6449 14.4383 14.6334 14.4444C14.6149 14.4536 14.5974 14.4564 14.5807 14.4531C14.4888 14.4323 14.2709 14.3848 13.9283 14.5584C13.5691 14.7408 13.443 15.0529 13.4453 15.2847C13.4486 15.5622 13.5908 15.6462 14.0811 15.655C14.7349 15.6656 15.0171 15.9519 15.024 16.6094C15.0314 17.2567 14.6855 17.9507 14.1578 18.376L14.1693 18.9799C14.1698 19.0524 14.1232 19.136 14.0654 19.1646L13.7076 19.3701C13.6508 19.3992 13.6037 19.3636 13.6028 19.2907L13.5968 18.6969C13.2902 18.8243 12.9808 18.8548 12.7828 18.7754C12.7449 18.7606 12.7287 18.7052 12.744 18.6424L12.8733 18.0971C12.8834 18.0546 12.906 18.0112 12.937 17.9835C12.9476 17.9729 12.9591 17.965 12.9702 17.959C12.9905 17.9489 13.0104 17.9466 13.0275 17.953C13.2408 18.0246 13.5137 17.9909 13.7764 17.8579C14.1098 17.6894 14.3332 17.3491 14.3295 17.0111C14.3263 16.7045 14.1606 16.5775 13.7565 16.5743C13.2426 16.5752 12.7634 16.4746 12.7555 15.7178C12.7491 15.0945 13.0732 14.4467 13.5862 14.0366L13.5802 13.4276C13.5797 13.3528 13.6254 13.2706 13.6841 13.2406L14.0308 13.0204Z" fill="url(#paint1_linear_80_788)"/>
<path d="M17.9215 16.9834L16.2113 17.9923C16.161 18.0205 16.0986 17.9835 16.0986 17.9263V17.3482C16.0986 17.296 16.1268 17.248 16.1725 17.2221L17.8828 16.2133C17.934 16.1851 17.9963 16.222 17.9963 16.2802V16.8564C17.9963 16.9095 17.9677 16.9576 17.9215 16.9834Z" fill="#21A366"/>
<defs>
<linearGradient id="paint0_linear_80_788" x1="17.2415" y1="2.57095" x2="5.93749" y2="22.1505" gradientUnits="userSpaceOnUse">
<stop stop-color="#F9F9F9"/>
<stop offset="0.26" stop-color="#F0F1F2"/>
<stop offset="0.678" stop-color="#D9DCDF"/>
<stop offset="1" stop-color="#C2C8CC"/>
</linearGradient>
<linearGradient id="paint1_linear_80_788" x1="15.6386" y1="13.1478" x2="11.5532" y2="20.2243" gradientUnits="userSpaceOnUse">
<stop stop-color="#F9F9F9"/>
<stop offset="0.26" stop-color="#F0F1F2"/>
<stop offset="0.678" stop-color="#D9DCDF"/>
<stop offset="1" stop-color="#C2C8CC"/>
</linearGradient>
</defs>
</svg>
