<svg width="106" height="74" viewBox="0 0 106 74" fill="none" xmlns="http://www.w3.org/2000/svg">
<path d="M32.6625 59.4354H29.816C29.7153 54.6307 29.4381 50.1136 28.9848 45.8809H28.9595L24.6256 59.4354H22.4584L18.1504 45.8809H18.1256C17.8061 49.9447 17.6047 54.4629 17.5211 59.4354H14.9265C15.0937 53.3886 15.514 47.7198 16.1856 42.4282H19.7136L23.8198 54.9249H23.8451L27.9766 42.4282H31.3523C32.0915 48.6262 32.5283 54.2957 32.6625 59.4354ZM45.0074 46.8875C43.8484 53.1769 42.3193 57.7467 40.4216 60.5993C38.943 62.7951 37.3231 63.8941 35.5591 63.8941C35.0888 63.8941 34.5085 63.7522 33.8209 63.4706V61.9541C34.157 62.0025 34.5514 62.03 35.0046 62.03C35.8286 62.03 36.4909 61.8034 36.9958 61.349C37.5998 60.7957 37.9018 60.1736 37.9018 59.4854C37.9018 59.0135 37.6664 58.0487 37.1966 56.5877L34.0728 46.887H36.8693L39.1114 54.1422C39.6152 55.7896 39.8253 56.9398 39.7412 57.5949C40.9672 54.3204 41.8237 50.75 42.3116 46.8864H45.0074V46.8875Z" fill="#5D87A1"/>
<path d="M82.8979 59.4352H74.8121V42.4281H77.5321V57.3417H82.8979V59.4352ZM72.6954 59.8461L69.5689 58.3032C69.8462 58.0755 70.1113 57.8291 70.35 57.5436C71.6789 55.9825 72.3418 53.674 72.3418 50.6162C72.3418 44.9897 70.1338 42.175 65.7163 42.175C63.5502 42.175 61.8604 42.889 60.652 44.3175C59.3241 45.8797 58.6613 48.18 58.6613 51.2213C58.6613 54.2108 59.2488 56.4039 60.4243 57.795C61.4996 59.0551 63.1206 59.6861 65.2884 59.6861C66.097 59.6861 66.839 59.5871 67.515 59.3874L71.5854 61.757L72.6954 59.8461ZM62.5673 56.032C61.8786 54.9242 61.5343 53.1454 61.5343 50.6927C61.5343 46.4105 62.8351 44.2669 65.4397 44.2669C66.801 44.2669 67.7988 44.7796 68.4369 45.8027C69.1245 46.9121 69.4705 48.6751 69.4705 51.0936C69.4705 55.411 68.1685 57.57 65.5656 57.57C64.2037 57.5705 63.2059 57.0596 62.5673 56.032ZM57.476 54.7213C57.476 56.1635 56.9468 57.3467 55.8896 58.2735C54.8313 59.1965 53.4121 59.6591 51.6338 59.6591C49.9704 59.6591 48.3577 59.1278 46.7966 58.0705L47.5277 56.6102C48.8709 57.2829 50.0871 57.6173 51.1789 57.6173C52.2037 57.6173 53.0046 57.3901 53.5854 56.9396C54.1657 56.4875 54.5117 55.8533 54.5117 55.0513C54.5117 54.0408 53.8071 53.1773 52.5145 52.4539C51.3225 51.7994 48.9385 50.4308 48.9385 50.4308C47.6465 49.4891 46.9996 48.4781 46.9996 46.8126C46.9996 45.4341 47.482 44.3214 48.4473 43.4748C49.4138 42.625 50.6608 42.2014 52.1894 42.2014C53.768 42.2014 55.2031 42.6244 56.4958 43.4616L55.8401 44.9226C54.7345 44.4528 53.6432 44.218 52.5667 44.218C51.6949 44.218 51.0216 44.4275 50.5535 44.8483C50.0816 45.2675 49.7906 45.8038 49.7906 46.4616C49.7906 47.4671 50.5101 48.3417 51.8379 49.0793C53.0458 49.735 55.4892 51.1272 55.4892 51.1272C56.8142 52.0672 57.476 53.0689 57.476 54.7213Z" fill="#F8981D"/>
<path d="M86.3125 36.7316C84.6679 36.6898 83.3945 36.8554 82.3257 37.3075C82.0172 37.4308 81.5265 37.4308 81.4836 37.8207C81.6503 37.9858 81.6695 38.252 81.8142 38.4797C82.0606 38.8906 82.4902 39.4434 82.8824 39.7316C83.3131 40.0617 83.7454 40.3884 84.1987 40.6761C84.9979 41.1706 85.9039 41.4583 86.6827 41.9511C87.1365 42.2377 87.5876 42.6084 88.0419 42.917C88.2652 43.0815 88.4083 43.3483 88.6981 43.4511V43.3884C88.5529 43.2036 88.5117 42.9363 88.3692 42.7305L87.752 42.1354C87.1558 41.3345 86.4149 40.6354 85.6156 40.0611C84.9578 39.6079 83.5188 38.9918 83.252 38.2338L83.2102 38.192C83.6624 38.1497 84.1987 37.9858 84.6283 37.8598C85.3274 37.6755 85.9649 37.7173 86.6822 37.5331C87.0122 37.4506 87.3395 37.3471 87.6706 37.2454V37.06C87.2988 36.6898 87.0337 36.1981 86.6426 35.8483C85.5964 34.9445 84.4435 34.0606 83.252 33.3207C82.614 32.9088 81.7933 32.6436 81.114 32.2932C80.8692 32.1695 80.4567 32.1084 80.3125 31.9027C79.944 31.4506 79.7366 30.8554 79.4693 30.3202C78.8752 29.1909 78.2982 27.9379 77.7856 26.7437C77.4148 25.9429 77.1893 25.1431 76.7372 24.4021C74.6195 20.9093 72.3197 18.7938 68.785 16.7173C68.0254 16.285 67.1217 16.1007 66.1563 15.8741L64.6145 15.7927C64.2856 15.6486 63.9561 15.2575 63.669 15.0727C62.4963 14.3334 59.477 12.7311 58.6145 14.8466C58.059 16.1838 59.4363 17.4984 59.9093 18.1766C60.2586 18.6475 60.7113 19.1832 60.9555 19.7179C61.1002 20.0672 61.1409 20.4379 61.2856 20.807C61.6145 21.7113 61.922 22.7173 62.3543 23.5611C62.5799 23.9913 62.8257 24.4434 63.114 24.8328C63.279 25.0606 63.5661 25.1612 63.6288 25.5325C63.3422 25.9418 63.3197 26.5595 63.1552 27.0732C62.4159 29.395 62.7047 32.2712 63.7526 33.9775C64.0804 34.4913 64.8626 35.6222 65.9088 35.1887C66.8351 34.8191 66.6299 33.648 66.8961 32.6211C66.9572 32.373 66.917 32.2102 67.0403 32.0474V32.0875C67.3268 32.6623 67.6162 33.2162 67.8818 33.7927C68.5194 34.7987 69.6294 35.8472 70.554 36.5441C71.0463 36.9159 71.4363 37.5518 72.0529 37.7789V37.7173H72.0122C71.8873 37.5331 71.7047 37.4506 71.5408 37.3075C71.1701 36.9374 70.7597 36.4852 70.4721 36.0749C69.6107 34.9236 68.8483 33.6491 68.1717 32.3339C67.8406 31.6959 67.5551 30.9984 67.2883 30.3614C67.164 30.1156 67.164 29.7448 66.9577 29.6211C66.6486 30.0727 66.1981 30.4638 65.9726 31.0171C65.5815 31.9021 65.5408 32.9907 65.3956 34.1227L65.3147 34.1623C64.6602 33.9979 64.4324 33.3207 64.1838 32.7459C63.5683 31.2861 63.4649 28.9429 63.999 27.2586C64.142 26.8279 64.7608 25.4715 64.5139 25.0611C64.3901 24.6678 63.9787 24.4439 63.7531 24.1343C63.488 23.7448 63.1976 23.252 63.0128 22.8196C62.5199 21.6695 62.2718 20.395 61.741 19.2454C61.4929 18.7096 61.0623 18.1552 60.7135 17.6618C60.3219 17.1073 59.8912 16.7168 59.5815 16.0595C59.4792 15.8334 59.3356 15.4637 59.5001 15.2179C59.5403 15.0529 59.6239 14.9912 59.7878 14.95C60.054 14.725 60.8147 15.011 61.0815 15.1348C61.8433 15.4428 62.4803 15.7305 63.1162 16.1618C63.4038 16.368 63.7124 16.7586 64.0815 16.8614H64.5139C65.1701 17.0044 65.9099 16.901 66.5276 17.087C67.6162 17.4368 68.6024 17.95 69.4869 18.5039C72.1783 20.2107 74.3978 22.6359 75.8961 25.5325C76.142 26.0045 76.2465 26.4368 76.471 26.9291C76.9038 27.9368 77.4391 28.9643 77.8686 29.9506C78.3004 30.9159 78.7119 31.9016 79.3285 32.7036C79.636 33.1348 80.8714 33.3609 81.4253 33.587C81.8351 33.7712 82.4732 33.9352 82.8428 34.1612C83.5419 34.5919 84.2383 35.0864 84.8956 35.56C85.2229 35.8064 86.2515 36.3202 86.3125 36.7316ZM65.3521 18.8746C65.0684 18.8717 64.7856 18.9065 64.5111 18.9781V19.0193H64.5507C64.7163 19.3477 65.004 19.5754 65.2091 19.862C65.3747 20.1915 65.5183 20.5182 65.6805 20.8471L65.7201 20.8064C66.01 20.6013 66.1541 20.2723 66.1541 19.7789C66.0293 19.6337 66.01 19.4918 65.906 19.3477C65.785 19.142 65.5183 19.0397 65.3521 18.8746Z" fill="#5D87A1"/>
<path d="M88.2696 59.4325H88.6953V57.3489H88.0567L87.5358 58.7708L86.9698 57.3489H86.3549V59.4325H86.7569V57.8473H86.7795L87.3724 59.4325H87.6788L88.2696 57.8473V59.4325ZM84.84 59.4325H85.2905V57.7021H85.8802V57.3484H84.2256V57.7021H84.8389L84.84 59.4325Z" fill="#F8981D"/>
</svg>
