<svg width="27" height="27" viewBox="0 0 27 27" fill="none" xmlns="http://www.w3.org/2000/svg">
<path d="M9.40809 4.31592C8.87705 4.31592 8.38452 4.4348 7.94821 4.68598C6.58465 5.47323 6.06563 7.39171 6.34065 9.78027C4.13505 10.7364 2.7334 12.1442 2.7334 13.7185C2.7334 15.2928 4.13505 16.7007 6.34065 17.6568C6.06578 20.0453 6.58465 21.9638 7.94821 22.7511C8.38365 23.0023 8.87618 23.1212 9.40809 23.1212C10.5402 23.1212 11.8488 22.5529 13.163 21.5781C14.4774 22.5529 15.7875 23.1212 16.9197 23.1212C17.4507 23.1212 17.9432 23.0023 18.3795 22.7511C19.7431 21.9639 20.2621 20.0454 19.9871 17.6568C22.1919 16.7007 23.5927 15.2925 23.5927 13.7185C23.5927 12.1442 22.191 10.7364 19.9854 9.78027C20.2603 7.3918 19.7414 5.47323 18.3778 4.68598C17.9424 4.43393 17.4499 4.31592 16.918 4.31592C15.7858 4.31592 14.4773 4.88413 13.163 5.85897C11.8487 4.88413 10.5399 4.31592 9.40809 4.31592ZM9.40809 5.83691C10.0874 5.83691 10.9858 6.19813 11.9612 6.86731C11.3877 7.4085 10.8261 8.0239 10.2857 8.70913C9.4093 8.83479 8.58298 9.01799 7.8175 9.24725C7.81339 9.19416 7.80366 9.13846 7.80053 9.08598C7.70753 7.53892 8.04729 6.38568 8.70871 6.00326C8.90426 5.89028 9.13257 5.83691 9.40809 5.83691ZM16.918 5.83691C17.1926 5.83691 17.4218 5.89028 17.6173 6.00326C18.2788 6.38481 18.6185 7.53892 18.5255 9.08598C18.5224 9.13846 18.5127 9.19416 18.5086 9.24725C17.7426 9.01784 16.9157 8.8348 16.0386 8.70913C15.4983 8.024 14.9383 7.40844 14.3649 6.86731C15.3402 6.19824 16.239 5.83691 16.918 5.83691ZM13.163 7.8332C13.3986 8.04765 13.6326 8.2743 13.8692 8.5224C13.6347 8.51452 13.4015 8.50373 13.163 8.50373C12.9251 8.50373 12.6925 8.51456 12.4586 8.5224C12.695 8.27456 12.9276 8.04744 13.163 7.8332ZM13.163 10.0247C13.8833 10.0247 14.5659 10.065 15.2136 10.1351C15.6087 10.672 15.998 11.2396 16.3629 11.8716C16.7126 12.4774 17.0219 13.0975 17.2948 13.7185C17.0219 14.3399 16.7129 14.961 16.3629 15.5672C15.9991 16.1974 15.6108 16.7613 15.217 17.2969C14.5464 17.3703 13.8585 17.4124 13.163 17.4124C12.4428 17.4124 11.7601 17.3721 11.1124 17.302C10.7174 16.7651 10.3281 16.1992 9.96318 15.5672C9.6132 14.961 9.30423 14.3399 9.03124 13.7185C9.30404 13.0975 9.61341 12.4774 9.96318 11.8716C10.3271 11.2414 10.7152 10.6757 11.109 10.1401C11.7796 10.0668 12.4675 10.0247 13.163 10.0247ZM17.288 10.4949C17.6329 10.5782 17.9644 10.6681 18.276 10.7682C18.2054 11.0872 18.119 11.4124 18.0214 11.7409C17.9095 11.531 17.8011 11.3205 17.6802 11.1111C17.5558 10.8958 17.4177 10.7023 17.288 10.4949ZM9.03633 10.4966C8.90714 10.7033 8.7699 10.8964 8.6459 11.1111C8.52503 11.3205 8.4165 11.531 8.30469 11.7409C8.20679 11.4117 8.11904 11.0862 8.04837 10.7665C8.36572 10.6663 8.69639 10.5775 9.03633 10.4966ZM6.61735 11.325C6.80047 12.0982 7.05451 12.8997 7.38124 13.7168C7.0552 14.532 6.80223 15.3321 6.61905 16.1036C5.10547 15.3727 4.25439 14.4628 4.25439 13.7185C4.25439 12.9546 5.08169 12.0839 6.46797 11.3912C6.51528 11.3676 6.569 11.3481 6.61735 11.325ZM19.707 11.3335C21.2206 12.0644 22.0717 12.9742 22.0717 13.7185C22.0717 14.4825 21.2444 15.3532 19.8581 16.0459C19.8108 16.0695 19.7571 16.0889 19.7087 16.1121C19.5255 15.3384 19.2735 14.5361 18.9465 13.7185C19.2722 12.9041 19.524 12.1044 19.707 11.3335ZM13.163 11.9803C12.2026 11.9803 11.4248 12.7581 11.4248 13.7185C11.4248 14.6789 12.2026 15.4568 13.163 15.4568C14.1234 15.4568 14.9013 14.6789 14.9013 13.7185C14.9013 12.7581 14.1234 11.9803 13.163 11.9803ZM8.30469 15.6962C8.41657 15.9061 8.52665 16.1165 8.6476 16.3259C8.77186 16.5412 8.90853 16.735 9.03803 16.9422C8.6932 16.8589 8.3617 16.769 8.05007 16.6688C8.12072 16.3496 8.20693 16.0249 8.30469 15.6962ZM18.0214 15.6979C18.1192 16.0268 18.2071 16.3512 18.2777 16.6705C17.9603 16.7708 17.6297 16.8596 17.2897 16.9405C17.4189 16.7338 17.5562 16.5406 17.6802 16.3259C17.8008 16.117 17.9098 15.9073 18.0214 15.6979ZM7.8175 18.1898C8.58346 18.4192 9.41039 18.6023 10.2874 18.728C10.8279 19.4134 11.3875 20.0301 11.9612 20.5715C10.9859 21.2405 10.0874 21.6019 9.40809 21.6019C9.13344 21.6019 8.90426 21.5468 8.70871 21.4338C8.04729 21.0523 7.70753 19.8999 7.80053 18.3528C7.80371 18.2998 7.81332 18.2435 7.8175 18.1898ZM18.5086 18.1898C18.5127 18.2435 18.5224 18.2998 18.5255 18.3528C18.6185 19.8999 18.2788 21.0514 17.6173 21.4338C17.4218 21.5468 17.1935 21.6019 16.918 21.6019C16.2387 21.6019 15.3402 21.2406 14.3649 20.5715C14.9386 20.0301 15.4997 19.4135 16.0403 18.728C16.9168 18.6023 17.7431 18.4191 18.5086 18.1898ZM12.4569 18.9147C12.6913 18.9226 12.9246 18.9334 13.163 18.9334C13.4015 18.9334 13.6347 18.9226 13.8692 18.9147C13.6326 19.1628 13.3986 19.3894 13.163 19.6039C12.9274 19.3894 12.6935 19.1628 12.4569 18.9147Z" fill="#62BCFD"/>
</svg>
