<svg width="25" height="25" viewBox="0 0 25 25" fill="none" xmlns="http://www.w3.org/2000/svg">
<g clip-path="url(#clip0_80_877)">
<path d="M10.4364 21.0599C7.68448 21.0589 4.93204 21.0716 2.18008 21.0535C0.784302 21.0442 0.530568 20.7113 0.844924 19.3302C1.90972 14.6466 3.00924 9.9714 4.05057 5.28246C4.32972 4.02504 4.93204 3.46918 6.26377 3.4814C11.7677 3.53322 17.2721 3.49802 22.7765 3.50389C24.1571 3.50535 24.3888 3.80406 24.0789 5.22038C23.0727 9.81887 22.0603 14.4159 21.0302 19.0085C20.6444 20.7274 20.2005 21.0555 18.4131 21.0594C15.7541 21.0648 13.095 21.0609 10.4364 21.0599Z" fill="#0277BD"/>
<path d="M12.9835 12.2433C12.6863 11.9075 12.4389 11.6239 12.2351 11.3966C11.0471 10.0629 9.95879 8.82013 8.78203 7.54951C8.24328 6.96822 8.07168 6.40356 8.71848 5.8296C9.35746 5.26249 9.98568 5.31235 10.5719 5.96502C12.2047 7.78222 13.8357 9.60138 15.4955 11.3936C16.1154 12.0629 15.9707 12.5181 15.2882 13.0143C12.6682 14.9185 10.0634 16.8438 7.46106 18.7724C6.87635 19.2061 6.31852 19.3146 5.84577 18.6742C5.32461 17.9677 5.80666 17.5473 6.34737 17.1518C8.28092 15.7374 10.2111 14.3172 12.1329 12.8862C12.4008 12.6872 12.7577 12.412 12.9835 12.2433ZM11.3668 18.637C10.8168 18.637 10.5112 18.1481 10.5112 17.6592C10.5112 17.1704 10.8168 16.6815 11.3668 16.6815C13.4319 16.6815 14.3549 16.6815 16.0112 16.6815C16.5612 16.6815 16.8668 17.1704 16.8668 17.6592C16.8668 18.1481 16.5612 18.637 16.0112 18.637C14.9723 18.637 12.9557 18.637 11.3668 18.637Z" fill="#FAFAFA"/>
</g>
<defs>
<clipPath id="clip0_80_877">
<rect width="23.4667" height="23.4667" fill="white" transform="translate(0.733398 0.548096)"/>
</clipPath>
</defs>
</svg>
