<svg width="25" height="25" viewBox="0 0 25 25" fill="none" xmlns="http://www.w3.org/2000/svg">
<path d="M18.8223 18.3185H9.04454C7.69472 18.3185 6.6001 17.2239 6.6001 15.8741V6.0963C6.6001 4.74648 7.69472 3.65186 9.04454 3.65186H18.8223C20.1721 3.65186 21.2668 4.74648 21.2668 6.0963V15.8741C21.2668 17.2239 20.1721 18.3185 18.8223 18.3185ZM11.0001 15.3852H17.8445V9.76297C17.8445 8.27772 16.6409 7.07408 15.1557 7.07408H9.53343V13.9185C9.53343 14.7286 10.19 15.3852 11.0001 15.3852Z" fill="#1988E0"/>
<path d="M15.8887 21.2519H6.11095C4.76113 21.2519 3.6665 20.1572 3.6665 18.8074V9.02965C3.6665 7.67983 4.76113 6.58521 6.11095 6.58521H15.8887C17.2385 6.58521 18.3332 7.67983 18.3332 9.02965V18.8074C18.3332 20.1572 17.2385 21.2519 15.8887 21.2519ZM9.28873 18.3185H15.3998V10.9852C15.3998 10.1751 14.7433 9.51854 13.9332 9.51854H8.0665C7.25642 9.51854 6.59984 10.1751 6.59984 10.9852V15.6296C6.59984 17.1149 7.80348 18.3185 9.28873 18.3185Z" fill="#FB8C00"/>
<path d="M18.3336 13.4297V13.9186C18.3336 14.7287 17.677 15.3852 16.8669 15.3852H11.978V18.3186H18.8225C20.1669 18.3186 21.2669 17.2186 21.2669 15.8741V13.4297H18.3336Z" fill="#1988E0"/>
</svg>
