<svg width="69" height="69" viewBox="0 0 69 69" fill="none" xmlns="http://www.w3.org/2000/svg">
<path d="M58.1499 7.58215H10.1538L14.3888 55.5783L34.1519 61.2249L53.915 55.5783L58.1499 7.58215Z" fill="#0277BD"/>
<path d="M34.1519 11.8171V56.8488L49.9623 52.3315L53.4915 11.8171H34.1519Z" fill="#039BE5"/>
<path d="M46.9979 18.8754H34.1519V24.522H41.0689L40.6454 30.1686H34.1519V35.8152H40.3631L39.9396 42.1676L34.1519 44.1439V50.0728L45.3039 46.4026L46.292 30.1686L46.9979 18.8754Z" fill="white"/>
<path d="M34.1517 18.8754V24.522H21.588L21.1646 18.8754H34.1517ZM27.6581 30.1686L27.9405 35.8152H34.1517V30.1686H27.6581ZM28.2228 38.6385H22.5762L22.9997 46.4026L34.1517 50.0728V44.1439L28.364 42.1676L28.2228 38.6385Z" fill="#EEEEEE"/>
</svg>
