<svg width="62" height="62" viewBox="0 0 62 62" fill="none" xmlns="http://www.w3.org/2000/svg">
<path d="M29.8988 4.99861C30.7582 4.51641 31.8162 4.51641 32.6743 4.99861C36.9205 7.38177 49.6981 14.5553 53.9455 16.9384C54.8049 17.4194 55.3339 18.3104 55.3339 19.2748C55.3339 24.0411 55.3339 38.3869 55.3339 43.1532C55.3339 44.1176 54.8049 45.0086 53.9455 45.4908C49.6994 47.8739 36.9217 55.0474 32.6743 57.4306C31.815 57.9128 30.7569 57.9128 29.8988 57.4306C25.6527 55.0474 12.875 47.8739 8.6276 45.4908C7.76951 45.0086 7.24048 44.1188 7.24048 43.1544C7.24048 38.3881 7.24048 24.0424 7.24048 19.276C7.24048 18.3116 7.76951 17.4206 8.62886 16.9384C12.8737 14.5553 25.6539 7.38177 29.8988 4.99861Z" fill="#0074C8"/>
<path d="M7.62523 44.3823C7.28857 43.9317 7.24048 43.5039 7.24048 42.9281C7.24048 38.1896 7.24048 23.9261 7.24048 19.1864C7.24048 18.227 7.76824 17.3411 8.62506 16.8627C12.856 14.4935 25.5907 7.3617 29.8216 4.9912C30.6784 4.51153 31.839 4.52166 32.6958 5.00133C36.9268 7.37056 49.6184 14.4416 53.8494 16.8108C54.1911 17.0032 54.4518 17.2348 54.6847 17.5398L7.62523 44.3823Z" fill="#5EACF4"/>
<path d="M31.2872 13.4961C21.504 13.4961 13.5686 21.4315 13.5686 31.2147C13.5686 40.998 21.504 48.9334 31.2872 48.9334C41.0705 48.9334 49.0059 40.998 49.0059 31.2147C49.0059 21.4315 41.0705 13.4961 31.2872 13.4961ZM31.2872 40.0741C26.402 40.0741 22.4279 36.1 22.4279 31.2147C22.4279 26.3295 26.402 22.3554 31.2872 22.3554C36.1725 22.3554 40.1466 26.3295 40.1466 31.2147C40.1466 36.1 36.1725 40.0741 31.2872 40.0741Z" fill="white"/>
<path d="M54.682 17.5525C55.3351 18.1638 55.3224 19.0852 55.3224 19.8104C55.3224 24.6134 55.2819 38.2744 55.3338 43.0775C55.3389 43.5786 55.1731 44.1064 54.925 44.5038L30.772 31.2148L54.682 17.5525Z" fill="#0085E6"/>
<path d="M43.9434 26.1523H45.209V36.2773H43.9434V26.1523ZM47.7402 26.1523H49.0058V36.2773H47.7402V26.1523Z" fill="white"/>
<path d="M41.4121 32.4804H51.537V33.7461H41.4121V32.4804ZM41.4121 28.6836H51.537V29.9492H41.4121V28.6836Z" fill="white"/>
</svg>
