<svg width="20" height="23" viewBox="0 0 20 23" fill="none" xmlns="http://www.w3.org/2000/svg">
<path d="M10.0814 0.855713L19.9553 6.38025V17.4318L10.0814 22.9564L0.20752 17.4318V6.38025L10.0814 0.855713Z" fill="white"/>
<path d="M18.1924 17.0509L10.4081 21.4069V18.015L15.2583 15.3751L18.1924 17.0509ZM18.7256 16.5739V7.4656L15.8783 9.09343V14.9486L18.7256 16.5739ZM1.93998 17.0509L9.72429 21.4069V18.015L4.87153 15.3751L1.93998 17.0509ZM1.40674 16.5739V7.4656L4.2541 9.09343V14.9486L1.40674 16.5739ZM1.74097 6.87503L9.72429 2.40796V5.68634L4.60874 8.47006L4.56792 8.49277L1.74097 6.87503ZM18.3914 6.87503L10.4081 2.40796V5.68634L15.5236 8.46753L15.5644 8.49025L18.3914 6.87503Z" fill="#8ED6FB"/>
<path d="M9.72441 17.2425L4.93799 14.6379V9.48188L9.72441 12.2151V17.2425ZM10.4082 17.2425L15.1946 14.6405V9.48188L10.4082 12.2151V17.2425ZM5.26202 8.88627L10.0663 6.27417L14.8706 8.88627L10.0663 11.6296L5.26202 8.88627Z" fill="#1C78C0"/>
</svg>
