<svg width="27" height="26" viewBox="0 0 27 26" fill="none" xmlns="http://www.w3.org/2000/svg">
<path d="M3.38525 22.5259V3.94812H22.9408V22.5259H3.38525Z" fill="#FFD600"/>
<path d="M16.1714 17.854C16.5473 18.4341 16.9558 18.9899 17.8211 18.9899C18.5479 18.9899 18.9293 18.6467 18.9293 18.1719C18.9293 17.6037 18.5349 17.402 17.7353 17.0712L17.2969 16.8937C16.0318 16.3838 15.1903 15.7449 15.1903 14.3955C15.1903 13.1518 16.1926 12.2053 17.7586 12.2053C18.8738 12.2053 19.6751 12.5723 20.2531 13.5331L18.8874 14.3624C18.587 13.8526 18.2622 13.6518 17.7586 13.6518C17.2448 13.6518 16.9194 13.9599 16.9194 14.3624C16.9194 14.8599 17.2453 15.0612 17.9976 15.3692L18.436 15.5468C19.9271 16.15 20.768 16.7662 20.768 18.1513C20.768 19.6437 19.5273 20.4616 17.8618 20.4616C16.2328 20.4616 15.3077 19.685 14.7927 18.7236L16.1714 17.854ZM9.87774 17.8963C10.1526 18.3639 10.5703 18.7236 11.1711 18.7236C11.7458 18.7236 12.0767 18.5079 12.0767 17.6693V12.2048H13.8872V17.9335C13.8872 19.671 12.8263 20.4616 11.2771 20.4616C9.8772 20.4616 8.86683 19.5606 8.45508 18.7236L9.87774 17.8963Z" fill="#000001"/>
</svg>
