<svg width="16" height="22" viewBox="0 0 16 22" fill="none" xmlns="http://www.w3.org/2000/svg">
<path d="M3.91418 1.34102C2.32399 0.873827 0.841946 0.307785 0.536657 0.188487C0.509315 0.182904 0.485398 0.199367 0.480858 0.226895C0.483287 0.554662 0.482887 2.14112 0.35153 3.79332C-0.306733 18.6562 12.787 19.368 12.787 19.368L12.893 19.3683C13.6576 20.3426 14.8257 21.6983 14.8257 21.6983L15.1445 21.4789L15.4633 21.2594C15.4633 21.2594 14.6197 19.6926 13.9769 18.6222L14.0087 18.5148C14.0224 18.5176 18.0326 6.03271 3.91418 1.34102ZM13.3038 18.8048C13.3038 18.8048 12.6876 18.7287 12.4643 18.6261L12.453 18.6096L5.58681 7.64476C5.56402 7.61165 5.61185 7.57873 5.63464 7.61184L13.4253 17.9403L13.4367 17.9568C13.4528 18.202 13.3038 18.8048 13.3038 18.8048Z" fill="#53A53F"/>
</svg>
