<svg width="9" height="9" viewBox="0 0 9 9" fill="none" xmlns="http://www.w3.org/2000/svg">
<path d="M4.3405 0.686952L1.14184 2.45675C1.0219 2.52255 0.948242 2.64515 0.948242 2.77745V6.31895C0.948242 6.45125 1.0219 6.57315 1.14184 6.63965L4.3411 8.41075C4.4604 8.47655 4.6084 8.47655 4.7277 8.41075L7.9263 6.63965C8.045 6.57315 8.1186 6.45125 8.1186 6.31895V2.77745C8.1186 2.64515 8.045 2.52325 7.925 2.45675L4.727 0.686952C4.6671 0.653652 4.5999 0.637451 4.5334 0.637451C4.4663 0.637451 4.4005 0.653652 4.3405 0.686952Z" fill="#388E3C"/>
<path d="M4.3405 0.686952L0.948242 6.31895C0.948242 6.45125 1.0219 6.57315 1.14184 6.63965L4.3411 8.41075C4.4604 8.47655 4.6084 8.47655 4.7277 8.41075L8.1186 2.77745C8.1186 2.64515 8.045 2.52325 7.925 2.45675L4.727 0.686952C4.6671 0.653652 4.5999 0.637451 4.5334 0.637451C4.4663 0.637451 4.4005 0.653652 4.3405 0.686952Z" fill="#2E7D32"/>
<path d="M4.3405 0.686952L1.14184 2.45675C1.0219 2.52255 0.948242 2.64515 0.948242 2.77745L4.3405 8.41075C4.4598 8.47655 4.6077 8.47655 4.727 8.41075L7.9257 6.63965C8.045 6.57315 8.1186 6.45125 8.1186 6.31895L4.727 0.686952C4.6671 0.653652 4.5999 0.637451 4.5334 0.637451C4.4663 0.637451 4.4005 0.653652 4.3405 0.686952Z" fill="#4CAF50"/>
</svg>
