<svg width="27" height="27" viewBox="0 0 27 27" fill="none" xmlns="http://www.w3.org/2000/svg">
<g clip-path="url(#clip0_80_361)">
<path d="M25.5427 8.30038C25.0125 8.0755 24.3987 8.29821 24.1412 8.81317C23.8979 9.29989 23.573 9.59866 23.1482 9.72359C22.4834 9.92241 21.6892 9.6671 21.3176 9.44873C20.8277 9.16083 20.2595 8.72409 19.6587 8.26236C17.7411 6.787 15.3554 4.95312 12.0765 4.95312C9.45393 4.95312 8.10677 6.2992 5.87635 8.53071C5.45156 8.9555 5.4483 9.64646 5.87309 10.0702C6.28593 10.4852 6.94864 10.4982 7.37452 10.1028C7.38539 10.093 7.39625 10.0821 7.40711 10.0723C8.00682 9.60952 11.7854 10.0593 13.4367 11.3717C15.891 13.3218 17.6629 14.7309 19.6815 14.7309C22.5703 14.7309 24.9821 12.8394 26.1348 9.67036C26.3315 9.12932 26.0718 8.52853 25.5427 8.30038ZM20.1106 15.9053C19.5804 15.6804 18.9666 15.9031 18.7091 16.4181C18.4658 16.9048 18.1409 17.2036 17.7162 17.3285C17.0513 17.5241 16.2571 17.272 15.8855 17.0537C15.3956 16.7658 14.8274 16.329 14.2266 15.8673C12.309 14.3919 9.92326 12.5581 6.64445 12.5581C4.02183 12.5581 2.67467 13.9041 0.44425 16.1356C0.0194602 16.5604 0.016201 17.2514 0.440991 17.6751C0.853831 18.0901 1.51763 18.1042 1.94351 17.7077C1.95437 17.6979 1.96524 17.6871 1.9761 17.6773C2.57472 17.2145 6.35546 17.6642 8.00573 18.9766C10.4589 20.9268 12.2308 22.3358 14.2494 22.3358C17.1382 22.3358 19.55 20.4444 20.7027 17.2753C20.8994 16.7343 20.6397 16.1335 20.1106 15.9053Z" fill="#38BDF8"/>
</g>
<defs>
<clipPath id="clip0_80_361">
<rect width="26.0741" height="26.0741" fill="white" transform="translate(0.125977 0.607422)"/>
</clipPath>
</defs>
</svg>
