<svg width="28" height="27" viewBox="0 0 28 27" fill="none" xmlns="http://www.w3.org/2000/svg">
<path d="M10.948 17.2074C10.948 17.6572 10.5652 18.0223 10.0924 18.0223C9.61956 18.0223 9.23684 17.6572 9.23684 17.2074V9.6025C9.23684 9.24778 9.47811 8.93381 9.83288 8.82571C10.1894 8.71815 10.5755 8.842 10.7905 9.13154L20.3596 22.0078C23.2925 20.037 25.222 16.7919 25.222 13.1334C25.222 7.15805 20.0887 2.26917 13.8146 2.26917C7.54056 2.26917 2.40723 7.15805 2.40723 13.1334C2.40723 19.1087 7.54056 23.9976 13.8146 23.9976C15.6353 23.9976 17.3544 23.5755 18.8852 22.8449L10.948 12.1643V17.2074ZM16.6517 9.05929C16.6517 8.60951 17.0344 8.24447 17.5072 8.24447C17.98 8.24447 18.3628 8.60951 18.3628 9.05929V16.5773L16.6517 14.2812V9.05929Z" fill="white"/>
</svg>
