<svg width="22" height="23" viewBox="0 0 22 23" fill="none" xmlns="http://www.w3.org/2000/svg">
<g clip-path="url(#clip0_80_996)">
<path fill-rule="evenodd" clip-rule="evenodd" d="M18.0926 14.9898C18.1807 14.9394 18.254 14.8668 18.305 14.7793C18.3561 14.6917 18.3831 14.5924 18.3835 14.4911L18.3939 11.1511C18.3942 11.0499 18.4213 10.9505 18.4723 10.863C18.5234 10.7755 18.5966 10.7029 18.6848 10.6525L20.5024 9.61241C20.5905 9.56201 20.6904 9.53558 20.792 9.53575C20.8935 9.53592 20.9933 9.56269 21.0812 9.61338C21.1691 9.66407 21.2421 9.73689 21.2929 9.82455C21.3437 9.91221 21.3704 10.0116 21.3704 10.1128V16.1851C21.3704 16.2866 21.3435 16.3864 21.2924 16.4742C21.2413 16.5621 21.1679 16.635 21.0795 16.6855L14.2197 20.6102C14.1321 20.6603 14.0329 20.6867 13.9318 20.6868C13.8308 20.6869 13.7315 20.6607 13.6438 20.6108L8.26035 17.5437C8.17167 17.4933 8.09795 17.4204 8.04667 17.3324C7.99539 17.2444 7.96836 17.1445 7.96833 17.0428V13.9809C7.96833 13.9775 7.97238 13.9752 7.97586 13.9769C7.97875 13.9786 7.98281 13.9769 7.98281 13.9729V13.9694C7.98281 13.9671 7.98397 13.9648 7.98629 13.9636L12.42 11.4264C12.4241 11.4241 12.4224 11.4178 12.4177 11.4178C12.4165 11.4178 12.4153 11.4173 12.4144 11.4164C12.4136 11.4155 12.4131 11.4144 12.4131 11.4131L12.4218 8.41134C12.4222 8.30983 12.3957 8.21001 12.345 8.12195C12.2943 8.03389 12.2212 7.96071 12.1331 7.90978C12.0449 7.85885 11.9448 7.83198 11.8429 7.83188C11.741 7.83178 11.6409 7.85845 11.5526 7.90921L8.25746 9.80056C8.16951 9.851 8.06981 9.87755 7.96833 9.87755C7.86684 9.87755 7.76714 9.851 7.67919 9.80056L4.37358 7.90459C4.28551 7.85408 4.18566 7.82753 4.08403 7.8276C3.98241 7.82767 3.88259 7.85436 3.7946 7.905C3.7066 7.95564 3.63352 8.02844 3.5827 8.1161C3.53187 8.20375 3.50508 8.30318 3.50502 8.40441V13.8297C3.50509 13.9308 3.47849 14.0302 3.42788 14.1179C3.37726 14.2055 3.30442 14.2784 3.21664 14.3292C3.12886 14.38 3.02922 14.4069 2.9277 14.4073C2.82619 14.4076 2.72635 14.3814 2.63821 14.3313L0.803749 13.2866C0.714895 13.2361 0.641067 13.163 0.589773 13.0748C0.538479 12.9866 0.511548 12.8864 0.51172 12.7845L0.527943 3.30173C0.528164 3.20064 0.555038 3.10138 0.605876 3.01388C0.656714 2.92639 0.729732 2.85373 0.817621 2.80317C0.905511 2.75262 1.00519 2.72595 1.10668 2.72583C1.20817 2.72571 1.30791 2.75215 1.39592 2.80249L7.67977 6.39762C7.76758 6.44785 7.86707 6.47428 7.96833 6.47428C8.06958 6.47428 8.16907 6.44785 8.25688 6.39762L14.539 2.80249C14.6271 2.75207 14.727 2.72564 14.8287 2.72583C14.9303 2.72603 15.0301 2.75285 15.118 2.80361C15.206 2.85437 15.279 2.92727 15.3297 3.01501C15.3804 3.10275 15.4071 3.20223 15.407 3.30347V12.7885C15.407 12.89 15.3802 12.9897 15.3292 13.0775C15.2783 13.1654 15.205 13.2383 15.1167 13.2889L11.8267 15.1762C11.7383 15.227 11.665 15.3001 11.6141 15.3881C11.5631 15.4761 11.5364 15.576 11.5367 15.6776C11.5369 15.7792 11.5641 15.8789 11.6154 15.9667C11.6667 16.0545 11.7404 16.1273 11.829 16.1776L13.6438 17.2067C13.7315 17.2564 13.8307 17.2825 13.9316 17.2823C14.0325 17.2821 14.1317 17.2556 14.2191 17.2055L18.0926 14.9898ZM18.4733 6.48131C18.4734 6.58338 18.5006 6.6836 18.5523 6.77176C18.6039 6.85991 18.6781 6.93285 18.7673 6.98313C18.8564 7.03341 18.9574 7.05924 19.0599 7.05797C19.1623 7.05671 19.2626 7.0284 19.3505 6.97594L21.0888 5.93705C21.1746 5.88583 21.2456 5.81336 21.295 5.72668C21.3443 5.64 21.3703 5.54207 21.3704 5.44242V3.3254C21.3702 3.22338 21.3429 3.12323 21.2912 3.03515C21.2395 2.94708 21.1653 2.87423 21.0762 2.82401C20.987 2.7738 20.8861 2.74803 20.7837 2.74932C20.6812 2.75061 20.581 2.77891 20.4932 2.83135L18.7549 3.87024C18.6691 3.92146 18.598 3.99393 18.5487 4.08061C18.4993 4.16729 18.4734 4.26522 18.4733 4.36486V6.48131Z" fill="#007FFF"/>
</g>
<defs>
<clipPath id="clip0_80_996">
<rect width="20.8593" height="22.163" fill="white" transform="translate(0.51123 0.459229)"/>
</clipPath>
</defs>
</svg>
