<svg width="24" height="24" viewBox="0 0 24 24" fill="none" xmlns="http://www.w3.org/2000/svg">
<path d="M20.2479 1.39225C19.5993 1.37426 18.9053 1.73197 18.2169 2.34283C18.0533 2.48822 17.89 2.6496 17.7278 2.82159C15.8439 4.82024 14.0949 8.52203 13.5514 11.3491C13.7629 11.7782 13.9289 12.3263 14.038 12.7447C14.0659 12.852 14.0907 12.9522 14.1107 13.0382C14.1586 13.2412 14.1843 13.3724 14.1843 13.3724C14.1843 13.3724 14.1677 13.3087 14.0986 13.1075C14.0853 13.0689 14.07 13.0272 14.0527 12.9776C14.0452 12.9572 14.0356 12.9323 14.0241 12.9057C13.9013 12.6198 13.561 12.0167 13.4112 11.7543C13.2831 12.132 13.1705 12.4849 13.0761 12.8044C13.5079 13.5948 13.7705 14.9489 13.7705 14.9489C13.7705 14.9489 13.7483 14.8613 13.6397 14.555C13.5435 14.2841 13.0637 13.4428 12.9497 13.246C12.7551 13.9641 12.6776 14.4492 12.7472 14.5671C12.8823 14.7958 13.0116 15.1897 13.1246 15.6259C13.1641 15.777 13.2008 15.933 13.2363 16.0891C13.1188 17.1205 13.0913 18.1567 13.148 19.1824C13.2069 20.2941 13.3625 21.3915 13.5384 22.4739C13.5571 22.5878 13.6617 22.6703 13.7783 22.6592C13.9001 22.6476 13.9898 22.5395 13.9782 22.4176C13.9228 21.8277 13.8759 21.2393 13.8458 20.6524L13.8726 20.9156C13.8305 20.3885 13.8188 19.8211 13.8415 19.217C13.9217 17.0743 14.4153 14.49 15.3262 11.7967C16.8656 7.73115 19.0009 4.46837 20.9552 2.91076C19.1738 4.51979 16.7629 9.72785 16.0413 11.6565C15.2332 13.816 14.6603 15.8423 14.315 17.7842C14.9108 15.9637 16.836 15.1818 16.836 15.1818C16.836 15.1818 17.7811 14.0165 18.8844 12.3525C18.2235 12.5032 17.1372 12.7615 16.7737 12.9144C16.2374 13.1396 16.0932 13.2165 16.0932 13.2165C16.0932 13.2165 17.8305 12.1581 19.3207 11.679C21.3708 8.45028 23.6043 3.86334 21.3552 1.85715C21.0096 1.54898 20.6371 1.40304 20.2479 1.39225ZM4.89315 2.2779C3.91355 2.2779 3.12012 3.07134 3.12012 4.05094V18.6785C3.12012 19.6581 3.91355 20.4515 4.89315 20.4515H12.3619C12.3176 20.0526 12.2871 19.6405 12.2649 19.2282C12.2073 18.1999 12.2294 17.1578 12.3403 16.1427C12.3137 16.0408 12.2915 15.9432 12.2649 15.8501C12.1142 15.265 12.0119 15.066 11.9853 15.0173C11.7858 14.6848 11.7505 14.2817 12.0918 13.014C12.3848 12.01 13.6636 5.89623 17.0205 2.2779H4.89315Z" fill="url(#paint0_linear_80_1064)"/>
<defs>
<linearGradient id="paint0_linear_80_1064" x1="12.7077" y1="1.3916" x2="12.7077" y2="22.6602" gradientUnits="userSpaceOnUse">
<stop stop-color="#8BD6ED"/>
<stop offset="1" stop-color="#1783D1"/>
</linearGradient>
</defs>
</svg>
