<svg width="25" height="25" viewBox="0 0 25 25" fill="none" xmlns="http://www.w3.org/2000/svg">
<path d="M12.4896 3.40726C11.7294 3.40971 11.2024 3.47668 10.5653 3.58668C8.68409 3.91424 8.34138 4.60211 8.34138 5.8698V7.80726H12.7414V8.78504H8.17418H6.04751C4.7588 8.78504 3.63093 9.39224 3.27355 10.8477C2.86973 12.5182 2.85164 13.5644 3.27355 15.3088C3.59378 16.6097 4.29924 17.585 5.58844 17.585H7.36409V15.0898C7.36409 13.6397 8.67724 12.2073 10.182 12.2073H13.7196C14.9531 12.2073 16.1641 11.297 16.1641 10.0674V5.8698C16.1641 4.6774 15.3041 3.78566 14.102 3.58571C14.1318 3.58277 13.2435 3.40433 12.4896 3.40726ZM10.053 5.36282C10.4544 5.36282 10.7863 5.6938 10.7863 6.09713C10.7863 6.50437 10.4544 6.82948 10.053 6.82948C9.64378 6.82948 9.31964 6.50486 9.31964 6.09713C9.31964 5.69526 9.64378 5.36282 10.053 5.36282Z" fill="url(#paint0_linear_80_887)"/>
<path d="M12.0158 21.9851C12.776 21.9827 13.303 21.9157 13.9401 21.8057C15.8213 21.4782 16.164 20.7903 16.164 19.5226V17.5852H11.764V16.6074H16.3317H18.4584C19.7471 16.6074 20.875 16.0002 21.2323 14.5448C21.6362 12.8742 21.6542 11.828 21.2323 10.0836C20.9116 8.78271 20.2062 7.80737 18.917 7.80737H17.1413V10.3027C17.1413 11.7527 15.8282 13.1852 14.3234 13.1852H10.7858C9.55229 13.1852 8.34131 14.0955 8.34131 15.325V19.5226C8.34131 20.715 9.20126 21.6067 10.4034 21.8067C10.3736 21.8096 11.2619 21.9881 12.0158 21.9851ZM14.4529 20.0296C14.0515 20.0296 13.7196 19.6986 13.7196 19.2953C13.7196 18.888 14.0515 18.5629 14.4529 18.5629C14.8621 18.5629 15.1862 18.8876 15.1862 19.2953C15.1862 19.6972 14.8616 20.0296 14.4529 20.0296Z" fill="url(#paint1_linear_80_887)"/>
<defs>
<linearGradient id="paint0_linear_80_887" x1="5.84609" y1="7.30468" x2="13.5979" y2="13.8094" gradientUnits="userSpaceOnUse">
<stop stop-color="#26ABE7"/>
<stop offset="1" stop-color="#086DBF"/>
</linearGradient>
<linearGradient id="paint1_linear_80_887" x1="18.0076" y1="19.4972" x2="12.2304" y2="11.2462" gradientUnits="userSpaceOnUse">
<stop stop-color="#FEB705"/>
<stop offset="1" stop-color="#FFDA1C"/>
</linearGradient>
</defs>
</svg>
