<svg width="20" height="21" viewBox="0 0 20 21" fill="none" xmlns="http://www.w3.org/2000/svg">
<path d="M8.38974 1.97339L8.29819 2.02876C8.15258 2.11684 8.01541 2.21532 7.8874 2.32293L8.15144 2.13721H10.3925L10.7999 5.2221L8.76284 7.25914L6.7258 8.67505V10.3077C6.7258 11.4481 7.3218 12.5055 8.29734 13.096L10.4418 14.394L5.91099 17.037H5.03714L3.40844 16.0512C2.43289 15.4607 1.83691 14.4032 1.83691 13.2629V7.77272C1.83691 6.63202 2.43327 5.57431 3.40931 4.98393L8.29819 2.02675C8.3285 2.00843 8.35902 1.99064 8.38974 1.97339Z" fill="url(#paint0_radial_80_1185)"/>
<path d="M8.38974 1.97339L8.29819 2.02876C8.15258 2.11684 8.01541 2.21532 7.8874 2.32293L8.15144 2.13721H10.3925L10.7999 5.2221L8.76284 7.25914L6.7258 8.67505V10.3077C6.7258 11.4481 7.3218 12.5055 8.29734 13.096L10.4418 14.394L5.91099 17.037H5.03714L3.40844 16.0512C2.43289 15.4607 1.83691 14.4032 1.83691 13.2629V7.77272C1.83691 6.63202 2.43327 5.57431 3.40931 4.98393L8.29819 2.02675C8.3285 2.00843 8.35902 1.99064 8.38974 1.97339Z" fill="url(#paint1_linear_80_1185)"/>
<path d="M13.2445 8.48145V10.3068C13.2445 11.4471 12.6485 12.5045 11.673 13.095L6.78412 16.0543C5.78402 16.6596 4.53968 16.6815 3.52197 16.1198L8.29752 19.0105C9.33502 19.6385 10.6355 19.6385 11.673 19.0105L16.5619 16.0512C17.5374 15.4607 18.1334 14.4033 18.1334 13.2629V11.9444L17.726 11.3333L13.2445 8.48145Z" fill="url(#paint2_radial_80_1185)"/>
<path d="M13.2445 8.48145V10.3068C13.2445 11.4471 12.6485 12.5045 11.673 13.095L6.78412 16.0543C5.78402 16.6596 4.53968 16.6815 3.52197 16.1198L8.29752 19.0105C9.33502 19.6385 10.6355 19.6385 11.673 19.0105L16.5619 16.0512C17.5374 15.4607 18.1334 14.4033 18.1334 13.2629V11.9444L17.726 11.3333L13.2445 8.48145Z" fill="url(#paint3_linear_80_1185)"/>
<path d="M16.5611 4.98406L11.6722 2.02688C10.6673 1.419 9.41582 1.40017 8.39559 1.97039L8.29846 2.02913C7.32244 2.61952 6.72607 3.6772 6.72607 4.81792V8.68173L8.29846 7.73059C9.33556 7.10331 10.6351 7.10331 11.6722 7.73059L16.5611 10.6878C17.5066 11.2597 18.0958 12.2702 18.1317 13.3698C18.1329 13.3343 18.1335 13.2987 18.1335 13.263V7.77284C18.1335 6.63214 17.5371 5.57443 16.5611 4.98406Z" fill="url(#paint4_radial_80_1185)"/>
<path d="M16.5611 4.98406L11.6722 2.02688C10.6673 1.419 9.41582 1.40017 8.39559 1.97039L8.29846 2.02913C7.32244 2.61952 6.72607 3.6772 6.72607 4.81792V8.68173L8.29846 7.73059C9.33556 7.10331 10.6351 7.10331 11.6722 7.73059L16.5611 10.6878C17.5066 11.2597 18.0958 12.2702 18.1317 13.3698C18.1329 13.3343 18.1335 13.2987 18.1335 13.263V7.77284C18.1335 6.63214 17.5371 5.57443 16.5611 4.98406Z" fill="url(#paint5_linear_80_1185)"/>
<defs>
<radialGradient id="paint0_radial_80_1185" cx="0" cy="0" r="1" gradientUnits="userSpaceOnUse" gradientTransform="translate(7.30375 5.07475) rotate(110.528) scale(13.5934 23.7097)">
<stop offset="0.06441" stop-color="#AE7FE2"/>
<stop offset="1" stop-color="#0078D4"/>
</radialGradient>
<linearGradient id="paint1_linear_80_1185" x1="7.34176" y1="16.1685" x2="5.40226" y2="12.814" gradientUnits="userSpaceOnUse">
<stop stop-color="#114A8B"/>
<stop offset="1" stop-color="#0078D4" stop-opacity="0"/>
</linearGradient>
<radialGradient id="paint2_radial_80_1185" cx="0" cy="0" r="1" gradientUnits="userSpaceOnUse" gradientTransform="translate(4.45673 15.5504) rotate(-8.36717) scale(12.6501 8.35625)">
<stop offset="0.133928" stop-color="#D59DFF"/>
<stop offset="1" stop-color="#5E438F"/>
</radialGradient>
<linearGradient id="paint3_linear_80_1185" x1="16.6491" y1="11.0794" x2="14.5707" y2="14.0595" gradientUnits="userSpaceOnUse">
<stop stop-color="#493474"/>
<stop offset="1" stop-color="#8C66BA" stop-opacity="0"/>
</linearGradient>
<radialGradient id="paint4_radial_80_1185" cx="0" cy="0" r="1" gradientUnits="userSpaceOnUse" gradientTransform="translate(16.9337 11.5387) rotate(-165.772) scale(10.1537 17.0929)">
<stop offset="0.0584996" stop-color="#50E6FF"/>
<stop offset="1" stop-color="#436DCD"/>
</radialGradient>
<linearGradient id="paint5_linear_80_1185" x1="7.12362" y1="1.98605" x2="10.1837" y2="1.98605" gradientUnits="userSpaceOnUse">
<stop stop-color="#2D3F80"/>
<stop offset="1" stop-color="#436DCD" stop-opacity="0"/>
</linearGradient>
</defs>
</svg>
