<svg width="25" height="25" viewBox="0 0 25 25" fill="none" xmlns="http://www.w3.org/2000/svg">
<path d="M17.9819 12.1375C17.4133 11.6887 16.6492 11.4154 15.8151 11.4149C14.9811 11.4154 14.2165 11.6887 13.6479 12.1375C13.0691 12.5946 12.6853 13.2385 12.6413 13.9694C12.5968 14.7203 12.9199 15.4189 13.488 15.9362C14.0674 16.4622 14.8926 16.7927 15.8156 16.7927C16.7382 16.7927 17.5629 16.4622 18.1413 15.9357C18.7094 15.4189 19.033 14.7203 18.989 13.9689C18.945 13.239 18.5607 12.5946 17.9819 12.1375Z" fill="#01579B"/>
<path d="M23.3294 13.6631C23.2028 12.7718 22.8938 11.9349 22.4196 11.1722C21.984 10.4716 21.4247 9.85806 20.7588 9.3413L20.7598 9.34032L20.7417 9.33446C20.728 9.32223 20.7173 9.30806 20.7031 9.29632L13.7364 4.13268C13.316 3.79583 12.7 3.86281 12.3622 4.2857C12.0248 4.70712 12.0928 5.32263 12.5152 5.65997L15.4427 7.82966H6.03693C5.36471 7.82966 4.81471 8.37966 4.81471 9.05188C4.81471 9.7241 5.36471 10.2741 6.03693 10.2741H9.53444L2.30817 16.4351C1.79582 16.8741 1.73617 17.6465 2.17568 18.1584C2.41768 18.4405 2.75991 18.5852 3.10408 18.5852C3.38568 18.5852 3.66826 18.4884 3.89902 18.2909L8.27653 14.5387C8.26577 14.9332 8.25746 15.2906 8.25942 15.3996C8.25942 17.1185 10.1925 21.5185 15.9037 21.5185C19.9703 21.5185 23.3739 19.0741 23.3739 15.0354C23.4091 14.5788 23.394 14.1202 23.3294 13.6631ZM20.2269 15.2378C20.0309 15.7692 19.7136 16.2664 19.2809 16.7005C18.396 17.5903 17.1577 18.0939 15.8157 18.0958C14.4737 18.0983 13.2344 17.5986 12.349 16.7113C11.9163 16.2786 11.5985 15.7819 11.402 15.2515C11.2104 14.7308 11.1356 14.1784 11.1849 13.621C11.2328 13.0754 11.3961 12.5557 11.6596 12.0854C11.9183 11.6229 12.2742 11.2054 12.7127 10.8515C13.5732 10.1602 14.6678 9.78619 15.8147 9.78472C16.9616 9.78326 18.0558 10.1543 18.9167 10.8427C19.3552 11.1947 19.7107 11.6107 19.9688 12.0722C20.2323 12.5421 20.3961 13.0613 20.4445 13.6064C20.4934 14.1647 20.4191 14.7166 20.2269 15.2378Z" fill="#FF6D00"/>
</svg>
