<svg width="24" height="26" viewBox="0 0 24 26" fill="none" xmlns="http://www.w3.org/2000/svg">
<path d="M3.81194 6.47542C3.77283 5.28283 4.65332 4.18262 5.84376 4.18262H18.0396C19.23 4.18262 20.1105 5.28283 20.0709 6.47542C20.0333 7.62157 20.0822 9.10573 20.4361 10.3164C20.7911 11.5306 21.3899 12.298 22.3707 12.3966V13.5149C21.3899 13.6134 20.7915 14.3808 20.4361 15.595C20.0822 16.8052 20.0333 18.2899 20.0709 19.436C20.11 20.6281 19.2295 21.7283 18.0396 21.7283H5.84376C4.65381 21.7283 3.77283 20.6281 3.81243 19.4355C3.85008 18.2893 3.80119 16.8052 3.44723 15.5945C3.0923 14.3803 2.49194 13.6129 1.51123 13.5143V12.3961C2.49194 12.2975 3.09181 11.5301 3.44723 10.3159C3.8007 9.10573 3.85008 7.62157 3.81194 6.47542Z" fill="#7C4DFF"/>
<path d="M13.4433 12.6789V12.6644C14.3493 12.4993 15.0562 11.6029 15.0562 10.6157C15.0562 9.91799 14.802 9.32659 14.3209 8.90653C13.8413 8.4875 13.1686 8.26611 12.3746 8.26611H8.73877V17.6412H12.3932C13.3426 17.6412 14.1312 17.3966 14.6729 16.9332C15.2151 16.4692 15.5021 15.7942 15.5021 14.9809C15.5016 13.7522 14.6753 12.8295 13.4433 12.6789ZM11.7405 12.2371H10.1854V9.49276H12.0353C13.0503 9.49276 13.6091 9.96288 13.6091 10.8164C13.6096 11.7324 12.9457 12.2371 11.7405 12.2371ZM10.1854 13.3858H12.0231C13.3509 13.3858 14.0237 13.8921 14.0237 14.8906C14.0237 15.8876 13.3602 16.4145 12.1048 16.4145H10.1854V13.3858Z" fill="white"/>
</svg>
