<svg width="24" height="23" viewBox="0 0 24 23" fill="none" xmlns="http://www.w3.org/2000/svg">
<g clip-path="url(#clip0_80_1072)">
<path fill-rule="evenodd" clip-rule="evenodd" d="M5.23757 9.65653C5.26731 9.67896 5.31893 9.69354 5.26731 9.73783C5.23028 9.78942 5.18595 9.83371 5.15649 9.89287C5.12704 9.94473 5.10487 9.95931 5.06055 9.92258C5.11946 9.82642 5.17838 9.73755 5.23729 9.65625L5.23757 9.65653ZM20.0769 17.399C20.0769 17.4209 20.0842 17.4354 20.0842 17.4579C20.0991 17.4284 20.0991 17.4136 20.1067 17.399H20.0769ZM18.571 20.3463L17.2861 13.2248C17.2642 13.2178 17.2347 13.2033 17.1828 13.1884C17.1977 13.2178 17.2053 13.24 17.2126 13.2621C17.2491 13.2548 17.2642 13.2548 17.2788 13.2476C17.2788 13.2403 17.2788 13.233 17.2864 13.2251L18.5713 20.3472L18.571 20.3463ZM17.242 11.6218C17.2347 11.6437 17.2347 11.6661 17.2347 11.6882C17.2347 11.6658 17.2347 11.6434 17.2426 11.6215L17.242 11.6218ZM17.2493 11.7693C17.242 11.7693 17.242 11.7693 17.2347 11.7614V11.7687C17.2426 11.776 17.2426 11.776 17.2499 11.7687L17.2493 11.7693ZM17.2347 11.8281V11.7763C17.2131 11.7836 17.191 11.7836 17.1612 11.7911C17.1983 11.8051 17.2353 11.813 17.2353 11.8276L17.2347 11.8281Z" fill="#DD3735"/>
<path fill-rule="evenodd" clip-rule="evenodd" d="M22.9856 10.0334C22.971 9.74521 22.9637 9.45701 22.934 9.16909C22.8824 8.77744 22.8308 8.3785 22.7421 7.99442C22.6756 7.67678 22.5654 7.37372 22.4543 7.07094C22.314 6.7163 22.1737 6.35436 21.9964 6.01458C21.7086 5.46789 21.3321 4.98008 20.9851 4.4704C20.7556 4.14519 20.4605 3.87942 20.2388 3.54692C20.1134 3.35488 19.9288 3.19256 19.7442 3.04509C19.4488 2.8082 19.1388 2.59373 18.8288 2.38711C18.5949 2.22317 18.3533 2.0703 18.105 1.92902C17.9058 1.81772 17.6918 1.72912 17.485 1.63296C17.2488 1.52223 17.0199 1.38906 16.7542 1.33747C16.6874 1.32346 16.6285 1.30103 16.562 1.2786C16.3923 1.21973 16.2298 1.15328 16.0598 1.10142C15.8017 1.02012 15.5507 0.924236 15.2847 0.857512C15.0272 0.791069 14.7612 0.747054 14.4952 0.709767C14.2001 0.666313 13.8977 0.650893 13.602 0.622017C13.4133 0.597648 13.2237 0.580441 13.0336 0.570432C12.7531 0.555854 12.4652 0.555854 12.1847 0.548565C12.0444 0.540995 11.8968 0.526137 11.7566 0.533706C11.5425 0.540995 11.3285 0.563143 11.1141 0.59258C10.9077 0.615008 10.7009 0.651454 10.5017 0.681452C10.2585 0.710888 10.015 0.725747 9.77117 0.755464C9.54225 0.785182 9.30603 0.829477 9.07738 0.866483C8.99603 0.881342 8.91467 0.910779 8.83331 0.925357C8.65657 0.962364 8.47197 0.977222 8.29467 1.03638C7.97765 1.13282 7.6598 1.24384 7.34979 1.36158C7.06168 1.47989 6.78113 1.60549 6.50816 1.75324C6.22762 1.90799 5.96166 2.09246 5.69599 2.2702C5.44081 2.44085 5.1919 2.62067 4.94974 2.80932C4.71409 2.99435 4.49246 3.20097 4.27812 3.40787C4.16029 3.52562 4.06407 3.66635 3.95325 3.79924C3.76893 4.01371 3.58434 4.22033 3.40703 4.44209C3.26003 4.62712 3.12649 4.81888 2.98622 5.0112C2.73569 5.35042 2.52164 5.71264 2.32245 6.07485C2.24109 6.2226 2.16731 6.37034 2.09352 6.51781C1.98271 6.73929 1.8646 6.95375 1.76136 7.1828C1.6873 7.33812 1.62838 7.50801 1.58406 7.6779C1.4811 8.04012 1.37758 8.40962 1.28163 8.77127C1.19298 9.09648 1.17082 9.43627 1.1638 9.76876C1.15623 10.0643 1.18569 10.3525 1.21514 10.6479C1.22272 10.722 1.17867 10.8105 1.26676 10.8694C1.23731 10.9507 1.25947 10.9956 1.30323 11.0096C1.25217 11.0909 1.32568 11.143 1.2965 11.2171C1.28893 11.2316 1.31894 11.2611 1.33297 11.2832C1.33297 11.3056 1.32596 11.3351 1.33297 11.3572C1.34083 11.4237 1.37028 11.4901 1.37028 11.5641C1.37028 11.6157 1.41433 11.6749 1.4292 11.7267C1.43649 11.7486 1.4292 11.7856 1.41433 11.8005C1.37 11.8521 1.3773 11.8963 1.44379 11.9261C1.4811 12.0219 1.46623 12.0662 1.45893 12.1111C1.47352 12.1773 1.45136 12.1994 1.45893 12.2143C1.51785 12.3326 1.54029 12.4655 1.54731 12.5984C1.54731 12.6281 1.56217 12.6578 1.57704 12.6945C1.58434 12.6945 1.57704 12.8347 1.57704 12.8347C1.61351 12.8128 1.64353 12.8055 1.68028 12.7907C1.70273 12.8866 1.72461 12.9757 1.75407 13.057C1.7911 13.1159 1.7911 13.145 1.77651 13.1523C1.80597 13.2852 1.82056 13.4108 1.8719 13.5364C1.8719 13.3962 1.85787 13.2561 1.83542 13.1229C1.93866 13.1599 2.02732 13.1966 2.08651 13.1966C2.09409 13.1742 2.10138 13.145 2.10895 13.1302C2.06463 13.0862 2.0276 13.0197 1.98327 12.9754C1.99814 13.0343 1.98327 13.0567 1.98327 13.0792C1.95381 13.064 1.91678 13.0492 1.88003 13.0343C1.90949 12.9979 1.93895 12.9606 1.98327 12.9165C1.98327 12.8498 1.9468 12.7904 1.843 12.798C1.88733 12.7834 1.93165 12.7615 1.98327 12.7464C2.06463 12.7024 1.97598 12.6211 1.97598 12.5176C1.98327 12.3923 1.90949 12.2667 1.88733 12.1335C1.85029 11.9269 1.85787 11.6166 1.83571 11.4097C1.79138 11.3727 1.75435 11.4685 1.74705 11.4761C1.7695 11.6533 1.79138 11.8305 1.80597 12.0079C1.76192 11.8602 1.73218 11.6976 1.69543 11.5201C1.68786 11.572 1.68056 11.5941 1.68056 11.6238C1.64409 11.6603 1.67327 11.7052 1.69543 11.7567C1.64381 11.7343 1.58462 11.7422 1.58462 11.7422V11.9491C1.51112 11.875 1.48923 11.8162 1.45192 11.764C1.43733 11.7052 1.42948 11.6463 1.41545 11.5874C1.42948 11.5501 1.41545 11.528 1.41545 11.5061C1.40678 11.447 1.3993 11.3877 1.39301 11.3284C1.4003 11.3211 1.38571 11.2106 1.38571 11.2106C1.44463 11.2176 1.48194 11.2246 1.51869 11.2246C1.44491 11.1293 1.49625 11.0699 1.52627 11.0107C1.54113 10.981 1.59275 10.9743 1.60762 10.944C1.66654 10.8333 1.76276 10.7449 1.76276 10.6042C1.76276 10.5378 1.78521 10.464 1.79222 10.3973C1.80709 10.2717 1.82168 10.1461 1.82869 10.0205C1.84384 9.85792 1.82869 9.69531 1.866 9.54028C1.92548 9.28235 1.99926 9.02359 2.08034 8.76482C2.13925 8.57979 2.20602 8.40317 2.27953 8.21814C2.39034 7.92994 2.49386 7.64174 2.63413 7.36867C2.83332 6.96945 3.06224 6.58537 3.28387 6.194C3.42414 5.9501 3.57171 5.72105 3.72713 5.48471C3.87442 5.25567 4.0217 5.01933 4.19199 4.80486C4.42576 4.50234 4.68785 4.22278 4.97471 3.96997C5.27012 3.7042 5.55067 3.43086 5.86796 3.18695C6.28047 2.86844 6.71997 2.58647 7.18147 2.34422C7.55824 2.14517 7.94932 1.98929 8.34068 1.84155C8.59176 1.74567 8.86473 1.70137 9.12339 1.62007C9.41853 1.52391 9.71394 1.47989 10.0239 1.47232C10.2231 1.46475 10.4153 1.44261 10.6145 1.42046C10.7918 1.40644 10.9688 1.3913 11.161 1.36915C11.1385 1.39859 11.1312 1.41345 11.124 1.42803C11.0432 1.54634 10.9545 1.66464 10.8731 1.78267C10.8067 1.87883 10.7329 1.98228 10.6664 2.07816C10.548 2.23376 10.4223 2.38879 10.3118 2.5514C10.142 2.7953 9.98691 3.0465 9.8096 3.29012C9.63286 3.52646 9.44069 3.74822 9.25609 3.97698C9.01258 4.2949 8.78365 4.61983 8.54014 4.93747C8.31851 5.24025 8.08286 5.52901 7.86852 5.83179C7.67663 6.09728 7.50662 6.37847 7.32202 6.65125C7.04905 7.05776 6.7758 7.45642 6.50283 7.86293C6.28854 8.17236 6.07195 8.48019 5.85309 8.78641C5.83822 8.80884 5.81606 8.81557 5.79418 8.83043C5.73526 8.92631 5.73526 8.97817 5.71282 9.02247C5.65391 9.13321 5.59499 9.24394 5.52822 9.34767C5.49119 9.40655 5.43957 9.45813 5.39525 9.51729C5.38795 9.4287 5.51307 9.3844 5.45416 9.27338C5.41769 9.33282 5.38038 9.3844 5.34363 9.44356L5.25497 9.62018C5.28443 9.64261 5.33633 9.65746 5.28443 9.70148C5.26199 9.73877 5.24011 9.78278 5.21794 9.82007C5.2499 9.80129 5.2776 9.77609 5.2993 9.74606C5.2993 9.82736 5.25497 9.89352 5.21794 9.95996C5.18849 10.0188 5.1147 10.0637 5.06308 10.1077C5.07038 10.1153 5.122 10.1374 5.12957 10.1447C5.19606 10.1223 5.21822 10.0858 5.2258 10.1077C5.24824 10.0783 5.27012 10.0561 5.27742 10.034C5.30659 9.95996 5.35092 9.90109 5.4247 9.87137C5.45444 9.85651 5.47632 9.83437 5.49849 9.8125C5.72012 9.58317 5.94904 9.36169 6.14823 9.11779C6.45851 8.74071 6.73905 8.34962 7.03474 7.96554C7.15987 7.80294 7.30771 7.64033 7.44041 7.48502C7.46229 7.65491 7.4477 7.81724 7.44041 7.97283C7.41797 8.24589 7.40338 8.51952 7.3815 8.79987C7.37392 8.91061 7.3815 9.02135 7.37392 9.13237C7.37392 9.1618 7.35148 9.18395 7.35148 9.21367C7.35148 9.2874 7.37392 9.3687 7.37392 9.44271C7.35148 9.71606 7.32174 9.98183 7.29958 10.2552C7.292 10.314 7.32146 10.3735 7.33605 10.4253C7.29958 10.824 7.38094 11.2454 7.31417 11.6665C7.36579 11.5852 7.38065 11.5336 7.38065 11.482C7.38767 11.4377 7.38065 11.3934 7.38065 11.3418V11.2678C7.38767 11.1346 7.41713 10.9945 7.40254 10.8613C7.38767 10.7135 7.38767 10.5734 7.41741 10.4329C7.43227 10.374 7.41011 10.3 7.44714 10.226V10.3368C7.43985 10.7573 7.45472 11.1787 7.3958 11.5997C7.38823 11.6367 7.41825 11.7035 7.33689 11.6959C7.27012 11.8288 7.35148 11.9249 7.27798 11.9987C7.26283 12.0135 7.292 12.08 7.29958 12.1243C7.26984 12.2131 7.26984 12.2131 7.31417 12.2204C7.32146 12.383 7.33661 12.5305 7.34362 12.6858C7.46145 12.4055 7.40254 12.1167 7.45472 11.8285C7.46201 11.9468 7.46959 12.0651 7.46201 12.1902C7.46201 12.3828 7.45472 12.5672 7.44742 12.7593C7.44742 12.7963 7.43985 12.8333 7.43256 12.8703C7.41011 12.974 7.4031 13.0772 7.36607 13.1731C7.33661 13.2471 7.35148 13.3581 7.35148 13.4464V13.7276C7.38094 13.8532 7.3439 13.9196 7.36607 13.9934C7.34362 14.0677 7.33661 14.0898 7.34362 14.112L7.36607 14.2227C7.51391 14.2078 7.44742 14.3189 7.50634 14.3777C7.46201 14.4372 7.47688 14.459 7.47688 14.489C7.47688 14.5555 7.46987 14.6146 7.46229 14.6811C7.46229 14.851 7.455 15.0209 7.455 15.1835C7.455 15.2059 7.46229 15.2275 7.46229 15.2496C7.46229 15.2648 7.455 15.4571 7.455 15.4571C7.46987 15.479 7.455 15.5011 7.43256 15.5233C7.42554 15.5233 7.40338 14.5849 7.40338 14.5849H7.29256C7.27798 15.0279 7.31501 15.4268 7.23365 15.8409C7.145 15.8479 7.11582 15.8628 7.01931 15.8628C6.79039 15.8628 6.56147 15.8628 6.33254 15.8701C6.05929 15.8701 5.7939 15.8773 5.52037 15.8773C5.38795 15.8773 5.24768 15.8925 5.1147 15.8925C4.9374 15.8925 4.7528 15.8701 4.57606 15.8701C4.30253 15.8701 4.03685 15.8925 3.7636 15.8998C3.56442 15.9071 3.36523 15.9071 3.16604 15.9146C3.03279 15.9216 2.89953 15.9286 2.76711 15.9438C2.7082 15.9511 2.6563 15.9732 2.58251 15.9954C2.56007 15.9954 2.50873 15.9881 2.46468 15.9954C2.39034 16.0102 2.32441 16.0542 2.25007 16.0694C2.13925 16.0918 2.1098 16.121 2.12438 16.232V16.3057C2.11709 16.3203 2.2871 16.2833 2.2871 16.2833C2.27195 16.2833 2.26466 16.3276 2.24221 16.3646C2.30169 16.3422 2.33844 16.3276 2.37547 16.313C2.48629 16.3649 2.58223 16.3354 2.6706 16.3579C2.95844 16.4313 3.25357 16.4616 3.54871 16.4905C3.74088 16.5053 3.92548 16.5129 4.11737 16.5199C4.39034 16.5348 4.66359 16.5496 4.93656 16.5496C5.16548 16.5496 5.38711 16.5272 5.61547 16.5272C5.93249 16.5272 6.25062 16.5418 6.56792 16.5496C6.63441 16.5496 6.70819 16.5418 6.78197 16.5418H7.32062C7.80091 16.5272 8.28064 16.5193 8.76065 16.5053C9.03418 16.4975 9.31472 16.4829 9.58769 16.4753L10.4293 16.4529C10.7542 16.4456 11.0791 16.4456 11.3966 16.4389C11.6402 16.4389 11.8764 16.4305 12.1204 16.4235C12.3931 16.4162 12.6737 16.394 12.9469 16.3795C13.0948 16.3719 13.2426 16.357 13.3902 16.3424C13.5675 16.3279 13.7521 16.306 13.9288 16.2984C14.1948 16.2833 14.468 16.276 14.734 16.2611C15.0662 16.2393 15.3983 16.2098 15.7378 16.2023C16.0481 16.1877 16.3654 16.195 16.6756 16.1877C16.9489 16.1801 17.2221 16.1653 17.5027 16.158L17.9684 16.1355C17.9684 16.1355 18.2781 16.1283 18.4332 16.1131C18.6989 16.0985 18.9646 16.0691 19.2305 16.0618C19.4 16.0542 19.57 16.0618 19.7397 16.0542C20.0127 16.047 20.2932 16.0318 20.5665 16.0318C20.6695 16.0318 20.7803 16.047 20.9132 16.0542C20.8543 16.1061 20.8173 16.1355 20.773 16.1726C20.8024 16.1798 20.8319 16.195 20.8616 16.2096C20.8272 16.2339 20.7859 16.2466 20.7438 16.246C20.7287 16.2833 20.7138 16.2981 20.6989 16.3722H20.8319C20.7803 16.3722 20.7359 16.4386 20.6843 16.4829C20.6254 16.4678 20.5735 16.4829 20.5441 16.5642C20.5957 16.5934 20.5884 16.6155 20.5811 16.6455C20.4924 16.6747 20.4259 16.7044 20.4633 16.8003C20.4332 16.8148 20.3965 16.8297 20.3595 16.8518C20.323 16.9107 20.2562 16.9256 20.2708 17.0069C20.3005 17.0139 20.3297 17.0293 20.3522 17.036C20.3151 17.0509 20.2784 17.073 20.2413 17.0876C20.1086 17.1689 20.1678 17.2059 20.1973 17.2429C20.1749 17.2578 20.153 17.2724 20.1308 17.2799C20.1454 17.3464 20.1673 17.3612 20.1749 17.3612C20.1371 17.3898 20.1002 17.4193 20.064 17.4498C20.0416 17.5163 20.0121 17.5457 19.9827 17.59C19.9532 17.6343 19.9384 17.6937 19.9013 17.7378C19.7465 17.9079 19.6357 18.1078 19.4365 18.2404C19.3624 18.2923 19.2962 18.3587 19.2297 18.4255C19.0967 18.5508 18.9786 18.6912 18.8383 18.8095C18.6529 18.963 18.4608 19.1084 18.2627 19.2452C18.0194 19.4151 17.7759 19.585 17.5321 19.7476C17.3992 19.8359 17.2516 19.9023 17.1113 19.9836C16.971 20.0649 16.8381 20.139 16.6978 20.22C16.6091 20.2789 16.5278 20.3602 16.4318 20.405C16.1883 20.5087 15.9297 20.5971 15.6789 20.6932C15.4348 20.7969 15.258 20.8853 15.0734 20.9517C14.9037 21.0106 14.7264 21.0554 14.5494 21.0919C14.4905 21.107 14.4237 21.0919 14.3572 21.0994C14.2315 21.1219 14.1061 21.1516 13.9804 21.1662C13.6556 21.2105 13.3307 21.2402 13.0061 21.2845C12.8139 21.3069 12.6294 21.3434 12.4375 21.3658C12.3048 21.3731 12.1645 21.3585 12.0315 21.3585C11.9356 21.3585 11.8323 21.3809 11.7361 21.3661C11.5812 21.3436 11.4261 21.3072 11.271 21.2775C11.2345 21.2702 11.1823 21.255 11.1531 21.2702C11.0942 21.2999 11.042 21.2556 10.9828 21.2702C10.9464 21.2777 10.9093 21.2478 10.8723 21.2478C10.8426 21.2407 10.8055 21.2556 10.7685 21.2478C10.6871 21.2259 10.6136 21.1964 10.5244 21.2037C10.4366 21.211 10.3477 21.1667 10.2523 21.1449C10.119 21.1151 9.9942 21.086 9.86066 21.056C9.80906 21.0399 9.7596 21.0176 9.71338 20.9895C9.5212 20.9895 9.39552 20.9823 9.27741 20.9377C9.17417 20.9012 9.07823 20.8494 8.96741 20.8642C8.93823 20.8715 8.91607 20.8569 8.88605 20.8569C8.86361 20.8272 8.84201 20.7681 8.82012 20.7681C8.67256 20.7756 8.58391 20.6503 8.45822 20.613C8.39202 20.5906 8.3404 20.5169 8.27391 20.4947C8.11119 20.4283 7.97877 20.2881 7.79418 20.266C7.73526 20.2584 7.67635 20.229 7.60958 20.2071C7.63202 20.2362 7.64605 20.2584 7.66849 20.2805C7.45444 20.1768 7.25525 20.0591 7.05578 19.948C7.02661 19.9408 7.00445 19.9116 6.98228 19.8965L6.7831 19.7636C6.67228 19.786 6.62796 19.7411 6.59794 19.7266C6.39875 19.5864 6.17011 19.4975 5.97794 19.3425C5.89658 19.2758 5.80119 19.2315 5.74228 19.1502C5.63848 19.0246 5.51307 18.936 5.3728 18.8622C5.26227 18.8034 5.15903 18.7366 5.05579 18.6702C5.00389 18.6332 4.95199 18.5889 4.95199 18.5076C4.95199 18.4557 4.9301 18.4039 4.86362 18.4336C4.83416 18.3893 4.8047 18.3377 4.76767 18.3228C4.67902 18.2864 4.6201 18.2191 4.55361 18.1602C4.48713 18.1014 4.43579 18.0201 4.35443 17.9906C4.20658 17.9318 4.11793 17.8062 4.02956 17.7027C3.82252 17.4588 3.63792 17.1925 3.44603 16.9345C3.43116 16.9121 3.4017 16.8973 3.37954 16.8751C3.409 16.9564 3.44603 17.0229 3.48278 17.0966C3.40928 17.0672 3.35766 17.0153 3.31333 16.9637C3.30576 16.9713 3.82252 17.8207 3.82252 17.8207C3.8674 17.8872 3.90387 17.9539 3.9482 18.0203C3.90372 18.0245 3.85901 18.0155 3.81961 17.9944C3.78021 17.9734 3.74786 17.9413 3.72657 17.902C3.66036 17.7843 3.5863 17.7103 3.43873 17.7254C3.42307 17.6721 3.41089 17.6177 3.40226 17.5628C3.37224 17.5628 3.35036 17.5628 3.29846 17.5552C3.40226 17.7178 3.49063 17.858 3.58658 18.0206C3.54927 17.9982 3.52767 17.9836 3.51224 17.9763C3.64493 18.1165 3.74088 18.294 3.91061 18.3828C3.94764 18.5525 4.13953 18.6338 4.18386 18.7964C4.14739 18.7888 4.11709 18.7815 4.08006 18.7739C4.02114 18.7002 3.95465 18.6265 3.88844 18.5452C3.90303 18.5967 3.92492 18.641 3.95465 18.6781C4.0433 18.7888 4.12466 18.8995 4.2279 18.9957C4.26493 19.0333 4.31655 19.0481 4.31655 19.1146C4.37547 19.144 4.39791 19.151 4.41979 19.151C4.43494 19.1959 4.41278 19.2623 4.50115 19.2474C4.56007 19.3582 4.61898 19.3582 4.70034 19.3215C4.79657 19.4176 4.84847 19.4252 4.91467 19.3663C4.91467 19.4028 4.92197 19.4398 4.92197 19.4695C4.95143 19.4546 4.94441 19.4325 4.94441 19.3955C4.98088 19.4249 5.00333 19.4398 5.01791 19.4543C5.0917 19.5581 5.15819 19.654 5.26143 19.7353C5.4017 19.8536 5.52738 19.9792 5.6598 20.0899C5.91846 20.3044 6.20686 20.4818 6.49442 20.6442C6.84902 20.8438 7.18876 21.058 7.55038 21.2497C7.98579 21.479 8.45093 21.6344 8.93066 21.7451C9.10796 21.7821 9.27769 21.8188 9.45528 21.8628C9.60958 21.9077 9.765 21.9741 9.92014 22.0109C10.1564 22.0627 10.3999 22.107 10.6361 22.151C10.6874 22.1586 10.7399 22.1662 10.7988 22.1735C10.8647 22.1883 10.9458 22.1586 10.9607 22.181C10.9977 22.2399 11.0272 22.2102 11.0715 22.2029C11.1231 22.1881 11.1823 22.188 11.2412 22.188C11.448 22.1953 11.6472 22.2396 11.8539 22.2251C11.8988 22.2251 11.965 22.1878 12.0021 22.2615C12.0683 22.2321 12.1053 22.2321 12.1348 22.2251C12.1426 22.2912 12.1348 22.2912 12.1207 22.2985C12.1056 22.3058 12.0834 22.3134 12.054 22.3355C12.3196 22.3871 12.5707 22.3944 12.7918 22.3355C13.1761 22.365 13.5083 22.3207 13.8259 22.2099C13.8553 22.2469 13.8775 22.2985 13.9218 22.2248C13.9364 22.2023 13.9734 22.1948 14.0032 22.1875C14.0694 22.1726 14.1507 22.1432 14.2097 22.1651C14.2764 22.1875 14.2986 22.1286 14.3499 22.1286C14.4389 22.1286 14.5199 22.121 14.6013 22.1062C14.6456 22.0989 14.6899 22.0768 14.7416 22.0619C14.691 22.0368 14.6353 22.024 14.5788 22.0246C14.6678 21.9803 14.7489 21.9433 14.8302 21.9069C14.8153 21.9287 14.8005 21.9582 14.7713 21.9582H14.8743C14.8518 21.9582 14.8224 22.0246 14.7856 22.0689C15.051 22.0025 15.2945 21.9433 15.531 21.8839C15.4497 21.7291 15.6194 21.781 15.6786 21.6921C15.6048 21.7145 15.531 21.7364 15.457 21.751C15.708 21.6257 15.9664 21.5149 16.2172 21.4042C16.1808 21.4485 16.1359 21.4706 16.0699 21.5079C16.1143 21.5149 16.1437 21.5149 16.1659 21.5219C16.2837 21.5592 16.2545 21.4485 16.2913 21.3818C16.4316 21.3818 16.4905 21.3599 16.557 21.3375C16.6307 21.315 16.7045 21.2932 16.7786 21.2637C16.8964 21.2121 17.0072 21.146 17.1253 21.0871C17.1478 21.0793 17.1843 21.0871 17.214 21.0871C17.2954 21.035 17.3245 20.9907 17.3467 20.998C17.4505 21.0128 17.5234 20.9755 17.5532 20.8802C17.6048 20.8429 17.6418 20.8135 17.6786 20.7911C17.8407 20.7025 17.9956 20.6139 18.1583 20.5253C18.2172 20.5253 18.247 20.5253 18.2615 20.5177C18.3581 20.4729 18.4467 20.4218 18.5351 20.37C18.5097 20.3594 18.4851 20.3473 18.4613 20.3335C18.5348 20.3184 18.5567 20.3111 18.6016 20.2962C18.7783 20.0888 19.0224 19.9486 19.2067 19.786C19.2881 19.7787 19.2881 19.7566 19.2881 19.742C19.3172 19.705 19.347 19.6607 19.3834 19.631C19.5462 19.4832 19.7229 19.3576 19.8707 19.2026C20.0848 18.9878 20.2916 18.7661 20.4835 18.537C20.6602 18.3301 20.8381 18.1235 20.9856 17.8945C21.1924 17.5768 21.3694 17.2516 21.554 16.9188C21.687 16.6828 21.8051 16.4465 21.9384 16.2101C21.9524 16.1877 21.9824 16.1583 22.0046 16.1583C22.2037 16.1358 22.4035 16.1218 22.5954 16.0994C22.6397 16.0921 22.6913 16.0629 22.7357 16.0405C22.7132 16.0035 22.6986 15.9592 22.6767 15.9222C22.647 15.8773 22.6027 15.8409 22.5729 15.796C22.5438 15.7596 22.5216 15.7147 22.4994 15.6707C22.477 15.6343 22.4551 15.6046 22.433 15.567C22.3881 15.4857 22.344 15.4044 22.3067 15.3164C22.2994 15.2939 22.2843 15.2575 22.2921 15.2351C22.4251 14.9471 22.4767 14.6368 22.6021 14.3486C22.7275 14.0531 22.7648 13.7206 22.8238 13.403C22.8754 13.1002 22.9051 12.7974 22.9416 12.4946C22.964 12.2804 22.9935 12.0735 23.0005 11.8593C23.0454 11.5196 23.0302 11.2016 23.0229 10.8837C23.0156 10.6034 23.0005 10.3152 22.9865 10.0343L22.9856 10.0334ZM4.46272 19.1275C4.4111 19.0686 4.36677 19.0019 4.31515 18.943L4.3376 18.9206C4.41811 19.0094 4.49947 19.098 4.58055 19.1942C4.53622 19.1717 4.4846 19.1572 4.46272 19.1275ZM4.58055 19.1942C4.60299 19.1866 4.62543 19.1866 4.64732 19.1793C4.66976 19.2163 4.68435 19.2606 4.70623 19.3049C4.60299 19.2973 4.55137 19.2531 4.58083 19.1942H4.58055ZM12.259 22.2452V22.2228C12.3993 22.2082 12.532 22.1934 12.6723 22.1788V22.2004C12.532 22.2228 12.3993 22.2368 12.259 22.2447V22.2452ZM14.119 22.0532C14.0161 22.0756 13.9053 22.0905 13.802 22.1053C13.765 22.1126 13.7207 22.1496 13.7061 22.0829C13.6912 22.0905 13.6763 22.0905 13.6618 22.0981C13.6982 22.2085 13.7872 22.1199 13.8609 22.1642C13.6982 22.1866 13.5439 22.2012 13.3885 22.2231V22.2085C13.4334 22.2012 13.4847 22.1937 13.5288 22.1861V22.1642C13.4552 22.1555 13.3812 22.1505 13.3071 22.1494C13.2855 22.1494 13.2558 22.1791 13.2336 22.1864C13.2042 22.1937 13.1747 22.2012 13.1377 22.2012C13.0123 22.2085 12.8869 22.2085 12.7685 22.2158C12.7609 22.2158 12.7461 22.2085 12.7388 22.2085V22.1861C13.2334 22.1199 13.7207 22.0535 14.2153 21.987C14.2228 22.0016 14.2228 22.0165 14.2301 22.0311C14.1858 22.0311 14.1564 22.0465 14.1193 22.0535L14.119 22.0532ZM14.2301 21.9797C14.4001 21.9573 14.5556 21.9427 14.7177 21.9209C14.3783 22.0168 14.2672 22.0313 14.2301 21.9797ZM7.79979 7.06365C8.03544 6.73844 8.27952 6.41324 8.51574 6.08102C8.58952 5.9843 8.64843 5.88085 8.72222 5.78497C8.74466 5.75525 8.77412 5.74067 8.81087 5.71096L8.80357 5.69694C8.83303 5.65965 8.86249 5.62965 8.87736 5.6005C8.91495 5.54162 8.93711 5.4749 8.96657 5.40846C8.97444 5.39703 8.98444 5.38723 8.99603 5.37958C9.09983 5.43117 9.09983 5.32071 9.1363 5.28342C9.20279 5.20941 9.26928 5.12839 9.32819 5.05437C9.37252 4.9955 9.41684 4.94363 9.45387 4.87719C9.46117 4.85476 9.439 4.81832 9.43143 4.78832H9.40955C9.43199 4.77374 9.45387 4.75187 9.47604 4.73673C9.48333 4.73673 9.48333 4.73673 9.49063 4.72945C9.53495 4.66272 9.57928 4.59628 9.6236 4.53712C9.71197 4.41938 9.80792 4.30107 9.91116 4.1979C9.89657 4.23435 9.8817 4.27163 9.86683 4.30107C9.87441 4.30107 9.87441 4.30864 9.8817 4.30864C9.97035 4.19033 10.0663 4.07959 10.155 3.961C10.1474 3.95399 10.1401 3.94642 10.1325 3.94642C10.096 3.98343 10.0663 4.02044 10.0293 4.05744C10.022 4.04987 10.0147 4.04258 10.0068 4.04258C10.0812 3.94642 10.155 3.85054 10.2285 3.73981C10.2433 3.76223 10.2582 3.79139 10.2874 3.85054C10.3174 3.77681 10.3468 3.72523 10.3687 3.67336C10.3468 3.69579 10.3174 3.71766 10.2952 3.74009L10.2728 3.71766L10.4058 3.51861C10.546 3.319 10.6863 3.1121 10.8266 2.91249C10.8785 2.83876 10.9444 2.7796 10.9893 2.70559C11.1296 2.42524 11.3512 2.2032 11.5206 1.94472C11.5577 1.89313 11.6093 1.84883 11.6536 1.80454C11.6901 1.75968 11.7201 1.77482 11.7496 1.81183C11.9488 2.06302 12.1479 2.32151 12.3471 2.5727C12.4953 2.75773 12.6428 2.93436 12.7831 3.12668C12.9528 3.36329 13.1153 3.59963 13.2853 3.83597C13.4772 4.10931 13.669 4.38265 13.8536 4.663C14.1342 5.07708 14.3999 5.49088 14.6804 5.9044C14.8872 6.20718 15.0939 6.50295 15.2931 6.80573H14.9161C14.5693 6.79872 14.2147 6.76928 13.868 6.78386C13.3955 6.80629 12.9158 6.85787 12.4433 6.89488C11.8452 6.94675 11.2398 6.95375 10.6423 6.95375C10.4276 6.95375 10.2136 6.98375 9.99981 6.99861C9.74115 7.01319 9.49006 7.02805 9.23168 7.03506C8.9287 7.05019 8.63412 7.05748 8.33114 7.06505C8.16113 7.07234 7.9841 7.06505 7.79951 7.06505L7.79979 7.06365ZM16.2674 10.4615V10.5282C16.2601 10.5282 16.2529 10.5358 16.238 10.5358C16.2085 10.4321 16.1791 10.3211 16.142 10.2176C16.0683 10.0031 15.9869 9.78867 15.8539 9.59691C15.7058 9.39029 15.5734 9.17638 15.4253 8.96191C15.3888 8.91005 15.3366 8.86575 15.2923 8.82174C15.1371 8.65156 14.982 8.4741 14.7828 8.34878C14.4893 8.16482 14.1805 8.00649 13.8598 7.87555C13.7708 7.83735 13.6845 7.79294 13.6017 7.74266H13.7785L15.0409 7.72023C15.3142 7.71323 15.5801 7.71323 15.8531 7.69837C15.9193 7.69837 15.9563 7.7208 15.9934 7.77967C16.0596 7.89041 16.126 8.00115 16.1998 8.11217C16.2074 8.12674 16.2223 8.14861 16.2223 8.17104C16.2223 8.33364 16.2223 8.50354 16.2296 8.66614C16.2366 8.83603 16.252 8.99864 16.2587 9.16853C16.2587 9.33842 16.2439 9.51561 16.2515 9.69279C16.259 9.94426 16.2663 10.203 16.2663 10.461L16.2674 10.4615ZM8.32356 7.98769C8.6706 7.97283 9.00248 7.95068 9.3425 7.93583C9.60761 7.92097 9.88114 7.9134 10.1465 7.89882C10.2574 7.89181 10.3609 7.8848 10.4714 7.89882C10.3536 7.95825 10.2352 8.01741 10.1319 8.09114C9.99897 8.17973 9.87385 8.29776 9.74059 8.39392C9.60733 8.4898 9.48922 8.60811 9.37869 8.73371C9.23842 8.90332 9.08328 9.05106 8.93543 9.21367C8.83163 9.33197 8.7138 9.44271 8.62543 9.56831C8.50002 9.73092 8.38921 9.90754 8.2711 10.0926C8.30813 9.39057 8.35246 8.69642 8.32272 7.98713L8.32356 7.98769ZM13.1447 15.0946C12.9082 15.1535 12.665 15.2202 12.4209 15.2496C12.2144 15.2794 12.0001 15.2721 11.786 15.2721C11.5962 15.2722 11.4064 15.2647 11.2171 15.2496C11.003 15.2278 10.789 15.2056 10.5822 15.1095C10.4046 15.0282 10.2203 14.9544 10.0436 14.8656C9.86571 14.777 9.68869 14.6738 9.55543 14.5112C9.46005 14.3926 9.32679 14.2967 9.20868 14.1933C9.23112 14.2819 9.28246 14.3559 9.36382 14.4075C9.32679 14.4518 9.27517 14.4299 9.2011 14.3113C9.17922 14.3262 9.15706 14.3337 9.14219 14.341C9.16463 14.2891 9.18652 14.2373 9.20868 14.1933C9.17922 14.1344 9.14219 14.0677 9.11273 14.0082C9.05382 13.9124 8.9949 13.8092 8.943 13.713C8.92813 13.6906 8.92813 13.6687 8.91355 13.6466C8.8767 13.604 8.84205 13.5595 8.80975 13.5134C8.75083 13.4251 8.69921 13.3292 8.62543 13.2404C8.62543 13.2628 8.633 13.2847 8.633 13.3144C8.62543 13.3144 8.61813 13.3217 8.61813 13.3217L8.46271 12.9449C8.45542 12.9449 8.45542 12.9449 8.44812 12.9522L8.58082 13.44C8.57353 13.44 8.56623 13.447 8.55838 13.447C8.53678 13.4178 8.51461 13.3881 8.49946 13.3517C8.48488 13.2922 8.44055 13.2922 8.40408 13.3144C8.38163 13.3292 8.36677 13.3808 8.37434 13.403C8.42624 13.5286 8.48516 13.6542 8.54435 13.7798C8.55894 13.824 8.57381 13.8611 8.59597 13.9053C8.60355 13.9202 8.62571 13.9348 8.62571 13.9569C8.65545 14.0158 8.67761 14.0747 8.71436 14.1268C8.78085 14.2154 8.85463 14.304 8.92112 14.3926C8.98705 14.4812 9.04596 14.5776 9.10516 14.6659C9.11245 14.6808 9.13462 14.6808 9.14163 14.6884C9.17894 14.7991 9.30434 14.8801 9.393 14.8358C9.41544 15.0057 9.59976 15.0649 9.67354 15.2275C9.60109 15.1979 9.52969 15.1659 9.45948 15.1313C9.45191 15.1386 9.45191 15.1459 9.44434 15.1608C9.53299 15.2051 9.62164 15.2494 9.70244 15.3009C9.77678 15.3458 9.85056 15.3898 9.91705 15.4411C10.0057 15.5224 10.1092 15.5673 10.2341 15.5964C10.2316 15.5856 10.2268 15.5753 10.22 15.5664C10.4265 15.6626 10.6409 15.766 10.803 15.8468C10.0352 15.8619 9.21569 15.8768 8.36649 15.8916C8.36649 15.7515 8.35919 15.6183 8.35919 15.4778C8.35919 15.419 8.37378 15.3671 8.36621 15.3079C8.34376 14.9687 8.34376 14.6284 8.29972 14.2959C8.25567 13.9415 8.25567 13.5942 8.26325 13.239C8.27026 13.0475 8.25567 12.8481 8.2481 12.6558C8.2481 12.3973 8.2481 12.1456 8.25595 11.8877C8.25595 11.8507 8.27082 11.8212 8.28569 11.7839H8.30813C8.31515 11.7991 8.30813 11.8212 8.32216 11.8288C8.3446 11.8512 8.38164 11.8877 8.3965 11.8804C8.44055 11.8507 8.50704 11.8215 8.52191 11.7766C8.55838 11.6883 8.57353 11.5922 8.57353 11.5036C8.57353 11.4374 8.60326 11.3931 8.63244 11.3485C8.64759 11.3261 8.65488 11.3042 8.66975 11.2748C8.6403 11.2524 8.61084 11.2378 8.57381 11.2084C8.60355 11.1271 8.59625 11.0309 8.70707 10.9869C8.72165 10.9793 8.72165 10.942 8.72951 10.9202C8.73652 10.8605 8.74354 10.794 8.75139 10.7351C8.76598 10.7576 8.77384 10.7646 8.78786 10.7791C8.79203 10.7711 8.79712 10.7636 8.80301 10.7567C8.80301 10.7276 8.79572 10.6684 8.80301 10.6684C8.89166 10.6536 8.85463 10.5577 8.89896 10.5134C8.90597 10.5055 8.89138 10.4834 8.89138 10.4685C8.89138 10.4539 8.89138 10.4321 8.89868 10.4321C9.00164 10.4096 8.98705 10.2989 9.05354 10.247C9.07598 10.2322 9.08299 10.2106 9.11245 10.1733C9.17137 10.2765 9.06813 10.3283 9.06083 10.4021C9.18595 10.3283 9.22299 10.1512 9.1492 10.0993C9.17866 10.0769 9.20812 10.0477 9.23056 10.018C9.31192 9.9294 9.40001 9.8481 9.47407 9.75951C9.52597 9.69335 9.55543 9.61205 9.60705 9.5456C9.63679 9.5086 9.6957 9.47916 9.74003 9.45673C9.87301 9.38328 9.99813 9.30198 10.0795 9.17638C10.0944 9.16152 10.1165 9.14694 10.1384 9.13208C10.1608 9.11723 10.2052 9.11723 10.2125 9.09508C10.22 9.0805 10.1979 9.04349 10.183 9.02135C10.2122 9.00649 10.2419 8.97705 10.3008 8.94733C10.2784 8.99163 10.2714 9.02135 10.2565 9.05106L10.293 9.08751C10.3598 9.03592 10.463 8.97705 10.5295 8.93275C10.5295 8.92575 10.4924 8.89631 10.4924 8.89631C10.4484 8.91874 10.3819 8.95518 10.3157 8.9849C10.3297 8.96247 10.3297 8.94789 10.3381 8.9406C10.4411 8.87416 10.5443 8.80772 10.6552 8.75557C10.9133 8.63783 11.1719 8.51952 11.4303 8.40878C11.4746 8.38635 11.5341 8.40149 11.5854 8.40149C11.6073 8.40149 11.6219 8.40149 11.6444 8.3942C11.7622 8.35719 11.8806 8.32019 11.9987 8.29047C12.05 8.27589 12.1089 8.2686 12.1614 8.2686C12.3822 8.27561 12.6038 8.27561 12.8252 8.29047C12.9211 8.29776 13.0098 8.31991 13.0984 8.34934C13.2121 8.38881 13.323 8.43564 13.4306 8.48952C13.556 8.5568 13.6741 8.63026 13.7925 8.71156C14.0065 8.85173 14.2057 9.00705 14.4198 9.13265C14.6265 9.25824 14.789 9.42814 14.922 9.62046C15.0847 9.84922 15.269 10.0561 15.3428 10.3368L15.4533 10.8246C15.4757 10.9132 15.5274 11.0017 15.5052 11.1049C15.4679 11.29 15.4384 11.482 15.409 11.6667C15.3944 11.741 15.3795 11.8153 15.3871 11.8882C15.4011 12.1181 15.3128 12.3172 15.2244 12.5241C15.1946 12.5905 15.1503 12.6572 15.1136 12.731C15.1316 12.7437 15.1515 12.7537 15.1725 12.7607L15.239 12.6278C15.2465 12.6278 15.2465 12.6278 15.2538 12.6354C15.2168 12.7385 15.1873 12.8495 15.15 12.953C15.0619 13.182 14.9733 13.4184 14.8625 13.6399C14.8036 13.7655 14.6998 13.8689 14.6263 13.9875C14.5528 14.0907 14.4936 14.2014 14.4198 14.2976C14.3533 14.3789 14.2871 14.4602 14.1982 14.519C13.999 14.6668 13.7922 14.8145 13.5781 14.9328C13.4455 15.0141 13.2903 15.0584 13.1427 15.0954L13.1447 15.0946ZM9.20952 14.7021L9.20223 14.7097C9.1868 14.7024 9.16463 14.6951 9.15004 14.6802L8.97274 14.4139C8.95815 14.392 8.9503 14.3699 8.95815 14.3405C9.03951 14.4661 9.12115 14.5844 9.20952 14.7021ZM13.802 15.7142C14.1339 15.574 14.4072 15.375 14.6577 15.1456C14.695 15.1086 14.7317 15.0719 14.7761 15.0419C15.0864 14.8501 15.3147 14.5841 15.5218 14.2886C15.758 13.9488 15.9131 13.5647 16.1053 13.2028C16.1183 13.1748 16.133 13.1477 16.1493 13.1215C16.1345 13.9637 16.2307 14.791 16.3412 15.6259C15.5072 15.6553 14.658 15.6847 13.8017 15.7145L13.802 15.7142ZM21.2878 15.4927C21.2805 15.5076 21.2653 15.5224 21.2583 15.5376C21.2507 15.5224 21.2507 15.5003 21.2434 15.4703C21.1991 15.5889 21.1032 15.5297 21.0367 15.5297C20.6383 15.5373 20.2321 15.5373 19.8332 15.5373C19.4494 15.5373 19.0583 15.5373 18.6745 15.544C18.5488 15.544 18.4158 15.5734 18.2902 15.581C17.9877 15.5956 17.685 15.6034 17.3823 15.6104C17.3599 15.6104 17.338 15.574 17.301 15.5443C17.288 15.5676 17.2731 15.5898 17.2566 15.6107C17.2488 15.5961 17.2342 15.5816 17.2193 15.5594C17.212 15.5819 17.2045 15.6037 17.1969 15.6183H17.1756C17.1607 15.5151 17.1312 15.4192 17.1312 15.3155C17.1312 15.094 17.1537 14.8726 17.1607 14.6505C17.1683 14.5474 17.1607 14.4515 17.1607 14.355C17.1904 14.3775 17.2126 14.3923 17.2421 14.4139C17.2566 14.385 17.2715 14.3629 17.2864 14.341C17.2864 14.341 17.2715 14.3332 17.2566 14.3186C17.2707 14.311 17.2858 14.2962 17.2858 14.2889C17.2931 14.2664 17.3083 14.2446 17.3083 14.23C17.3083 14.1781 17.2931 14.1338 17.2858 14.0898C17.2931 14.0898 17.3004 14.0898 17.3083 14.082L17.3523 14.3034H17.3747C17.345 14.2521 17.441 14.2076 17.3599 14.1487C17.3526 14.1411 17.3672 14.0968 17.3672 14.0747C17.3447 14.0307 17.3307 13.9864 17.3083 13.9272C17.3156 13.9199 17.3377 13.9124 17.3599 13.9048C17.3304 13.8902 17.3083 13.8756 17.2861 13.8683C17.3599 13.8016 17.3599 13.7646 17.2934 13.6909C17.3085 13.6839 17.3231 13.6839 17.3231 13.6769C17.3231 13.6101 17.3231 13.5437 17.3085 13.4778C17.2937 13.4032 17.331 13.3152 17.2199 13.2704C17.2272 13.2928 17.2348 13.3074 17.2493 13.3292C17.2493 13.3292 17.2269 13.3368 17.205 13.3517C17.1091 13.2628 17.1686 13.1442 17.1461 13.0116C17.1977 13.0264 17.2348 13.0413 17.2715 13.0564C17.2566 13.0043 17.2199 12.9451 17.1977 12.8787H17.1677V12.3909C17.1677 12.3985 17.2193 12.3985 17.2491 12.406C17.2491 12.3985 17.2561 12.3912 17.2561 12.3836C17.2336 12.3542 17.2042 12.3247 17.1747 12.2877L17.1896 12.2729C17.1307 12.1994 17.1601 12.0962 17.1601 12.0738V11.5566C17.2342 11.6306 17.1237 11.7265 17.2342 11.7708V11.697H17.2266C17.2193 11.5863 17.2193 11.4755 17.212 11.3645H17.1974C17.1899 11.3797 17.1899 11.387 17.1823 11.4018H17.1677L17.212 9.63616C17.2858 9.73204 17.3669 9.82119 17.4185 9.91651C17.5885 10.2271 17.8099 10.4932 18.0166 10.7738C18.1939 11.0177 18.3561 11.2835 18.5188 11.5347C18.718 11.8375 18.9099 12.1403 19.1094 12.443C19.2569 12.6724 19.4123 12.9014 19.5666 13.1232C19.7069 13.3222 19.855 13.5145 20.0026 13.7069C20.1277 13.8768 20.2607 14.0466 20.3861 14.2165C20.534 14.4234 20.6815 14.6301 20.8294 14.8297C20.9029 14.9328 20.9842 15.0363 21.065 15.1397C21.1099 15.1986 21.1761 15.2435 21.2204 15.2799C21.2134 15.2799 21.2059 15.2799 21.1913 15.2726C21.2137 15.3021 21.2277 15.3242 21.2429 15.3391C21.3242 15.3834 21.3315 15.4277 21.2872 15.4944L21.2878 15.4927ZM21.6643 13.6463V13.5944C21.6643 13.609 21.6716 13.6312 21.6643 13.6463ZM21.9154 10.3886C21.9078 10.3886 21.8637 10.3438 21.8564 10.3365C21.8489 10.3589 21.8564 10.3808 21.8416 10.4105C21.834 10.3886 21.7827 10.3959 21.7827 10.374C21.7751 10.4772 21.8267 10.5807 21.8191 10.6841C21.8416 10.6693 21.9299 10.6617 21.9521 10.6398C21.9597 10.6471 21.9745 10.6544 21.9818 10.6544C21.834 10.7654 21.871 10.8759 21.9375 11.002C21.9521 11.0312 21.9964 11.0903 21.9521 11.1495C21.9375 11.1644 21.9597 11.2084 21.967 11.2457H21.9886V11.2597L21.9221 11.2821C21.9075 11.2597 21.8191 11.2159 21.8191 11.1784V11.5557C21.8929 11.5782 21.8929 11.6813 21.9224 11.7332C21.9353 11.7152 21.9454 11.6953 21.9524 11.6743L21.96 11.681C21.9524 11.7253 21.9451 11.7696 21.9302 11.8142C21.9156 11.8804 21.9008 11.9395 21.8937 12.006C21.8937 12.0133 21.9078 12.0284 21.9078 12.0354C21.827 12.2204 21.8713 12.4268 21.8418 12.6185C21.8194 12.7587 21.8418 12.9073 21.827 13.0548C21.8118 13.1804 21.7821 13.3132 21.7529 13.4388C21.7453 13.4613 21.7305 13.4683 21.694 13.4831C21.7086 13.3945 21.7013 13.3354 21.6864 13.2541C21.6786 13.2541 21.5826 13.2025 21.5751 13.2025C21.5751 13.3062 21.634 13.4464 21.6564 13.5642C21.634 13.5569 21.5456 13.5053 21.5386 13.5053C21.5234 13.5939 21.5234 13.7122 21.5161 13.8081C21.5086 13.8821 21.4424 13.9482 21.4348 14.0295C21.4348 14.0744 21.4864 14.1036 21.4791 14.1776H21.538C21.538 14.0301 21.6048 13.8972 21.6048 13.7419H21.6267C21.6342 13.7568 21.6564 13.7716 21.6491 13.7789C21.6342 13.8602 21.6042 13.9488 21.6121 14.0301C21.6121 14.0744 21.6486 14.1187 21.6345 14.1703C21.6194 14.2151 21.6121 14.2592 21.6045 14.3256C21.5969 14.2886 21.5896 14.274 21.5896 14.2519C21.5823 14.2519 21.5159 14.2443 21.5083 14.2443C21.501 14.2886 21.5602 14.3329 21.5526 14.3699C21.5453 14.3772 21.538 14.3772 21.5232 14.3847L21.2796 14.0298C21.0872 13.7495 20.8953 13.4683 20.7034 13.1804C20.6536 13.1099 20.6091 13.0359 20.5701 12.9589C20.3418 12.5657 20.0878 12.188 19.8099 11.8282C19.5961 11.5552 19.4255 11.2591 19.2263 10.9718C19.0423 10.6984 18.8577 10.4324 18.6731 10.1587C18.6066 10.0704 18.5255 9.98912 18.4663 9.89296C18.2747 9.59018 18.1044 9.27983 17.9131 8.97705C17.7504 8.72557 17.5737 8.48167 17.4036 8.23804C17.3447 8.15674 17.2858 8.06787 17.2263 7.97928C17.2171 7.96384 17.2121 7.94625 17.2118 7.92826C17.1969 7.76565 17.182 7.60305 17.1747 7.44801C17.1747 7.30027 17.1896 7.15252 17.1896 6.99721V6.86432C17.1896 6.82732 17.1966 6.79788 17.1966 6.76059C17.2036 6.75358 17.2112 6.73872 17.2185 6.73144C17.0044 6.73144 16.7828 6.72359 16.5687 6.73144C16.4285 6.73844 16.3547 6.67929 16.2587 6.57584C15.9782 6.2582 15.7714 5.89627 15.5279 5.55648C15.2983 5.23319 15.0645 4.91291 14.8266 4.59572C14.6344 4.33723 14.4422 4.08604 14.2506 3.82756C14.0363 3.53206 13.8298 3.23657 13.6082 2.94108C13.3397 2.58485 13.0689 2.23029 12.796 1.87743C12.6697 1.71483 12.5295 1.55979 12.3892 1.38962C12.4854 1.40476 12.5744 1.41934 12.6627 1.42691L13.0173 1.44933C13.283 1.47092 13.5487 1.48578 13.8141 1.52223C14.0357 1.55222 14.2573 1.59652 14.4863 1.63324C14.9739 1.71455 15.4536 1.84771 15.9187 2.00275C16.192 2.09134 16.4574 2.20965 16.7239 2.32039C17.3214 2.56429 17.8901 2.85978 18.4512 3.16985C18.6279 3.26601 18.7317 3.42105 18.8642 3.5615C19.0563 3.76111 19.2485 3.96044 19.4328 4.16706C19.6466 4.41097 19.8458 4.66216 20.0528 4.91336C20.2371 5.13483 20.4287 5.35631 20.6139 5.57835C20.6728 5.64479 20.7177 5.72609 20.7688 5.79983C20.8866 5.97729 21.0199 6.14746 21.1231 6.33922C21.1966 6.47996 21.2409 6.64256 21.2925 6.7976C21.366 7.02665 21.4401 7.24812 21.5142 7.47717C21.5655 7.64706 21.6096 7.82481 21.6466 8.00143C21.6763 8.12002 21.669 8.24533 21.7055 8.36308C21.7504 8.51896 21.7055 8.68829 21.7504 8.84388C21.7574 8.85874 21.7644 8.88089 21.7723 8.89575C21.8017 8.92491 21.8239 8.95462 21.7796 8.99892C21.7726 9.00621 21.7726 9.03536 21.7796 9.05779C21.7947 9.04321 21.802 9.02835 21.8169 9.00621C21.8169 9.02107 21.8239 9.02864 21.8239 9.03564C21.8239 9.0648 21.8163 9.09452 21.8239 9.12395C21.8239 9.13853 21.8385 9.1604 21.8458 9.17554C21.8606 9.1604 21.8752 9.15311 21.9047 9.13068C21.9712 9.38216 21.9788 9.63335 21.9788 9.89184C21.9788 10.1357 22.0228 10.3796 21.9198 10.616C21.9417 10.5347 21.8901 10.4604 21.9123 10.3867L21.9154 10.3886Z" fill="#DD3A0A"/>
<path fill-rule="evenodd" clip-rule="evenodd" d="M17.1982 13.2616C17.2052 13.2616 17.2128 13.2692 17.2128 13.2692L17.2052 13.2607C17.2052 13.2537 17.2052 13.2537 17.1979 13.2607L17.1982 13.2616ZM18.3644 20.5608C18.2831 20.6197 18.2017 20.6715 18.0985 20.6937C18.0906 20.6864 18.0906 20.6788 18.0833 20.6713C18.1647 20.6197 18.2531 20.5681 18.3344 20.5162C18.342 20.5303 18.3569 20.5454 18.3642 20.5602L18.3644 20.5608ZM4.52186 10.55C4.60321 10.4471 4.68457 10.3437 4.77266 10.2402C4.77967 10.2475 4.83859 10.2627 4.84616 10.2697C4.76481 10.3734 4.65399 10.5136 4.57291 10.6243C4.55776 10.6095 4.5356 10.5579 4.52101 10.5503L4.52186 10.55ZM2.42479 14.1708C2.36588 14.0452 2.30696 13.912 2.24805 13.7867C2.26859 13.7737 2.29088 13.7637 2.31426 13.757C2.39561 13.8747 2.43208 14.0149 2.49156 14.141C2.49156 14.141 2.43264 14.1705 2.42507 14.1705L2.42479 14.1708ZM4.3078 10.6243C4.26347 10.691 4.21915 10.7651 4.17482 10.8318C4.16753 10.8239 4.08617 10.8609 4.07888 10.8536C4.1232 10.7872 4.23374 10.6686 4.27806 10.6024C4.28564 10.6097 4.29293 10.6173 4.3078 10.6249V10.6243ZM17.5747 20.8641C17.5817 20.8641 17.5817 20.8569 17.5893 20.8569C17.6409 20.8641 17.6998 20.8714 17.759 20.8714C17.6625 20.9379 17.6033 20.9303 17.5739 20.8641H17.5747ZM4.32183 10.9347C4.32968 10.9122 4.34427 10.8904 4.35914 10.8682C4.37373 10.8682 4.39561 10.8607 4.39561 10.8607C4.42563 10.8091 4.42563 10.7721 4.45509 10.7278C4.44779 10.7205 4.44022 10.7205 4.43264 10.7129C4.3886 10.7432 4.34427 10.7802 4.29994 10.8096C4.31481 10.8242 4.31481 10.8321 4.31481 10.8466C4.2559 10.8391 4.23346 10.8691 4.204 10.9498C4.1967 10.9722 4.15967 10.9795 4.12264 11.0087C4.11535 11.0238 4.10805 11.0608 4.09318 11.0975L4.10076 11.1054C4.08589 11.1203 4.06373 11.1278 4.06373 11.1278C4.0194 11.1718 3.96778 11.2091 3.92345 11.2531C3.91616 11.2756 3.90887 11.2974 3.90887 11.3196C3.96077 11.268 4.04914 11.1718 4.11563 11.1127L4.1232 11.1203C4.15266 11.076 4.17482 11.0317 4.20456 10.9874C4.21157 10.9947 4.21157 11.0019 4.21915 11.0098C4.1967 11.0687 4.17482 11.1348 4.15266 11.194C4.13723 11.2013 4.11507 11.2164 4.11507 11.2088C4.08561 11.2313 4.06345 11.2604 4.03371 11.2826L3.90101 11.3712C3.82723 11.4376 3.75345 11.4965 3.67209 11.5632C3.62047 11.6445 3.56885 11.7182 3.50937 11.8144C3.5983 11.792 3.62047 11.8293 3.61317 11.9033C3.71641 11.9179 3.72399 11.8368 3.75345 11.7777C3.76074 11.7625 3.76831 11.7328 3.7829 11.7255C3.84939 11.6667 3.92317 11.6151 3.99696 11.5559C4.01183 11.5411 4.01183 11.5111 4.01183 11.4892C4.01183 11.4819 3.97451 11.4819 3.95235 11.4743C4.01884 11.4003 4.11507 11.2753 4.18127 11.194C4.21831 11.1716 4.25506 11.1418 4.25506 11.1197C4.24776 11.0384 4.29938 11.0165 4.35886 10.9868C4.32912 10.9644 4.32155 10.9428 4.32155 10.9355L4.32183 10.9347Z" fill="#DD3735"/>
<path fill-rule="evenodd" clip-rule="evenodd" d="M4.46956 10.8535C4.4401 10.9051 4.41065 10.9494 4.38119 11.0013L4.33686 10.9788C4.30741 11.1485 4.20388 11.2962 4.10064 11.3256C4.1301 11.3405 4.15956 11.3554 4.182 11.3481C4.20388 11.3405 4.21847 11.3032 4.23334 11.2813L4.43253 10.9931L4.4993 10.8821L4.46984 10.8527L4.46956 10.8535ZM2.01143 14.0966C2.04847 14.0966 2.0855 14.1039 2.12926 14.1039C2.12926 14.0745 2.16657 14.0815 2.16657 14.0523H2.18902C2.18902 14.0893 2.19631 14.1188 2.19631 14.1561H2.04145C2.03388 14.1485 2.00414 14.1039 2.01143 14.0966ZM1.95252 13.7568C1.93008 13.7344 1.89361 13.7126 1.89361 13.6904C1.88603 13.6612 1.90819 13.6245 1.93008 13.5875C1.94523 13.6391 1.95252 13.6834 1.96711 13.7353C1.95953 13.7423 1.95224 13.7498 1.95224 13.7571L1.95252 13.7568ZM2.13712 13.2839C2.16657 13.3585 2.19603 13.4398 2.22577 13.5138C2.20483 13.5207 2.18499 13.5306 2.16686 13.5432C2.1374 13.4692 2.10037 13.3879 2.07091 13.3142C2.09085 13.2999 2.11347 13.2898 2.1374 13.2845L2.13712 13.2839ZM18.5714 20.3471C18.6078 20.3325 18.6522 20.3246 18.7116 20.3106C18.6449 20.3619 18.5933 20.3989 18.5489 20.4432C18.5414 20.4359 18.5341 20.4284 18.5265 20.4284C18.5414 20.3989 18.5562 20.3768 18.5714 20.3471ZM9.49691 4.73682C9.54095 4.7071 9.57826 4.68495 9.62231 4.65552L9.6369 4.6701C9.59201 4.72897 9.55554 4.78784 9.50364 4.86214C9.49634 4.81083 9.49634 4.78083 9.48877 4.74439C9.48148 4.74439 9.48877 4.74439 9.49634 4.7371L9.49691 4.73682ZM11.6599 8.47474C11.7264 8.44503 11.7929 8.41587 11.874 8.37858C11.8667 8.42288 11.8667 8.4526 11.8667 8.48231C11.8428 8.47369 11.8179 8.46859 11.7926 8.46718C11.7483 8.47474 11.6669 8.5339 11.6299 8.54119C11.6229 8.54119 11.6599 8.48231 11.6599 8.47474ZM17.1978 14.7395C17.2124 14.8132 17.3527 14.8502 17.2124 14.9239C17.2349 14.9394 17.2565 14.9464 17.2786 14.9615C17.2786 14.9691 17.2713 14.9839 17.264 14.9912C17.2492 14.9982 17.2197 15.0131 17.2051 15.0053C17.1976 15.0053 17.1827 14.9761 17.1827 14.9612C17.1827 14.8948 17.1903 14.8283 17.1976 14.7398L17.1978 14.7395Z" fill="#DD3735"/>
</g>
<defs>
<clipPath id="clip0_80_1072">
<rect width="22.163" height="22.163" fill="white" transform="translate(0.903809 0.362915)"/>
</clipPath>
</defs>
</svg>
