<svg width="28" height="27" viewBox="0 0 28 27" fill="none" xmlns="http://www.w3.org/2000/svg">
<path d="M23.2445 11.7901C23.4675 10.8477 23.192 9.73681 21.8186 8.53088C19.5862 10.4555 20.2244 12.4567 20.963 13.4198C20.963 13.4198 20.8684 13.963 18.6816 13.963C16.4948 13.963 1.57044 13.963 1.57044 13.963C1.57044 13.963 0.52495 22.6543 10.6964 22.6543C19.5902 22.6543 22.0884 16.1342 22.576 14.4649C22.778 14.491 23.0044 14.5078 23.2445 14.5062C24.4691 14.497 26.0564 13.8701 26.6667 11.5272C25.048 10.9933 24.0082 11.235 23.2445 11.7901Z" fill="#03A9F4"/>
<path d="M1.66455 16.1357C2.08377 18.71 3.84222 22.6543 10.6964 22.6543C17.6463 22.6543 20.691 18.6725 21.9224 16.1357H1.66455Z" fill="#0288D1"/>
<path d="M11.7297 22.6206C11.205 22.4457 8.83682 22.0285 8.41475 18.8518C6.01406 19.8638 3.88715 19.5987 2.95117 19.3994C4.18431 21.1534 6.47036 22.6543 10.6962 22.6543C11.0516 22.6543 11.3944 22.6412 11.7297 22.6206Z" fill="#81D4FA"/>
<path d="M10.6964 17.2222C10.3939 17.2222 10.1037 17.3366 9.88978 17.5404C9.67585 17.7441 9.55566 18.0205 9.55566 18.3086C9.55566 18.5967 9.67585 18.8731 9.88978 19.0768C10.1037 19.2805 10.3939 19.395 10.6964 19.395C10.9989 19.395 11.2891 19.2805 11.503 19.0768C11.717 18.8731 11.8371 18.5967 11.8371 18.3086C11.8371 18.0205 11.717 17.7441 11.503 17.5404C11.2891 17.3366 10.9989 17.2222 10.6964 17.2222Z" fill="white"/>
<path d="M8.93608 19.1761C9.06384 19.4504 8.94748 19.8073 8.64519 19.892C6.76239 20.4206 5.13969 20.4906 3.91282 20.4906C3.54551 20.1544 3.2318 19.7959 2.96829 19.4243C4.4427 19.4243 6.79548 19.3591 8.18376 18.8996C8.48149 18.8007 8.80831 18.9007 8.93608 19.1761ZM1.57031 15.5925C1.57031 15.5925 2.63976 15.6604 3.28142 15.0493C4.35087 15.9663 6.66942 15.6403 7.27402 15.0493C7.88032 15.9663 11.2312 15.7962 11.837 15.0493C12.5499 15.8305 15.6157 15.9999 16.3999 15.0493C16.6731 15.8429 20.2893 16.0673 20.9629 15.0493C21.5681 15.6403 23.8507 16.1021 25.1329 15.0493C25.4546 15.6946 26.6666 15.5925 26.6666 15.5925V16.1357H1.57031M10.1259 18.3086C10.1259 18.6084 10.3814 18.8518 10.6962 18.8518C11.0111 18.8518 11.2666 18.6084 11.2666 18.3086C11.2666 18.0087 11.0111 17.7654 10.6962 17.7654C10.3814 17.7654 10.1259 18.0087 10.1259 18.3086Z" fill="#37474F"/>
<path d="M6.7039 13.963H3.85205V11.2469H6.7039V13.963ZM12.4076 11.2469H9.55575V13.963H12.4076V11.2469ZM18.1113 11.2469H15.2595V13.963H18.1113V11.2469ZM9.55575 8.53088H6.7039V11.2469H9.55575V8.53088ZM15.2595 8.53088H12.4076V11.2469H15.2595V8.53088Z" fill="#01579B"/>
<path d="M9.55547 13.963H6.70361V11.2469H9.55547V13.963ZM15.2592 11.2469H12.4073V13.963H15.2592V11.2469ZM15.2592 5.81482H12.4073V8.53087H15.2592V5.81482ZM12.4073 8.53087H9.55547V11.2469H12.4073V8.53087Z" fill="#0288D1"/>
</svg>
