<svg width="25" height="24" viewBox="0 0 25 24" fill="none" xmlns="http://www.w3.org/2000/svg">
<g clip-path="url(#clip0_80_897)">
<path d="M23.2834 17.2444H21.8167C21.3104 17.2444 20.9001 16.8341 20.9001 16.3278C20.9001 15.8214 21.3104 15.4111 21.8167 15.4111H22.7334C23.5434 15.4111 24.2001 14.7544 24.2001 13.9444C24.2001 13.1345 23.5434 12.4778 22.7334 12.4778H21.4501C20.7413 12.4778 20.1667 11.9032 20.1667 11.1944C20.1667 10.4857 20.7413 9.91108 21.4501 9.91108H22.5501C23.4612 9.91108 24.2001 9.17225 24.2001 8.26108C24.2001 7.34992 23.4612 6.61108 22.5501 6.61108H18.1501C17.6437 6.61108 17.2334 6.20078 17.2334 5.69442C17.2334 5.18805 17.6437 4.77775 18.1501 4.77775H19.0667C20.0791 4.77775 20.9001 3.95678 20.9001 2.94442C20.9001 1.93205 20.0791 1.11108 19.0667 1.11108H3.66673C2.65437 1.11108 1.8334 1.93205 1.8334 2.94442C1.8334 3.95678 2.65437 4.77775 3.66673 4.77775H4.95007C5.65883 4.77775 6.2334 5.35232 6.2334 6.06108C6.2334 6.76985 5.65883 7.34442 4.95007 7.34442H2.20007C1.3901 7.34442 0.733398 8.00112 0.733398 8.81108C0.733398 9.62105 1.3901 10.2778 2.20007 10.2778L5.50007 10.2961C5.86673 10.2961 6.2334 10.7508 6.2334 11.1944C6.2334 11.6377 5.86673 12.0928 5.50007 12.0928L2.3834 12.1111C1.47223 12.1111 0.733398 12.8499 0.733398 13.7611C0.733398 14.6448 1.4297 15.3598 2.30237 15.403L2.30493 15.4111H2.75007C3.25643 15.4111 3.66673 15.8214 3.66673 16.3278C3.66673 16.8077 3.2964 17.1971 2.82633 17.2367L2.82853 17.2444H2.56673C1.95917 17.2444 1.46673 17.7369 1.46673 18.3444C1.46673 18.952 1.95917 19.4444 2.56673 19.4444H6.2334C6.63857 19.4444 6.96673 19.7726 6.96673 20.1778C6.96673 20.5829 6.63857 20.9111 6.2334 20.9111H3.85007C3.3437 20.9111 2.9334 21.3214 2.9334 21.8278C2.9334 22.3341 3.3437 22.7444 4.21673 22.7444H21.8167C21.9564 22.7444 22.3667 22.3341 22.3667 21.8278C22.3667 21.3214 21.9564 20.9111 21.4501 20.9111H18.8834C18.377 20.9111 17.9667 20.5008 17.9667 19.9944C17.9667 19.4881 18.377 19.0778 18.8834 19.0778H23.2834C23.7898 19.0778 24.2001 18.6675 24.2001 18.1611C24.2001 17.6547 23.7898 17.2444 23.2834 17.2444Z" fill="url(#paint0_radial_80_897)"/>
<path d="M8.80004 3.31108L8.6156 3.17432L8.43337 3.31108V3.67775L8.6167 3.69352C8.6167 3.69352 8.60497 3.86512 8.6167 3.88455C8.62844 3.90398 8.48397 4.21235 8.48397 4.21235L8.35527 4.72715L7.9886 4.97612L8.26947 4.95338L8.25297 5.17998L7.49507 5.53602L7.43457 6.02112L8.0139 7.97508L8.2922 8.70182L8.84624 9.58328L9.38524 10.3551L10.0757 11.0566L10.695 11.5153L11.5079 11.974L12.5019 12.2394L14.175 12.3971L15.3879 12.2721L17.3771 11.8431L17.5058 11.7202C17.5058 11.7202 17.3712 11.6231 17.3419 11.6194C17.3126 11.6157 16.2771 11.6194 16.2771 11.6194L15.4697 11.5952L14.586 11.4955L13.7731 11.1141L12.6889 10.4196L11.9585 9.67422L11.5717 8.97682L11.2728 8.36595L11.0092 7.18565L10.9443 5.51328L10.923 5.36442L11.2648 4.99848L11.1064 4.88115L9.54107 4.22335L9.29247 3.91242L8.8411 3.81525L8.80004 3.31108Z" fill="url(#paint1_linear_80_897)"/>
<path d="M10.3872 11.3867C9.99337 11.0769 9.57317 10.7799 9.28607 10.3615C8.68181 9.6238 8.21687 8.7702 7.89897 7.8726C7.70684 7.28924 7.64084 6.66334 7.39334 6.10234C7.1341 5.69497 7.4377 5.24947 7.88394 5.12004C8.08267 5.0819 8.43211 4.89454 8.01044 5.02837C7.63241 5.30594 7.59574 4.77647 7.9833 4.7431C8.24804 4.7079 8.3452 4.4912 8.25464 4.2965C7.97047 4.11134 8.94324 3.90784 8.45374 3.63137C7.94371 3.08174 9.16691 2.97577 8.86514 3.60057C8.7929 4.0809 9.71984 3.51257 9.5046 4.06734C9.72314 4.3339 10.323 4.12784 10.3083 4.50184C10.6266 4.52384 10.7359 4.7915 11.0351 4.81204C11.3449 4.9521 11.9063 5.0621 12.0119 5.41117C11.7046 5.65464 10.9929 4.90847 10.9588 5.58204C11.0516 6.57717 11.0281 7.602 11.3922 8.54947C11.5645 9.1233 11.9818 9.57467 12.3587 10.0216C12.7195 10.4594 13.2079 10.7674 13.7059 11.0267C14.1426 11.2327 14.6137 11.3695 15.0897 11.4549C15.2829 11.3072 15.6235 10.7583 15.9249 10.9896C15.9392 11.25 15.3269 11.5334 15.896 11.5048C16.23 11.404 16.4617 11.7633 16.7371 11.4392C16.9905 11.7395 17.7909 11.2474 17.6105 11.8612C17.3667 12.0185 17.011 11.9235 16.7664 12.1399C16.3635 11.9386 16.043 12.3199 15.5971 12.2715C15.1018 12.3602 14.598 12.3962 14.096 12.3969C13.2725 12.332 12.431 12.3045 11.6474 12.0178C11.2059 11.8898 10.7751 11.6383 10.3872 11.3867ZM11.0827 11.6881C11.5139 11.8744 11.9352 12.0709 12.4075 12.1303C13.157 12.2345 13.931 12.3951 14.683 12.2488C14.3428 12.0951 13.9908 12.3085 13.6516 12.1388C13.245 12.2264 12.8083 12.1164 12.395 12.0625C11.925 11.8531 11.4175 11.709 10.9771 11.437C10.4268 11.236 11.2617 11.6947 11.4102 11.7318C11.7541 11.9268 11.0318 11.6317 10.9302 11.5506C10.642 11.3889 10.6053 11.4227 10.9016 11.5869C10.961 11.6218 11.02 11.6584 11.0827 11.6881ZM10.2625 11.1088C10.6801 11.2635 10.2607 10.8151 10.0693 10.8411C9.98457 10.6941 9.74514 10.601 9.91417 10.5221C9.61057 10.6274 9.59627 10.1214 9.45364 10.1936C9.13244 10.092 9.32861 9.73307 8.94617 9.51234C8.91134 9.27987 8.56631 9.0782 8.45594 8.72767C8.40717 8.54837 8.06617 8.03284 8.27554 8.51244C8.45411 8.97407 8.76797 9.3697 9.0294 9.7646C9.23217 10.1408 9.47197 10.5339 9.84157 10.7682C9.96624 10.8881 10.0865 11.071 10.2625 11.1088ZM12.1028 11.8854C12.274 11.9932 13.1016 12.1219 12.5835 11.9298C12.4966 11.9481 11.6217 11.6823 12.1028 11.8854ZM10.2115 10.3502C10.4121 10.5042 11.0211 10.37 10.5188 10.2581C10.2904 10.1364 9.7752 10.0528 10.1261 10.3315L10.2115 10.3502ZM11.1836 10.865C11.6745 11.0039 10.7707 10.5544 11.0626 10.814L11.1271 10.8433L11.1836 10.865ZM12.0339 11.3567C12.4988 11.3611 11.614 11.2925 12.0339 11.3567ZM11.1876 10.605C11.544 10.6508 10.7634 10.3626 11.1095 10.5793L11.1876 10.605ZM12.4269 11.3669C12.7599 11.1678 12.6502 11.833 12.9916 11.423C13.3286 11.177 12.7005 11.7274 13.1159 11.467C13.4162 11.2661 13.8599 11.5624 14.1404 11.6588C14.342 11.6489 14.5378 11.833 14.7446 11.7211C15.1425 11.6141 13.9669 11.5624 14.2749 11.3721C13.9108 11.478 13.6421 11.2459 13.4631 11.0127C13.055 10.9185 12.5828 10.7099 12.3793 10.3483C12.296 10.2127 12.4992 10.3674 12.3074 10.1456C12.0614 9.92667 11.9385 9.67844 11.7735 9.41224C11.5763 9.307 11.5532 8.99717 11.5334 9.40197C11.5348 9.14677 11.295 8.9748 11.2367 9.0463C11.2356 8.80027 11.4934 8.92347 11.313 8.7416C11.2741 8.48677 11.1465 8.22094 11.108 7.9331C11.0483 7.7945 11.0996 7.49714 10.9042 7.81137C10.833 8.1432 10.8807 7.40364 10.9911 7.64747C11.1363 7.3985 10.939 7.42784 10.9309 7.4623C11.0255 7.2522 10.9907 6.95447 10.9064 7.06814C10.9566 6.84557 10.9859 6.249 10.8308 6.3546C10.9247 6.12177 11.009 5.28944 10.6009 5.60697C10.4356 5.60917 10.1492 5.6671 10.0135 5.7342C10.4381 5.96814 9.97101 5.81854 9.79794 5.7815C9.77557 5.9982 9.60434 5.90434 9.39057 5.90654C9.73231 5.9487 9.2241 6.25597 9.0283 6.13644C8.77384 6.25817 9.24794 6.56177 9.03344 6.65564C9.05984 6.79717 8.64367 6.60467 8.67631 6.93137C8.42917 6.8276 8.64221 7.31894 8.76577 7.15284C9.18597 7.2665 9.06167 7.52574 9.07231 7.77214C9.00374 7.9155 8.73424 7.4348 9.01217 7.45717C8.7929 7.10077 8.76944 7.32847 8.58721 7.49384C8.54467 7.50594 9.05214 7.72924 8.73387 7.83997C9.01401 7.88324 9.02207 8.12817 9.07891 8.28327C9.24721 8.45854 9.21274 8.08967 9.41404 8.3005C9.28644 8.11277 8.739 7.77177 9.17974 7.88104C9.17754 7.6922 9.10017 7.53967 9.23511 7.54334C9.36894 7.30097 9.09504 8.14064 9.39644 7.83264C9.48004 7.79634 9.50057 7.5899 9.65054 7.85207C9.86834 8.06657 9.72937 8.22167 9.42174 8.0255C9.47674 8.21214 9.83314 8.27887 9.76604 8.57037C9.83717 8.82704 9.93617 8.73244 10.0227 8.71777C10.0905 8.9671 10.129 8.78377 10.1323 8.66497C10.4433 8.73134 10.3703 8.9154 10.4675 9.04374C10.6816 9.14054 10.1609 8.3885 10.5287 8.8175C10.9155 9.16694 10.6739 9.3125 10.3267 9.25677C10.5463 9.23917 10.6174 9.55377 10.8921 9.54277C11.1429 9.66194 11.3123 10.1199 10.8803 9.92924C10.7304 9.79394 10.2002 9.62747 10.6332 9.8845C11.0332 10.0697 11.3511 10.1808 11.7369 10.4132C12.013 10.6105 12.1321 10.836 12.237 10.8807C12.0049 10.9915 11.5378 10.7924 11.8846 10.7311C11.6683 10.6915 11.4248 10.5823 11.632 10.8518C11.8084 10.9988 12.2564 10.9834 12.3367 10.9999C12.2685 11.1499 12.1516 11.162 12.3397 11.1737C12.1307 11.2859 12.4075 11.3031 12.4269 11.3669ZM11.9983 10.1569C11.8707 10.0235 11.8377 9.77377 11.9756 9.9912C12.0463 10.0198 12.2022 10.3993 11.9983 10.1569ZM11.1814 8.81164C11.0296 8.47137 11.2888 8.62574 11.2151 8.86737L11.1814 8.81164ZM9.78291 7.8792C9.71507 7.76737 9.60251 7.43994 9.63881 7.33984C9.67144 7.50264 9.98531 8.0409 9.79281 7.56277C9.58014 7.162 10.0473 7.69294 10.0953 7.79267C10.1177 7.89204 9.96404 7.76554 10.0682 7.99874C9.87824 7.73327 9.95597 8.1454 9.78291 7.8792ZM9.0778 7.2863C8.91684 7.12644 8.8006 6.97904 9.0855 7.18694C9.19514 7.19134 8.84167 6.8518 9.11191 7.07914C9.39571 7.1312 9.25197 7.54554 9.0778 7.2863ZM9.17387 7.04137C8.706 6.6252 9.76164 7.25917 9.25014 7.11837L9.17387 7.04137ZM10.514 7.82017C10.3116 7.6988 10.4605 6.96584 10.5294 7.46707C10.7263 7.40327 10.5184 7.72594 10.6655 7.723C10.6424 7.9265 10.5767 7.99947 10.514 7.82017ZM9.26554 6.9046C8.96487 6.4899 10.1389 7.32407 9.45804 7.00984C9.38691 6.99114 9.30147 6.98454 9.26554 6.9046ZM10.2203 7.4106C10.2838 7.46854 10.1917 7.06154 10.2203 7.4106ZM9.31174 6.7462C9.49031 6.70807 10.052 7.0597 9.53614 6.84667C9.47894 6.78324 9.35684 6.8122 9.31174 6.7462ZM10.8455 7.5107C10.8646 7.15357 10.9522 7.2973 10.8462 7.56167L10.8455 7.5107ZM9.44484 6.6219C9.51744 6.5152 9.25161 6.13937 9.48334 6.48697C9.58344 6.56654 9.773 6.62007 9.60544 6.65344C9.8687 6.88627 9.5409 6.71687 9.44484 6.6219ZM10.4737 6.6505C10.5507 6.82394 10.451 6.51264 10.4737 6.6505ZM10.6086 6.43087C10.5159 6.26734 10.726 5.71 10.7494 6.0554C10.6515 6.3249 10.7212 6.4756 10.7894 6.11407C10.9159 5.8299 10.7623 6.67544 10.6086 6.43087ZM10.9936 10.4158C11.2595 10.484 11.258 10.3744 11.0178 10.3417C10.8884 10.2215 10.4807 10.0939 10.8459 10.3267C10.8701 10.3883 10.9463 10.3868 10.9936 10.4158ZM10.0498 9.7888C10.1961 9.89807 10.6017 10.0983 10.2585 9.83024C10.374 9.69567 10.037 9.62417 10.1488 9.53434C9.8643 9.36017 9.92444 9.37594 10.1239 9.38144C9.78217 9.22854 10.1734 9.24027 10.1547 9.1618C10.0231 9.13577 9.5002 8.92934 9.80784 9.17867C9.49507 9.01917 9.73341 9.23807 9.63881 9.21497C9.31907 9.1277 9.92371 9.45844 9.58821 9.3763C9.77154 9.5215 10.0817 9.74847 9.66557 9.5303C9.61057 9.60914 9.96294 9.72904 10.0498 9.7888ZM13.3718 11.7369C13.5119 11.6009 13.3777 11.9532 13.6043 11.7035C13.6069 11.5246 13.5973 11.419 13.344 11.6364C13.2739 11.6753 13.2428 11.8399 13.3718 11.7369ZM11.075 10.2625C11.2309 10.4011 11.7915 10.3641 11.2646 10.2798C11.1865 10.1643 10.7689 10.1918 11.075 10.2625ZM13.7719 11.8718C14.0377 11.5899 13.5141 11.8883 13.7719 11.8718ZM8.50544 8.53664C8.27884 8.21324 8.36464 8.06804 8.1461 7.80404C8.10467 7.602 7.77137 7.14404 7.97377 7.6295C8.15894 7.91294 8.2143 8.35257 8.50544 8.53664ZM13.9838 11.8286C14.221 11.6757 13.9292 11.6991 13.9409 11.8425L13.9838 11.8286ZM14.3644 11.932C14.6684 11.7127 14.1803 11.8902 14.3006 11.9734L14.3644 11.932ZM9.26554 8.6822C9.48847 8.73207 10.1558 9.23074 9.762 8.71667C9.56034 8.6569 9.68134 8.1641 9.47564 8.25137C9.61387 8.482 9.58931 8.58027 9.29927 8.4347C8.9348 8.25687 9.09467 8.5227 9.1658 8.59604C9.06864 8.61804 9.29414 8.68037 9.26554 8.6822ZM8.2506 7.88067C8.29057 7.71567 7.8832 6.97317 8.05847 7.5085C8.12154 7.6207 8.11494 7.83337 8.2506 7.88067ZM12.8442 10.638C12.7973 10.5188 12.6594 10.6354 12.8442 10.638ZM15.2198 11.7277C15.4402 11.683 15.9429 11.8399 16.0239 11.6694C15.7563 11.6628 15.0977 11.4806 15.0666 11.7131L15.1252 11.7222L15.2198 11.7277ZM8.35217 6.93284C8.57437 6.84557 7.94737 6.75207 8.3067 6.91634L8.35217 6.93284ZM7.65807 6.15624C7.61774 5.92597 7.62324 5.52154 8.00787 5.6583C7.49491 5.76024 8.3628 6.29594 8.25317 5.8728C8.46877 5.88344 8.67521 5.7452 8.56191 5.95494C8.98687 5.908 9.28167 5.5395 9.69234 5.5912C10.0121 5.54904 10.3619 5.51677 10.7065 5.38807C10.99 5.36754 11.2628 5.06247 11.1073 4.8817C10.7208 4.84907 10.3164 4.89747 9.88924 4.98217C9.41587 5.08044 8.98614 5.26744 8.50837 5.34774C8.04307 5.41044 8.60187 5.52007 8.46877 5.54464C8.22604 5.62897 8.75844 5.6858 8.43724 5.77454C8.23887 5.73677 8.03244 5.66857 8.11714 5.45957C7.67127 5.5175 7.2793 5.7023 7.63167 6.15624H7.65807ZM8.73241 5.60917C8.83691 5.22417 9.2923 5.92597 8.90364 5.6605C8.85744 5.6253 8.78081 5.59707 8.73241 5.60917ZM8.94434 5.42547C8.9579 5.24837 9.38287 5.51934 9.01437 5.48927L8.94434 5.42547ZM9.27324 5.27514C9.43274 5.08374 10.1756 5.15304 9.63184 5.25644C9.48627 5.1468 9.37444 5.32097 9.27324 5.27514ZM10.5184 5.12407C10.6189 4.86044 10.9089 5.01847 10.565 5.07127C10.5723 5.09914 10.5547 5.2073 10.5184 5.12407ZM8.29754 6.52217C8.5982 6.3381 7.97854 6.3623 8.29754 6.52217ZM16.9886 11.731C17.2288 11.7318 17.7161 11.6566 17.1936 11.6566C17.1118 11.6694 16.7158 11.6669 16.9886 11.731ZM8.71517 6.47597C8.9095 6.46277 9.01914 6.26147 8.67741 6.2732C8.14794 6.2182 9.14454 6.45434 8.60957 6.38687C8.5377 6.43454 8.71114 6.4888 8.71517 6.47597ZM8.4431 4.94074C8.78997 4.82267 9.26444 4.6903 9.42797 4.99867C9.26114 4.7981 9.36087 4.60047 9.51817 4.8938C9.74074 5.19044 9.85221 4.75887 9.70737 4.65914C9.87237 4.8641 10.0601 4.9609 9.81774 4.67197C10.081 4.35554 9.29084 4.7134 9.11117 4.70974C9.025 4.74897 8.21944 4.9158 8.4431 4.94074ZM8.64624 4.55134C8.84387 4.4021 9.33044 4.64007 9.0184 4.40284C8.98797 4.37607 8.33494 4.58287 8.64624 4.55134ZM9.36747 4.58104C9.59884 4.5869 9.26774 4.2701 9.54347 4.41347C9.49801 4.26534 9.22227 4.23784 9.08734 4.17844C9.01107 4.3141 9.24281 4.58287 9.36747 4.58104ZM9.06754 3.99694C9.44044 3.94744 8.97257 3.83634 8.99237 3.9929L9.06754 3.99694ZM8.51717 3.56647C8.25464 3.22364 9.01107 3.62404 8.74414 3.26507C8.51974 3.08614 8.30377 3.46637 8.51717 3.56647Z" fill="url(#paint2_linear_80_897)"/>
<path d="M7.60455 13.0757C7.56129 13.2455 7.53489 13.5308 7.52462 13.9315C7.52462 14.01 7.48905 14.0496 7.41829 14.0496C7.34715 14.0496 7.29802 14.0155 7.27015 13.9469C7.19425 13.7618 7.12165 13.6327 7.05345 13.559C6.97242 13.4728 6.86462 13.4207 6.73005 13.4031C6.58559 13.3804 6.22552 13.3691 5.64985 13.3691C5.51785 13.3691 5.43169 13.383 5.39135 13.4108C5.36605 13.4284 5.35322 13.4666 5.35322 13.5249V15.2475C5.35322 15.3058 5.38989 15.3337 5.46359 15.3311C5.68909 15.3285 6.01615 15.3135 6.44479 15.2856C6.52839 15.2754 6.58485 15.2482 6.61419 15.2039C6.64352 15.1595 6.67175 15.0447 6.69962 14.8595C6.71722 14.758 6.77699 14.7188 6.87819 14.7415C6.96435 14.7591 7.00102 14.7987 6.98855 14.8595C6.91742 15.2042 6.89469 15.653 6.91999 16.2059C6.92255 16.2719 6.88075 16.3075 6.79459 16.3123C6.72345 16.32 6.67909 16.2818 6.66149 16.1982C6.59549 15.8814 6.47339 15.7121 6.29445 15.6904C6.11589 15.6688 5.82475 15.6582 5.42179 15.6582C5.37632 15.6582 5.35322 15.6746 5.35322 15.7076V17.4189C5.35322 17.5458 5.40015 17.6319 5.49402 17.6774C5.56772 17.7155 5.72612 17.7496 5.96922 17.78C6.09352 17.7929 6.14779 17.8472 6.13275 17.9436C6.11772 18.0272 6.00589 18.0602 5.79799 18.0426C5.19702 17.9945 4.70165 17.9971 4.31115 18.0503C4.20225 18.0653 4.14762 18.0209 4.14762 17.9172C4.14762 17.8512 4.20225 17.8134 4.31115 17.8031C4.55975 17.7753 4.68369 17.5571 4.68369 17.149V13.8938C4.68369 13.7266 4.65399 13.5978 4.59422 13.5076C4.53482 13.4178 4.42372 13.336 4.26129 13.2623C4.15972 13.2169 4.12195 13.1546 4.14725 13.0761C4.16009 13.0281 4.18025 13.0013 4.20812 12.9962C4.23342 12.9885 4.30052 12.9936 4.40979 13.0112C4.56965 13.0365 4.94585 13.0493 5.53912 13.0493C6.23872 13.0493 6.84336 13.0343 7.35302 13.0039C7.52279 12.9936 7.60786 13.0075 7.60786 13.0457C7.60822 13.0556 7.60712 13.0658 7.60455 13.0757Z" fill="url(#paint3_linear_80_897)"/>
<path d="M10.0763 17.9094C10.0763 18.011 10.0191 18.0554 9.90511 18.0425C9.55531 18.0095 9.12154 18.0147 8.60454 18.0576C8.50078 18.0678 8.43661 18.0653 8.41241 18.0499C8.38821 18.0348 8.37611 17.9927 8.37611 17.9245C8.37611 17.8636 8.44504 17.8123 8.58328 17.7705C8.72151 17.7287 8.79044 17.6036 8.79044 17.3957V13.9542C8.79044 13.7489 8.76074 13.5982 8.70098 13.5017C8.64158 13.4053 8.53671 13.3305 8.38711 13.2773C8.30864 13.2495 8.26904 13.2102 8.26904 13.1593C8.26904 13.0834 8.32624 13.0262 8.44028 12.988C8.61261 12.9323 8.79154 12.8461 8.97634 12.7295C9.12851 12.6382 9.22494 12.5928 9.26528 12.5928C9.35914 12.5928 9.40608 12.6573 9.40608 12.7867C9.40608 12.7765 9.40094 12.9033 9.39104 13.167C9.38334 13.4181 9.38078 13.6653 9.38334 13.9084L9.39838 17.3044C9.39838 17.4592 9.43651 17.5714 9.51241 17.641C9.58831 17.7107 9.71921 17.7569 9.90401 17.78C10.0195 17.7928 10.0763 17.8357 10.0763 17.9094Z" fill="url(#paint4_linear_80_897)"/>
<path d="M13.5449 17.6547C13.5449 17.7078 13.4481 17.7885 13.2542 17.8963C13.0602 18.0041 12.9051 18.058 12.7881 18.058C12.6891 18.058 12.6019 18.01 12.5256 17.9135C12.4497 17.8171 12.3962 17.7691 12.3657 17.7691C12.343 17.7691 12.2224 17.8211 12.0046 17.9249C11.7864 18.0287 11.5671 18.0807 11.3468 18.0807C11.1389 18.0807 10.9651 18.0199 10.8257 17.8981C10.6736 17.7639 10.5977 17.5813 10.5977 17.3503C10.5977 16.9118 11.0996 16.5972 12.1036 16.4073C12.2759 16.3743 12.3635 16.3046 12.3661 16.1983L12.3738 15.9548C12.3888 15.539 12.2051 15.3311 11.8223 15.3311C11.7134 15.3311 11.61 15.4286 11.5125 15.6241C11.415 15.8191 11.2749 15.9244 11.0923 15.9398C10.8844 15.9599 10.7806 15.8727 10.7806 15.6772C10.7806 15.5555 10.9354 15.4136 11.2445 15.2512C11.569 15.0814 11.881 14.9963 12.1798 14.9963C12.6946 14.9963 12.9495 15.2409 12.9443 15.7304L12.9293 17.2972C12.9267 17.4618 12.9964 17.5443 13.1383 17.5443C13.1662 17.5443 13.2193 17.5381 13.2982 17.5252C13.3766 17.5124 13.4225 17.5062 13.4349 17.5062C13.5083 17.5062 13.5449 17.5557 13.5449 17.6547ZM12.3738 16.7875C12.3764 16.7241 12.3617 16.6823 12.3302 16.6621C12.2986 16.6419 12.2484 16.6379 12.1798 16.6507C11.569 16.7596 11.2632 16.9587 11.2632 17.2477C11.2632 17.5392 11.4216 17.6851 11.7384 17.6851C11.8652 17.6851 11.9958 17.6609 12.13 17.6129C12.2873 17.5571 12.3657 17.49 12.3657 17.4112L12.3738 16.7875Z" fill="url(#paint5_linear_80_897)"/>
<path d="M16.3821 17.2021C16.3821 17.4709 16.2787 17.6843 16.0722 17.843C15.8654 18.0014 15.5835 18.0806 15.226 18.0806C14.9876 18.0806 14.7493 18.0553 14.511 18.0047C14.3056 17.9593 14.1865 17.9171 14.1535 17.8793C14.1333 17.8438 14.123 17.6703 14.123 17.3583C14.123 17.2241 14.1535 17.1541 14.2143 17.1493C14.2752 17.1416 14.3273 17.1746 14.3702 17.2483C14.5605 17.5805 14.867 17.7466 15.2905 17.7466C15.648 17.7466 15.8266 17.6223 15.8266 17.3741C15.8266 17.2652 15.7859 17.1739 15.7048 17.1002C15.6161 17.0166 15.4438 16.919 15.1875 16.8072C14.8171 16.6426 14.57 16.4977 14.4461 16.3738C14.3119 16.2418 14.2444 16.0643 14.2444 15.8414C14.2444 15.5675 14.3496 15.3545 14.5601 15.2027C14.7552 15.0556 15.0166 14.9819 15.3437 14.9819C15.549 14.9819 15.7367 14.9984 15.9065 15.0314C16.0891 15.0644 16.1841 15.1051 16.1918 15.1532C16.2119 15.2951 16.2537 15.5004 16.3172 15.7692C16.3249 15.8022 16.2893 15.8286 16.2108 15.8491C16.1272 15.8667 16.0715 15.8528 16.0436 15.8073C15.8434 15.4802 15.5897 15.3167 15.2832 15.3167C14.9359 15.3167 14.7621 15.4282 14.7621 15.6515C14.7621 15.7758 14.8091 15.8744 14.9029 15.9481C14.9865 16.0115 15.1831 16.1105 15.4925 16.2447C15.817 16.3841 16.0378 16.5098 16.1544 16.6213C16.3058 16.7647 16.3821 16.9586 16.3821 17.2021Z" fill="url(#paint6_linear_80_897)"/>
<path d="M20.7935 17.8869C20.7935 17.9756 20.7341 18.0225 20.6149 18.0277C20.4374 18.0302 20.2053 18.0427 19.919 18.0658C19.7771 18.0937 19.6755 18.0761 19.6146 18.0126C19.2142 17.5818 18.8743 17.1304 18.5953 16.6589C18.5726 16.6182 18.5432 16.598 18.5077 16.598C18.4644 16.598 18.3896 16.6362 18.2833 16.7121C18.1641 16.7781 18.1047 16.8719 18.1047 16.9937C18.1047 17.0798 18.1073 17.2041 18.1124 17.3662C18.1175 17.5286 18.1579 17.635 18.2341 17.6856C18.2873 17.7211 18.4105 17.749 18.603 17.7692C18.7222 17.7842 18.7816 17.8286 18.7816 17.9023C18.7816 17.9606 18.772 17.9969 18.753 18.0108C18.7339 18.0247 18.684 18.028 18.6026 18.0203C18.3493 17.9976 17.9206 18.0101 17.3171 18.0585C17.1649 18.0713 17.0824 18.0522 17.07 18.0013C17.0648 17.9837 17.0623 17.958 17.0623 17.9254C17.0623 17.8469 17.1396 17.7871 17.2944 17.7468C17.4337 17.7112 17.5034 17.5477 17.5034 17.2562V13.9324C17.5034 13.7245 17.4832 13.58 17.4425 13.499C17.3868 13.3952 17.2702 13.3138 17.0927 13.2555C17.0091 13.2276 16.9673 13.1884 16.9673 13.1374C16.9673 13.0637 17.0267 13.0069 17.1459 12.9662C17.3362 12.9028 17.5173 12.8155 17.6896 12.7037C17.829 12.6124 17.9151 12.5669 17.9481 12.5669C18.0519 12.5669 18.104 12.6329 18.104 12.7645C18.104 12.7469 18.1029 12.8723 18.1003 13.1411C18.0977 13.3263 18.0966 13.5745 18.0966 13.8865L18.1043 16.2673C18.1043 16.3333 18.1219 16.3663 18.1575 16.3663C18.1956 16.3663 18.2539 16.3333 18.3324 16.2673C18.5429 16.1027 18.8014 15.8871 19.1083 15.6209C19.1691 15.5574 19.1996 15.5068 19.1996 15.4687C19.1996 15.4001 19.0969 15.3521 18.8916 15.3242C18.8028 15.314 18.761 15.2648 18.7662 15.1761C18.7739 15.0874 18.8182 15.0492 18.8993 15.0621C19.0819 15.0874 19.3481 15.1013 19.6979 15.1039C19.9413 15.1064 20.1833 15.1075 20.4242 15.1075C20.5027 15.1101 20.5423 15.157 20.5423 15.2483C20.5423 15.3345 20.4803 15.3814 20.356 15.3891C20.161 15.3968 19.9769 15.4412 19.8046 15.5222C19.5637 15.6311 19.3063 15.8225 19.0327 16.0964C19.0126 16.1115 19.0023 16.1305 19.0023 16.1536C19.0023 16.1892 19.0456 16.2739 19.1317 16.4085C19.4485 16.8903 19.7477 17.254 20.0293 17.5C20.2094 17.6548 20.378 17.7321 20.535 17.7321C20.6516 17.7321 20.7238 17.7402 20.7517 17.7567C20.7795 17.7721 20.7935 17.8157 20.7935 17.8869Z" fill="url(#paint7_linear_80_897)"/>
</g>
<defs>
<radialGradient id="paint0_radial_80_897" cx="0" cy="0" r="1" gradientUnits="userSpaceOnUse" gradientTransform="translate(12.4667 11.9278) scale(11.2842)">
<stop stop-color="#F4E9C3"/>
<stop offset="0.219" stop-color="#F8EECD"/>
<stop offset="0.644" stop-color="#FDF4DC"/>
<stop offset="1" stop-color="#FFF6E1"/>
</radialGradient>
<linearGradient id="paint1_linear_80_897" x1="12.4707" y1="13.2892" x2="12.4707" y2="3.57362" gradientUnits="userSpaceOnUse">
<stop stop-color="#DBDEE1"/>
<stop offset="0.085" stop-color="#DEE1E4"/>
<stop offset="0.606" stop-color="#EFF1F2"/>
<stop offset="1" stop-color="#F5F6F7"/>
</linearGradient>
<linearGradient id="paint2_linear_80_897" x1="12.4669" y1="1.75844" x2="12.4669" y2="10.51" gradientUnits="userSpaceOnUse">
<stop stop-color="#A4A4A4"/>
<stop offset="0.619" stop-color="#808080"/>
<stop offset="1" stop-color="#6F6F6F"/>
</linearGradient>
<linearGradient id="paint3_linear_80_897" x1="5.87425" y1="9.45855" x2="5.87425" y2="18.7521" gradientUnits="userSpaceOnUse">
<stop stop-color="#A4A4A4"/>
<stop offset="0.619" stop-color="#808080"/>
<stop offset="1" stop-color="#6F6F6F"/>
</linearGradient>
<linearGradient id="paint4_linear_80_897" x1="9.17324" y1="9.45851" x2="9.17324" y2="18.752" gradientUnits="userSpaceOnUse">
<stop stop-color="#A4A4A4"/>
<stop offset="0.619" stop-color="#808080"/>
<stop offset="1" stop-color="#6F6F6F"/>
</linearGradient>
<linearGradient id="paint5_linear_80_897" x1="12.0713" y1="9.45857" x2="12.0713" y2="18.7521" gradientUnits="userSpaceOnUse">
<stop stop-color="#A4A4A4"/>
<stop offset="0.619" stop-color="#808080"/>
<stop offset="1" stop-color="#6F6F6F"/>
</linearGradient>
<linearGradient id="paint6_linear_80_897" x1="15.2524" y1="9.45847" x2="15.2524" y2="18.752" gradientUnits="userSpaceOnUse">
<stop stop-color="#A4A4A4"/>
<stop offset="0.619" stop-color="#808080"/>
<stop offset="1" stop-color="#6F6F6F"/>
</linearGradient>
<linearGradient id="paint7_linear_80_897" x1="18.8806" y1="9.45866" x2="18.8806" y2="18.7522" gradientUnits="userSpaceOnUse">
<stop stop-color="#A4A4A4"/>
<stop offset="0.619" stop-color="#808080"/>
<stop offset="1" stop-color="#6F6F6F"/>
</linearGradient>
<clipPath id="clip0_80_897">
<rect width="23.4667" height="23.4667" fill="white" transform="translate(0.733398 0.377686)"/>
</clipPath>
</defs>
</svg>
