<svg width="63" height="57" viewBox="0 0 63 57" fill="none" xmlns="http://www.w3.org/2000/svg">
<path d="M1.99991 0.259932C1.70804 0.256167 1.41887 0.316339 1.15272 0.436223C0.886576 0.556107 0.649896 0.732796 0.459301 0.953886C0.268707 1.17498 0.128818 1.43511 0.0494567 1.71601C-0.0299046 1.99692 -0.0468145 2.29179 -8.58679e-05 2.57993L8.49991 54.1199C8.60569 54.7506 8.93032 55.3239 9.41678 55.739C9.90324 56.1542 10.5204 56.3846 11.1599 56.3899H51.8999C52.3793 56.3961 52.8449 56.2299 53.212 55.9215C53.5791 55.6131 53.8232 55.1832 53.8999 54.7099L62.3999 2.59993C62.4466 2.31179 62.4297 2.01692 62.3504 1.73601C62.271 1.45511 62.1311 1.19498 61.9405 0.973886C61.7499 0.752796 61.5132 0.576107 61.2471 0.456223C60.981 0.336339 60.6918 0.276167 60.3999 0.279932L1.99991 0.259932ZM37.7499 37.4999H24.7499L21.2299 19.0999H40.8999L37.7499 37.4999Z" fill="#2684FF"/>
<path d="M59.6699 19.1201H40.8999L37.7499 37.5201H24.7499L9.3999 55.7301C9.88643 56.1508 10.5067 56.3848 11.1499 56.3901H51.8999C52.3793 56.3963 52.8449 56.2301 53.212 55.9217C53.5791 55.6133 53.8232 55.1834 53.8999 54.7101L59.6699 19.1201Z" fill="url(#paint0_linear_81_1226)"/>
<defs>
<linearGradient id="paint0_linear_81_1226" x1="64.0099" y1="24.2701" x2="32.9899" y2="48.4801" gradientUnits="userSpaceOnUse">
<stop offset="0.18" stop-color="#0052CC"/>
<stop offset="1" stop-color="#2684FF"/>
</linearGradient>
</defs>
</svg>
