<svg width="59" height="60" viewBox="0 0 59 60" fill="none" xmlns="http://www.w3.org/2000/svg">
<path d="M34.9408 4.48112C34.8176 4.49937 34.6944 4.53588 34.5758 4.59064C33.5718 5.08807 32.4309 6.56665 32.2118 6.85871C32.1982 6.87697 32.1845 6.89522 32.1753 6.91348C31.0481 8.60198 30.4458 10.578 30.4229 12.6361C30.4093 14.1786 30.7104 15.7074 31.322 17.1814C32.7458 20.5995 35.7029 23.4289 39.2214 24.7523C39.3401 24.7934 39.4542 24.8344 39.6595 24.9075C39.6778 24.9166 39.8512 24.9713 39.8786 24.9759L40.0063 25.0215C40.1889 25.0809 40.376 25.1402 40.5585 25.1767C41.4849 25.3638 42.3885 25.4688 43.2373 25.4962C43.3834 25.4962 43.5294 25.5007 43.6754 25.5007C50.078 25.5007 52.5606 20.9828 53.3866 19.4769C53.4687 19.3308 53.5281 19.2122 53.5828 19.1392C53.5828 19.1346 53.5828 19.1346 53.5874 19.13C53.9479 18.5961 53.811 17.8705 53.2771 17.5054C52.7477 17.1449 52.0221 17.2818 51.657 17.8157H51.6525C49.9457 20.3302 47.025 21.0924 42.9772 20.0884C42.676 20.0154 42.3474 19.9013 42.0554 19.7917C41.672 19.6548 41.2887 19.4951 40.9327 19.3217C40.2254 18.9703 39.5591 18.5505 38.9567 18.085C35.3972 15.3241 34.0053 9.57857 36.0863 6.26089C36.3647 5.81823 36.3145 5.24322 35.9631 4.85533C35.6984 4.56326 35.315 4.43092 34.9408 4.48112ZM24.5908 6.80851C24.3261 6.80395 24.0568 6.89066 23.8378 7.0732C22.0717 8.51071 20.2645 10.8655 20.187 10.9613C20.1778 10.9796 20.1687 10.9933 20.155 11.0115C16.9605 15.6618 16.7187 22.2789 19.5435 27.8692C19.9862 28.7545 20.4881 29.5988 21.0221 30.3746L21.1818 30.6027C21.6336 31.2644 22.1401 32.0129 22.7882 32.597C23.0118 32.8526 23.2536 33.099 23.4909 33.3363L23.605 33.4549L23.7009 33.5508C23.9427 33.7835 24.1892 34.0208 24.4447 34.249H24.4493C24.4675 34.2764 24.4949 34.2946 24.5177 34.3174C24.8052 34.573 25.0973 34.8149 25.4852 35.1206L25.5902 35.1982C25.8914 35.4401 26.1971 35.6683 26.512 35.8919C26.5439 35.9147 26.5759 35.9375 26.6078 35.9603C26.7174 36.0333 26.8269 36.1018 26.9364 36.1794L27.0459 36.2524L27.1737 36.3345C27.4065 36.4897 27.6346 36.6312 27.9586 36.8183C28.1686 36.946 28.3922 37.0738 28.5382 37.1468C28.6021 37.1833 28.6705 37.2198 28.8303 37.3066L29.1862 37.4937C29.2045 37.5028 29.2866 37.5393 29.3049 37.5484C29.5376 37.6671 29.7795 37.7812 30.0214 37.8907L30.391 38.055C30.6329 38.1599 30.8793 38.2603 31.1805 38.3744L31.3174 38.4246C31.3265 38.4338 31.4406 38.4748 31.4497 38.4794C31.6688 38.557 31.8924 38.6345 32.116 38.7076L32.6271 38.8764C32.8827 38.9631 33.1793 39.0635 33.5033 39.1183C35.096 39.383 36.643 39.5199 38.1079 39.5199C38.2813 39.5199 38.4547 39.5153 38.6236 39.5153C51.5201 39.2324 54.8743 28.2753 54.9063 28.1658C55.066 27.6136 54.8059 27.0249 54.2856 26.7785C53.7654 26.5321 53.1447 26.7055 52.8207 27.1801C49.5532 31.9535 43.3742 33.9706 37.0811 32.3095C36.7891 32.2365 36.5061 32.1543 36.1547 32.0402C36.0954 32.022 36.0452 32.0037 35.9494 31.9672C35.744 31.9033 35.5432 31.8349 35.315 31.7482L34.991 31.625C34.8039 31.552 34.6168 31.4789 34.3886 31.3785L34.238 31.3101C33.9597 31.1914 33.6904 31.0591 33.4486 30.9404L32.7823 30.5936C32.6317 30.5206 32.4993 30.4385 32.294 30.3152L32.1799 30.2513L32.0658 30.1829C31.897 30.0825 31.7281 29.9775 31.573 29.868L31.4634 29.7996C31.4543 29.795 31.363 29.7311 31.3539 29.722C31.217 29.6353 31.0847 29.5486 30.9569 29.4664C30.6739 29.2656 30.3956 29.0557 30.0716 28.8001L29.9438 28.6952C26.9318 26.2902 24.7048 23.0775 23.6598 19.632C22.6878 16.4695 23.4088 12.3304 25.5902 8.56091C25.8731 8.07261 25.7681 7.45197 25.3346 7.08689C25.1201 6.90435 24.8554 6.80851 24.5908 6.80851ZM11.7353 10.3133C11.4569 10.3133 11.174 10.4137 10.9504 10.6145C8.71881 12.6179 7.04856 15.2145 6.86602 15.5112C2.09257 22.4614 3.01441 33.2633 6.29102 39.8667C6.35491 40.0036 6.42336 40.1359 6.49181 40.2683L6.53745 40.3413C6.59677 40.4736 6.66523 40.6105 6.68804 40.6379C6.72455 40.7246 6.77931 40.8205 6.80213 40.8479C6.85689 40.9619 6.91166 41.0623 7.01205 41.2358L7.38626 41.8792C7.44102 41.9659 7.49579 42.0572 7.51404 42.0891C7.58706 42.2078 7.66464 42.331 7.74222 42.4542L7.92476 42.7463C7.97952 42.833 8.03428 42.9106 8.07079 42.9562C8.25333 43.2391 8.43587 43.5221 8.63667 43.7913C8.6458 43.805 8.65492 43.8141 8.66405 43.8233L8.73707 43.9237C8.90135 44.161 9.0702 44.3892 9.2208 44.5763L9.88707 45.4205C9.8962 45.4296 9.96922 45.5163 9.97378 45.5255L10.0696 45.635C10.2704 45.8814 10.4849 46.1279 10.6994 46.3652C10.7313 46.4017 10.7633 46.4336 10.7952 46.4701C11.0006 46.6937 11.2105 46.9173 11.4295 47.1501L11.6395 47.3509C11.8129 47.5334 11.9863 47.7114 12.1688 47.8802C12.1688 47.8848 12.2555 47.967 12.2555 47.967L12.4381 48.1358C12.6571 48.3457 12.8853 48.5556 13.0587 48.7017C13.0679 48.7154 13.2321 48.8568 13.2458 48.866C13.4603 49.0576 13.6748 49.2402 13.8939 49.4182L15.0119 50.3035C15.199 50.4404 15.3907 50.5773 15.6097 50.737C15.6828 50.7918 15.7603 50.8465 15.8379 50.8967C15.8699 50.9241 15.9064 50.9515 15.9292 50.9652L16.7689 51.5265C17.0746 51.7273 17.3804 51.9144 17.7546 52.138L17.9554 52.2521C18.1881 52.389 18.4254 52.5259 18.649 52.6446C18.7814 52.7176 18.9137 52.7815 19.0278 52.8408C19.1875 52.9275 19.361 53.0233 19.6256 53.1511C19.6485 53.1648 19.8356 53.2561 19.8584 53.2652C20.1231 53.3976 20.3923 53.5208 20.73 53.6714C20.73 53.6759 20.8395 53.7261 20.8395 53.7261C21.1499 53.8585 21.451 53.9862 21.8481 54.146C21.912 54.1734 21.9759 54.1962 21.9895 54.2007C22.2725 54.3103 22.5691 54.4198 22.811 54.5065C22.8338 54.5156 22.957 54.5658 22.9798 54.5749C23.3038 54.6845 23.6233 54.7894 24.034 54.9172C24.1025 54.94 24.1755 54.9628 24.1846 54.9628L24.4173 55.0359C24.7003 55.1226 24.9832 55.2138 25.289 55.2732C27.4612 55.6702 29.5833 55.8755 31.5912 55.8755H31.5958C48.3302 55.8755 53.6604 42.4086 53.7152 42.2717C53.9205 41.7286 53.6969 41.1171 53.1858 40.8342C52.6838 40.5558 52.0449 40.6881 51.689 41.149C47.3947 46.8033 39.2944 48.9025 30.0214 46.7713C29.7977 46.7165 29.5696 46.6527 29.3459 46.5842L28.9079 46.4519C28.6112 46.3606 28.3146 46.2602 28.0271 46.1598C28.0225 46.1598 27.8902 46.1096 27.8902 46.1096C27.6346 46.0229 27.3791 45.9225 27.1555 45.8358L26.8999 45.7354C26.617 45.6213 26.334 45.5027 26.0602 45.3794L25.9005 45.311C25.6541 45.1969 25.4168 45.0874 25.1795 44.9687C25.1612 44.9596 24.9741 44.8683 24.9558 44.8638C24.7915 44.7816 24.6273 44.6949 24.4173 44.5808L23.4636 44.0697C23.3677 44.0058 23.2673 43.9465 23.1715 43.8963C22.884 43.7183 22.5874 43.5403 22.2953 43.3532C22.2268 43.3122 22.1675 43.2665 22.0534 43.1889C21.8526 43.0612 21.6564 42.9288 21.3689 42.728L21.2548 42.6459C21.0586 42.509 20.8669 42.3629 20.7072 42.2443C20.6068 42.1713 20.5064 42.0891 20.3421 41.9659C20.1961 41.8518 20.05 41.7423 19.9131 41.6328L19.6576 41.4229C19.4431 41.2494 19.2423 41.0669 19.0324 40.8889C19.005 40.8615 18.9822 40.8433 18.9502 40.8205C18.7175 40.606 18.4802 40.3915 18.1973 40.1223L17.3713 39.3008C17.1705 39.0955 16.9697 38.8855 16.7415 38.6345C16.5316 38.4018 16.3308 38.1691 16.0615 37.8496L15.5687 37.2472C15.5093 37.1605 15.4454 37.0738 15.3679 36.9825C15.199 36.7544 15.0302 36.5308 14.8613 36.2935C10.316 30.0323 9.12953 16.9624 12.6708 12.1752C13.0268 11.6961 12.9629 11.0206 12.5157 10.6145C12.2966 10.4137 12.0137 10.3133 11.7353 10.3133Z" fill="#D5D5D5" fill-opacity="0.3"/>
</svg>
