<svg width="27" height="27" viewBox="0 0 27 27" fill="none" xmlns="http://www.w3.org/2000/svg">
<path d="M22.9408 3.526H3.38525V23.0816H22.9408V3.526Z" fill="url(#paint0_linear_80_692)"/>
<path d="M15.0586 12.2173H7.854V13.9903H10.4381V21.9951H12.4854V13.9903H15.0586V12.2173Z" fill="white"/>
<path d="M21.4166 14.4359C21.4166 14.4359 20.4458 13.7884 19.3486 13.7884C18.2513 13.7884 17.8564 14.3098 17.8564 14.8672C17.8564 16.3056 21.8658 16.1616 21.8658 19.0564C21.8658 23.5156 15.7525 21.5378 15.7525 21.5378V19.3986C15.7525 19.3986 16.9215 20.2797 18.3235 20.2797C19.7255 20.2797 19.6723 19.3628 19.6723 19.2368C19.6723 17.9064 15.6987 17.9064 15.6987 14.9573C15.6987 10.9479 21.4883 12.5297 21.4883 12.5297L21.4166 14.4359Z" fill="white"/>
<defs>
<linearGradient id="paint0_linear_80_692" x1="8.37681" y1="0.153754" x2="17.6586" y2="25.6547" gradientUnits="userSpaceOnUse">
<stop stop-color="#2AA4F4"/>
<stop offset="1" stop-color="#007AD9"/>
</linearGradient>
</defs>
</svg>
