<svg width="19" height="19" viewBox="0 0 19 19" fill="none" xmlns="http://www.w3.org/2000/svg">
<g clip-path="url(#clip0_80_764)">
<path d="M18.289 9.79255C18.289 14.8323 14.2028 18.9185 9.16304 18.9185C4.12324 18.9185 0.0371094 14.8323 0.0371094 9.79255C0.0371094 4.75276 4.12324 0.666626 9.16304 0.666626C14.2028 0.666626 18.289 4.75276 18.289 9.79255Z" fill="#DD4814"/>
<path d="M2.95716 8.57424C2.28413 8.57424 1.73828 9.11951 1.73828 9.79312C1.73828 10.4667 2.28356 11.0114 2.95716 11.0114C3.63077 11.0114 4.17604 10.4656 4.17604 9.79255C4.17604 9.11951 3.6302 8.57424 2.95716 8.57424ZM11.6565 14.1125C11.0735 14.4548 10.8739 15.194 11.2104 15.7763C11.5469 16.3587 12.2913 16.5589 12.8742 16.2223C13.4571 15.8858 13.6567 15.1415 13.3202 14.5586C12.9837 13.9756 12.2388 13.7772 11.6565 14.1125ZM5.60368 9.79255C5.60329 9.22132 5.74063 8.65842 6.00404 8.15155C6.26745 7.64468 6.64918 7.20879 7.11687 6.88081L6.22653 5.38929C5.14417 6.1116 4.36508 7.20656 4.03744 8.46587C4.42301 8.77957 4.66827 9.2564 4.66827 9.79255C4.66827 10.3287 4.42187 10.8055 4.03744 11.1192C4.36655 12.3952 5.15993 13.484 6.22653 14.1964L7.11744 12.7043C6.64975 12.3763 6.26802 11.9404 6.00461 11.4336C5.7412 10.9267 5.60329 10.3638 5.60368 9.79255ZM9.16279 6.23344C10.0521 6.2335 10.9091 6.56648 11.5652 7.16682C12.2213 7.76715 12.6288 8.59135 12.7076 9.47714L14.4439 9.45147C14.3612 8.1523 13.8011 6.92957 12.8713 6.01841C12.4082 6.19351 11.8732 6.16671 11.4112 5.89977C11.1911 5.77314 11.0021 5.59897 10.8579 5.38997C10.7138 5.18097 10.6181 4.94242 10.5779 4.69173C10.1324 4.56796 9.65331 4.49951 9.16279 4.49951C8.32036 4.49951 7.52412 4.69743 6.81686 5.04707L7.66329 6.56426C8.11959 6.35208 8.62721 6.23344 9.16222 6.23344H9.16279ZM9.16279 13.3517C8.62664 13.3517 8.11901 13.2319 7.66386 13.0208L6.81743 14.538C7.52469 14.8882 8.32093 15.0856 9.16336 15.0856C9.64122 15.0854 10.1169 15.0206 10.5773 14.8928C10.6572 14.4034 10.9481 13.9528 11.4101 13.6848C11.8721 13.4167 12.4082 13.3916 12.8702 13.5667C13.8 12.6555 14.36 11.4328 14.4427 10.1336L12.7059 10.108C12.6271 10.9935 12.2198 11.8174 11.5641 12.4177C10.9084 13.018 10.0518 13.3512 9.16279 13.3517ZM11.6565 5.47314C12.2394 5.81536 12.9843 5.61003 13.3202 5.02825C13.6562 4.44647 13.4571 3.70043 12.8753 3.36391C12.2936 3.02739 11.5475 3.22702 11.211 3.81051C10.8745 4.394 11.0741 5.13776 11.657 5.47428L11.6565 5.47314Z" fill="white"/>
</g>
<defs>
<clipPath id="clip0_80_764">
<rect width="18.2519" height="18.2519" fill="white" transform="translate(0.0371094 0.666626)"/>
</clipPath>
</defs>
</svg>
