<svg width="25" height="25" viewBox="0 0 25 25" fill="none" xmlns="http://www.w3.org/2000/svg">
<g clip-path="url(#clip0_80_919)">
<path d="M12.4668 16.3576L8.63498 12.5258L12.4668 8.69404V0.79248L1.52347 11.7358C1.31397 11.9453 1.19629 12.2295 1.19629 12.5258C1.19629 12.8221 1.31397 13.1063 1.52347 13.3159L12.4668 24.2592C12.4668 24.2592 14.1429 23.1417 14.1429 20.348C14.0562 18.8655 13.4647 17.4573 12.4668 16.3576Z" fill="#2684FF"/>
<path d="M9.23318 11.781L9.30638 11.8542L12.4666 8.69404V0.79248L6.54346 6.71502C6.98882 8.60714 7.91531 10.3522 9.23318 11.781Z" fill="#1D78F2"/>
<path d="M10.042 11.0089L10.0979 11.0647L12.468 8.6946V0.79248L7.51318 5.74618C7.82387 7.70979 8.70301 9.53937 10.042 11.0089Z" fill="#126AE5"/>
<path d="M12.4668 8.69404V0.79248L8.55566 4.70359C8.64129 6.77939 9.46811 8.75574 10.8861 10.2741L12.4668 8.69404Z" fill="#0B60DA"/>
<path d="M9.67335 4.70359C9.67335 7.35533 11.5769 9.38072 11.6764 9.48409L12.467 8.69404V0.79248L9.7728 3.48668C9.70597 3.88886 9.67271 4.2959 9.67335 4.70359Z" fill="#0154CE"/>
<path d="M12.4667 8.69404L16.2979 12.5258L12.4667 16.3576V24.2592L23.4094 13.3159C23.6189 13.1063 23.7366 12.8221 23.7366 12.5258C23.7366 12.2295 23.6189 11.9453 23.4094 11.7358L12.4667 0.79248C12.4667 0.79248 10.7905 1.90994 10.7905 4.70359C10.8772 6.18611 11.4687 7.5943 12.4667 8.69404Z" fill="#2482FD"/>
<path d="M15.6996 13.2707L15.6264 13.1975L12.4668 16.3577V24.2593L18.3893 18.3367C17.944 16.4446 17.0175 14.6996 15.6996 13.2707Z" fill="#1D78F2"/>
<path d="M14.8913 14.0427L14.8354 13.9868L12.4658 16.3569V24.2591L17.4195 19.3054C17.1088 17.3419 16.2299 15.5124 14.8913 14.0427Z" fill="#126AE5"/>
<path d="M12.4668 16.3577V24.2592L16.3779 20.3481C16.2922 18.2722 15.4651 16.2959 14.0469 14.7776L12.4668 16.3577Z" fill="#0B60DA"/>
<path d="M15.2604 20.3481C15.2604 17.6964 13.3569 15.671 13.2568 15.5676L12.4668 16.3577V24.2592L15.161 21.565C15.2275 21.1628 15.2608 20.7558 15.2604 20.3481Z" fill="#0154CE"/>
<path d="M12.4668 16.3577L8.63504 12.5259H2.40967V14.2021L12.4668 24.2592C12.4668 24.2592 14.143 23.1418 14.143 20.3481C14.0563 18.8656 13.4648 17.4574 12.4668 16.3577Z" fill="#2684FF"/>
</g>
<defs>
<clipPath id="clip0_80_919">
<rect width="23.4667" height="23.4667" fill="white" transform="translate(0.733398 0.79248)"/>
</clipPath>
</defs>
</svg>
