<svg width="64" height="64" viewBox="0 0 64 64" fill="none" xmlns="http://www.w3.org/2000/svg">
<path d="M54.6301 7.26379H9.94409L13.887 51.9498L32.2871 57.207L50.6873 51.9498L54.6301 7.26379Z" fill="#E65100"/>
<path d="M32.2871 11.2067V53.1327L47.0072 48.9269L50.293 11.2067H32.2871Z" fill="#FF6D00"/>
<path d="M32.2871 33.5496V28.2924H43.59L42.67 43.4068L32.2871 46.824V41.304L37.6757 39.464L38.07 33.5496H32.2871ZM43.9843 23.0353L44.3786 17.7781H32.2871V23.0353H43.9843Z" fill="white"/>
<path d="M32.2872 41.304V46.824L21.9043 43.4068L21.3786 36.1782H26.6358L26.8986 39.464L32.2872 41.304ZM25.8472 23.0353H32.2872V17.7781H20.3271L21.2472 33.5496H32.2872V28.2924H26.2415L25.8472 23.0353Z" fill="#EEEEEE"/>
</svg>
