<svg width="24" height="22" viewBox="0 0 24 22" fill="none" xmlns="http://www.w3.org/2000/svg">
<path d="M0.257125 8.016H4.73713V22H0.257125V8.016ZM0.161125 3.056C0.161125 2.39467 0.417125 1.85067 0.929125 1.424C1.46246 0.997332 2.02779 0.783998 2.62513 0.783998C3.22246 0.783998 3.76646 0.997332 4.25713 1.424C4.76913 1.85067 5.02513 2.39467 5.02513 3.056C5.02513 3.71733 4.76913 4.26133 4.25713 4.688C3.76646 5.09333 3.22246 5.296 2.62513 5.296C2.02779 5.296 1.46246 5.09333 0.929125 4.688C0.417125 4.26133 0.161125 3.71733 0.161125 3.056ZM13.4149 8.016L13.7669 10.512L13.7029 10.288C14.1935 9.41333 14.8869 8.70933 15.7829 8.176C16.6789 7.62133 17.7775 7.344 19.0789 7.344C20.4015 7.344 21.5002 7.73867 22.3749 8.528C23.2709 9.296 23.7295 10.2987 23.7509 11.536V22H19.2709V13.2C19.2495 12.5813 19.0789 12.0907 18.7589 11.728C18.4602 11.344 17.9482 11.152 17.2229 11.152C16.5402 11.152 15.9429 11.376 15.4309 11.824C14.9189 12.272 14.5242 12.88 14.2469 13.648C13.9695 14.416 13.8309 15.3013 13.8309 16.304V22H9.35088V8.016H13.4149Z" fill="#615E6E"/>
</svg>
